<svg id="Capa_1" enable-background="new 0 0 512 512" height="512" viewBox="0 0 512 512" width="512" xmlns="http://www.w3.org/2000/svg"><g><path d="m510.416 249.292-48.944-97.889c-9.376-18.753-28.226-30.403-49.194-30.403h-75.278c-8.284 0-15 6.716-15 15v280c0 8.284 6.716 15 15 15h160c8.284 0 15-6.716 15-15v-85l-20-15 20-15v-45c0-2.329-.542-4.625-1.584-6.708z" fill="#e20059"/><path d="m412.278 151c9.53 0 18.099 5.295 22.361 13.819l38.09 76.181h-120.729v-90z" fill="#98f9ff"/><path d="m512 331h-25c-8.284 0-15-6.716-15-15 0-8.284 6.716-15 15-15h25z" fill="#ff8e00"/><path d="m352 431h-337c-8.284 0-15-6.716-15-15v-320c0-30.376 24.624-55 55-55h242c30.376 0 55 24.624 55 55z" fill="#7dd5f4"/><path d="m297 41h-121v390h176v-335c0-30.376-24.624-55-55-55z" fill="#0fa7da"/><path d="m176 126-85 72.857v107.143c0 8.284 6.716 15 15 15h140c8.284 0 15-6.716 15-15v-107.143z" fill="#f6f9f9"/><path d="m246 321c8.284 0 15-6.716 15-15v-107.143l-85-72.857v195z" fill="#dadfe7"/><path d="m161 321v-55c0-8.284 6.716-15 15-15s15 6.716 15 15v55z" fill="#c8ffff"/><path d="m191 321v-55c0-8.284-6.716-15-15-15v70z" fill="#98f9ff"/><path d="m186 221h-20c-8.284 0-15-6.716-15-15s6.716-15 15-15h20c8.284 0 15 6.716 15 15s-6.716 15-15 15z" fill="#c8ffff"/><path d="m186 191h-10v30h10c8.284 0 15-6.716 15-15s-6.716-15-15-15z" fill="#98f9ff"/><path d="m270.993 222.429c-3.455 0-6.926-1.187-9.755-3.612l-85.238-73.061-85.238 73.061c-6.288 5.392-15.759 4.664-21.15-1.627-5.392-6.29-4.663-15.759 1.627-21.15l95-81.429c5.617-4.815 13.906-4.815 19.523 0l95 81.429c6.29 5.391 7.019 14.861 1.627 21.15-2.967 3.461-7.169 5.239-11.396 5.239z" fill="#ff8493"/><path d="m261.238 218.817c2.829 2.425 6.3 3.612 9.755 3.612 4.227 0 8.429-1.778 11.396-5.239 5.392-6.29 4.663-15.759-1.627-21.15l-95-81.429c-2.809-2.407-6.285-3.611-9.762-3.611v34.757z" fill="#e20059"/><circle cx="95" cy="416" fill="#00429b" r="55"/><circle cx="95" cy="416" fill="#f6f9f9" r="25"/><circle cx="417" cy="416" fill="#00337a" r="55"/><circle cx="417" cy="416" fill="#dadfe7" r="25"/><path d="m412.73 241h33.54l-15.854-31.708c-3.704-7.41-12.713-10.414-20.124-6.708-7.41 3.705-10.413 12.715-6.708 20.125z" fill="#00337a"/></g></svg>