<svg id="Capa_1" enable-background="new 0 0 512 512" height="512" viewBox="0 0 512 512" width="512" xmlns="http://www.w3.org/2000/svg"><g><path d="m391.084 90.072v-30.024h-165.096l-20 50.024z" fill="#b4d2d7"/><path d="m225.988 60.048h-165.095v30.024l165.095 20z" fill="#e1ebf0"/><path d="m225.988 90.072-20 50.024 185.096-20v-30.024z" fill="#87a0af"/><path d="m60.893 90.072v30.024l165.095 20v-50.024z" fill="#b4d2d7"/><path d="m421.108 120.096h-195.12l-20 200.771 20 191.133h195.12z" fill="#e1ebf0"/><path d="m30.868 120.096h195.12v391.904h-195.12z" fill="#fff5f5"/><path d="m376.084 467v-281.856h-30c-57.585 0-85.561-4.659-115.18-9.592-1.634-.272-3.272-.545-4.916-.817l-20 141.314 20 150.952h150.096z" fill="#ff415b"/><path d="m75.892 165.144v301.856h150.096v-292.265c-29.273-4.848-60.898-9.591-120.096-9.591z" fill="#ff7c48"/><path d="m376.084 361.072c-57.924 0-105.048-47.124-105.048-105.047v-211c0-8.284-6.74-15.024-15.024-15.024s-15.023 6.74-15.023 15.024v15.024h-30v-15.025c-.001-24.826 20.197-45.024 45.023-45.024s45.024 20.198 45.024 45.024v211c0 41.381 33.666 75.047 75.048 75.047s75.048-33.666 75.048-75.047v-256.024h30v256.024c0 57.924-47.124 105.048-105.048 105.048z" fill="#c50048"/></g></svg>