<?xml version="1.0" encoding="utf-8"?>
<!-- Generator: Adobe Illustrator 23.0.6, SVG Export Plug-In . SVG Version: 6.00 Build 0)  -->
<svg version="1.1" id="Layer_1" xmlns="http://www.w3.org/2000/svg" xmlns:xlink="http://www.w3.org/1999/xlink" x="0px" y="0px"
	 viewBox="0 0 1683.2 742.7" style="enable-background:new 0 0 1683.2 742.7;" xml:space="preserve">
<style type="text/css">
	.st0{fill:#FFC600;}
	.st1{fill:#FFB400;}
	.st2{fill:#FFA700;}
	.st3{fill:#FF9A00;}
	.st4{fill:#D80000;}
	.st5{fill:#FFFFFF;}
	.st6{fill:none;stroke:#FFFFFF;stroke-width:10;stroke-miterlimit:10;}
</style>
<title>hero_intro</title>
<path class="st0" d="M513.6,58.4V538c0,113-91.6,204.7-204.8,204.7h-86.1V514.5c46.7-21.3,89.7-49.9,127.6-84.5
	c5.8-5.2,11.5-10.6,16.8-16C461.6,319.6,513.6,193.3,513.6,58.4z"/>
<path class="st0" d="M513.6,7.6v438.8c0,113-91.6,204.7-204.8,204.7h-86.1V429.8c53.3-20,102.2-50,144.3-88.3
	c5.1-4.6,10.1-9.4,15-14.3C464.3,245,508,137.9,513.1,29.2C513.5,22,513.6,14.8,513.6,7.6z"/>
<path class="st1" d="M513.6,41.5v16.9c0,134.9-52,261.2-146.4,355.7c-5.3,5.3-11,10.7-16.8,16c-37.9,34.7-80.9,63.2-127.6,84.5
	v-27.9c48.9-21,93.9-50.1,133.2-86c5.6-5.1,11-10.3,16.2-15.4C463.4,293.9,513.6,171.8,513.6,41.5z"/>
<path class="st2" d="M513.6,24.5v16.9c0,130.4-50.2,252.4-141.5,343.7c-5.2,5.1-10.6,10.3-16.2,15.4c-39.3,35.9-84.3,65-133.2,86
	v-28.1c51.1-20.6,98.1-50.2,138.7-87.4c5.4-4.9,10.7-9.9,15.6-14.9C465.1,268.2,513.6,150.4,513.6,24.5z"/>
<path class="st3" d="M513.6,7.6v16.9c0,125.9-48.5,243.7-136.5,331.7c-5,5-10.2,9.9-15.6,14.8c-40.7,37.2-87.6,66.8-138.7,87.4
	v-28.5C276,410,325,380,367,341.7c5.1-4.6,10.1-9.4,15-14.3c82.3-82.2,126-189.4,131.1-298.1C513.5,22,513.6,14.8,513.6,7.6z"/>
<path class="st4" d="M513.7,7.6V8c0,1.3-0.1,2.5-0.2,3.8C513.6,10.4,513.6,9,513.7,7.6z"/>
<path class="st5" d="M594.2,53.4c0-29.3,16.7-45.8,41.4-45.8s41.4,16.6,41.4,45.8s-16.7,46.6-41.4,46.6S594.2,82.7,594.2,53.4z
	 M652.8,53.4c0-16.2-6.6-25.5-17.3-25.5s-17.3,9.3-17.3,25.5s6.6,26.3,17.3,26.3S652.8,69.5,652.8,53.4z"/>
<path class="st5" d="M684.8,9.3h24.1L728.6,49l8.5,20h0.5c-1.1-9.6-3-23-3-34V9.3h22.5v89H733l-19.7-39.8l-8.5-19.9h-0.5
	c1.1,10.1,3,23,3,34v25.7h-22.5V9.3z"/>
<path class="st5" d="M767.1,9.3h57.5V29h-34v14h29v19.7h-29v15.9H826v19.7h-58.9L767.1,9.3z"/>
<path class="st5" d="M594.2,119.6h23.6v33.1h26.6v-33.1h23.6v89h-23.6v-35.3h-26.6v35.4h-23.6V119.6z"/>
<path class="st5" d="M702.2,119.6h28.5l27.1,89h-24.9l-10.1-43.3c-2.2-8.5-4.4-19.3-6.6-28.2h-0.5c-1.9,9-4.1,19.7-6.3,28.2
	l-10.1,43.3h-24.1L702.2,119.6z"/>
<path class="st5" d="M755.6,164.8c0-29.9,20.5-46.8,43-46.8c10.4,0.1,20.4,4.3,27.7,11.8L814,144.8c-4.4-3.8-8.8-6.6-14.8-6.6
	c-10.4,0-19.5,9.6-19.5,25.8c0,16.7,7.7,26,19.2,26c6.8,0,12.3-3.6,16.2-7.7l12.3,14.8c-7.5,8.8-17.8,13.1-29.3,13.1
	C775.3,210.3,755.6,195.2,755.6,164.8z"/>
<path class="st5" d="M834.2,119.6h23.6v33.1h0.5l22.5-33.2h25.8L880,155.8l31.8,52.9H886l-19.7-34.2l-8.5,12.1v22.2h-23.6V119.6z"/>
<path class="st5" d="M984.8,119.6h28.5l27.1,89h-24.9l-10.1-43.3c-2.2-8.5-4.4-19.3-6.6-28.2h-0.5c-1.9,9-4.1,19.7-6.3,28.2
	l-10.1,43.3h-24.1L984.8,119.6z"/>
<path class="st5" d="M617.7,251.3h-23.6v-19.7h70.7v19.7h-23.6v69.3h-23.5V251.3z"/>
<path class="st5" d="M672.5,231.6H696v33.1h26.6v-33.1h23.6v89h-23.6v-35.3H696v35.3h-23.6V231.6z"/>
<path class="st5" d="M756.6,275.7c0-29.3,16.7-45.8,41.4-45.8s41.4,16.6,41.4,45.8s-16.7,46.6-41.3,46.6S756.6,305,756.6,275.7z
	 M815.2,275.7c0-16.2-6.6-25.5-17.3-25.5s-17.3,9.3-17.3,25.5S787.3,302,798,302S815.2,291.8,815.2,275.7z"/>
<path class="st5" d="M849.7,231.6h24.1l19.7,39.7l8.5,20h0.5c-1.1-9.6-3-23-3-34v-25.7H922v89h-24.1l-19.7-39.9l-8.5-19.9h-0.5
	c1.1,10.1,3,23,3,34v25.7h-22.5V231.6z"/>
<rect x="912.9" y="155" class="st5" width="43.6" height="18.2"/>
<rect x="1041.6" y="155" class="st5" width="43.6" height="18.2"/>
<path class="st5" d="M600.1,393.9c0-15,8-24.5,19.3-24.5s19.3,9.5,19.3,24.5s-8.1,24.7-19.3,24.7S600.1,408.9,600.1,393.9z
	 M636.2,393.9c0-13.7-6.8-22.3-16.8-22.3s-16.8,8.6-16.8,22.3s6.8,22.6,16.8,22.6S636.2,407.6,636.2,393.9z"/>
<path class="st5" d="M647.4,383.4h1.9l0.3,5.5h0.1c3.6-3.6,7.2-6.3,11.9-6.3c7,0,10.4,4.2,10.4,13.1v22.1h-2.2v-21.9
	c0-7.6-2.5-11.4-8.3-11.4c-4.3,0-7.5,2.3-11.9,6.9v26.3h-2.2V383.4z"/>
<path class="st5" d="M683.1,414v-48.1h2.2v48.6c0,1.4,0.6,2.2,1.4,2.2c0.4,0,0.9,0,1.3-0.1l0.4,1.9c-0.6,0.2-1.2,0.3-1.9,0.3
	C684.4,418.6,683.1,417.3,683.1,414z"/>
<path class="st5" d="M696.2,372.2c0.1-1.4,1.3-2.4,2.6-2.3c1.2,0.1,2.2,1.1,2.3,2.3c0.1,1.4-0.9,2.5-2.3,2.6
	c-1.4,0.1-2.5-0.9-2.6-2.3C696.2,372.4,696.2,372.3,696.2,372.2z M697.5,383.4h2.2v34.4h-2.2V383.4z"/>
<path class="st5" d="M711.3,383.4h1.9l0.3,5.5h0.1c3.6-3.6,7.2-6.3,11.9-6.3c7,0,10.4,4.2,10.4,13.1v22.1h-2.2v-21.9
	c0-7.6-2.4-11.4-8.3-11.4c-4.3,0-7.5,2.3-11.9,6.9v26.3h-2.2V383.4z"/>
<path class="st5" d="M744,400.6c0-11.2,7.2-18.1,14.8-18.1c7.9,0,12.9,5.6,12.9,15.8c0,0.8,0,1.5-0.1,2.3h-25.4
	c0,9.2,5.3,16,13.5,16c3.4,0,6.8-1.1,9.5-3.2l1,1.9c-3.1,2.2-6.8,3.3-10.6,3.3C751,418.6,744,411.9,744,400.6z M769.6,398.6
	c0-9.5-4.3-14.1-10.8-14.1c-6.2,0-11.8,5.3-12.5,14.1H769.6z"/>
<path class="st5" d="M788.5,393.9c0-15,8.2-24.5,20.7-24.5c4.8-0.1,9.5,2,12.7,5.6l-1.4,1.6c-2.8-3.3-6.9-5.1-11.2-5
	c-11.4,0-18.3,8.6-18.3,22.3s6.6,22.6,17.7,22.6c4.6,0,8.9-1.4,11.4-3.9v-15.7h-11.8v-2h14.1v18.4c-2.9,3.2-7.6,5.3-13.8,5.3
	C796.5,418.6,788.5,408.9,788.5,393.9z"/>
<path class="st5" d="M832.4,414v-48.1h2.2v48.6c0,1.4,0.6,2.2,1.4,2.2c0.4,0,0.9,0,1.3-0.1l0.4,1.9c-0.6,0.2-1.2,0.3-1.9,0.3
	C833.7,418.6,832.4,417.3,832.4,414z"/>
<path class="st5" d="M843.8,400.6c0-11.5,7-18.1,15.2-18.1s15.2,6.6,15.2,18.1s-7,18-15.2,18S843.8,412,843.8,400.6z M872,400.6
	c0-9.5-5.6-16.1-13-16.1s-12.9,6.6-12.9,16.1s5.6,16,12.9,16S872,410.1,872,400.6L872,400.6z"/>
<path class="st5" d="M885.2,414.3h-0.1l-0.3,3.5h-1.9v-51.9h2.2v15.4l-0.2,6.9c3.6-3,7.9-5.6,12.2-5.6c9.3,0,13.8,6.9,13.8,17.5
	c0,11.6-7,18.5-15.2,18.5C892.4,418.6,888.5,416.9,885.2,414.3z M908.6,400.1c0-8.8-3.2-15.5-11.7-15.5c-3.6,0-7.6,2.2-11.9,6v21.3
	c4,3.5,8,4.8,10.8,4.8C903.3,416.6,908.6,409.7,908.6,400.1L908.6,400.1z"/>
<path class="st5" d="M915.7,409.4c0-7.7,7-11.3,22.6-13c0.2-5.6-1.3-11.8-8.5-11.8c-4.1,0.1-8,1.6-11.2,4.2l-1.2-1.7
	c2.2-1.6,6.9-4.5,12.5-4.5c8.1,0,10.5,6,10.5,12.9v22.3h-1.9l-0.3-4.6h-0.1c-3.6,2.9-7.9,5.5-12.5,5.5
	C920.3,418.6,915.7,415.9,915.7,409.4z M938.3,410.7v-12.5c-15.1,1.7-20.3,5.2-20.3,11.1c0,5.3,3.6,7.3,7.8,7.3
	S933.7,414.6,938.3,410.7z"/>
<path class="st5" d="M951.1,414v-48.1h2.2v48.6c0,1.4,0.6,2.2,1.4,2.2c0.4,0,0.9,0,1.3-0.1l0.4,1.9c-0.6,0.2-1.2,0.3-1.9,0.3
	C952.4,418.6,951.1,417.3,951.1,414z"/>
<path class="st5" d="M600.1,461.6c0-15,7.9-24.5,20-24.5c4.7,0,9.1,2.1,12.1,5.6l-1.4,1.6c-2.6-3.2-6.5-5-10.7-5
	c-10.9,0-17.5,8.6-17.5,22.3s6.6,22.6,17.3,22.6c5,0,8.8-2,12.4-6l1.4,1.4c-3.6,4.2-7.8,6.8-14,6.8
	C608,486.3,600.1,476.5,600.1,461.6z"/>
<path class="st5" d="M641.3,433.5h2.2v23.2c3.7-3.7,7.3-6.5,12.1-6.5c7,0,10.3,4.2,10.3,13.1v22.1h-2.2v-21.9
	c0-7.6-2.4-11.4-8.3-11.4c-4.3,0-7.5,2.3-11.9,6.9v26.3h-2.2V433.5z"/>
<path class="st5" d="M674,477c0-7.7,7-11.3,22.6-13c0.2-5.6-1.3-11.8-8.5-11.8c-4.1,0.1-8,1.6-11.2,4.2l-1.2-1.7
	c2.2-1.6,6.9-4.5,12.5-4.5c8,0,10.5,6,10.5,12.9v22.3h-1.9l-0.3-4.6h-0.1c-3.6,2.9-7.9,5.5-12.5,5.5C678.7,486.3,674,483.6,674,477z
	 M696.6,478.4v-12.5c-15.1,1.7-20.3,5.2-20.3,11.1c0,5.3,3.6,7.3,7.8,7.3S692,482.3,696.6,478.4L696.6,478.4z"/>
<path class="st5" d="M709.4,481.7v-48.2h2.2v48.6c0,1.4,0.6,2.2,1.4,2.2c0.4,0,0.9,0,1.3-0.1l0.4,1.9c-0.6,0.2-1.2,0.3-1.9,0.3
	C710.7,486.3,709.4,485,709.4,481.7z"/>
<path class="st5" d="M723.8,481.7v-48.2h2.2v48.6c0,1.4,0.6,2.2,1.4,2.2c0.4,0,0.9,0,1.3-0.1l0.4,1.9c-0.6,0.2-1.2,0.3-1.9,0.3
	C725.1,486.3,723.8,485,723.8,481.7z"/>
<path class="st5" d="M735.2,468.3c0-11.2,7.2-18.1,14.8-18.1c7.9,0,12.9,5.6,12.9,15.8c0,0.8,0,1.5-0.1,2.3h-25.3
	c0,9.2,5.3,16,13.5,16c3.4,0,6.8-1.1,9.5-3.2l1,1.9c-3.1,2.2-6.8,3.3-10.6,3.3C742.2,486.3,735.2,479.6,735.2,468.3z M760.8,466.3
	c0-9.5-4.3-14.1-10.8-14.1c-6.2,0-11.8,5.3-12.5,14.1H760.8z"/>
<path class="st5" d="M770.4,451.1h1.9l0.3,5.5h0.1c3.6-3.6,7.2-6.3,11.9-6.3c7,0,10.4,4.2,10.4,13.1v22.1h-2.2v-21.9
	c0-7.6-2.5-11.4-8.3-11.4c-4.3,0-7.5,2.3-11.9,6.9v26.3h-2.2V451.1z"/>
<path class="st5" d="M803.1,492.6c0-3,2-6.2,5.2-8.5v-0.3c-1.9-1.1-3.1-3.2-3-5.5c0-3.2,2.3-5.3,3.7-6.3v-0.3
	c-2.7-2.4-4.3-5.9-4.3-9.5c-0.1-6.5,5-11.9,11.6-12.1c1.6,0,3.2,0.3,4.7,0.9h11.5v2h-8.3c5.1,4.5,5.6,12.2,1.1,17.3
	c-2.2,2.5-5.4,4-8.8,4.2c-2.1,0-4.1-0.5-5.9-1.6c-1.6,1.3-3,2.9-3,5.3c0,2.6,1.4,4.8,6.8,4.8h7.6c7.6,0,11.1,2.5,11.1,7.8
	c0,5.8-6.2,11.5-15.8,11.5C808.4,502.3,803.1,498.4,803.1,492.6z M830.7,490.9c0-4-2.9-5.6-8.3-5.6h-7.9c-1.4-0.1-2.8-0.3-4.2-0.6
	c-3.5,2.3-4.9,5.2-4.9,7.8c0,4.6,4.3,7.8,11.9,7.8C825.5,500.3,830.7,495.5,830.7,490.9L830.7,490.9z M825.9,462.3
	c0-6.1-4.3-10.1-9.5-10.1s-9.5,3.9-9.5,10.1s4.5,10.2,9.5,10.2S825.9,468.3,825.9,462.3z"/>
<path class="st5" d="M834.7,468.3c0-11.2,7.2-18.1,14.8-18.1c7.9,0,12.9,5.6,12.9,15.8c0,0.8,0,1.5-0.1,2.3H837
	c0,9.2,5.3,16,13.5,16c3.4,0,6.8-1.1,9.5-3.2l1,1.9c-3.1,2.2-6.8,3.3-10.7,3.3C841.8,486.3,834.7,479.6,834.7,468.3z M860.3,466.3
	c0-9.5-4.3-14.1-10.8-14.1c-6.2,0-11.8,5.3-12.5,14.1H860.3z"/>
<path class="st6" d="M513.6,7.5L513.6,7.5c0,7.3-0.2,14.5-0.5,21.7c-5.1,108.7-48.8,215.7-131.1,298c-4.9,4.9-9.9,9.7-15,14.3
	c-42,38.3-91,68.3-144.3,88.3c-32.6,12.2-66.6,20.6-101.1,25.1c-14.7,1.9-29.5,3.2-44.3,3.6V211.7c57.1-4.2,109.9-32.1,145.4-77.1
	C251.5,98.5,267.1,53.7,267,7.5H513.6z"/>
<path class="st5" d="M610.8,570.8h-5.5v-2h13.5v2h-5.6v16.4h-2.3V570.8z"/>
<path class="st5" d="M622,567.2h2.3v5.5l-0.1,2.8c1.1-1.3,2.8-2.1,4.5-2.2c2.9,0,4.2,1.8,4.2,5.3v8.6h-2.3v-8.3
	c0-2.5-0.8-3.6-2.6-3.6c-1.4,0-2.4,0.7-3.7,2.1v9.9H622V567.2z"/>
<path class="st5" d="M636.5,580.4c0-4.4,3-7.2,6.1-7.2c3.5,0,5.4,2.5,5.4,6.4c0,0.4,0,0.9-0.1,1.3h-9.2c0.2,2.9,1.9,4.8,4.5,4.8
	c1.2,0,2.4-0.4,3.4-1.1l0.8,1.5c-1.3,0.9-2.9,1.4-4.5,1.4C639.4,587.5,636.5,584.9,636.5,580.4z M646,579.3c0-2.7-1.2-4.2-3.4-4.2
	c-1.9,0-3.6,1.5-3.9,4.2H646z"/>
<path class="st5" d="M656,573.6h2.3l2,7.9c0.3,1.3,0.5,2.5,0.8,3.8h0.1c0.3-1.3,0.6-2.5,0.9-3.8l2.1-7.9h2.2l2.1,7.9
	c0.3,1.3,0.6,2.5,0.9,3.8h0.1c0.3-1.3,0.5-2.5,0.8-3.8l2-7.9h2.2l-3.7,13.6h-2.8l-2-7.3c-0.3-1.3-0.6-2.5-0.9-3.9h-0.1
	c-0.3,1.4-0.6,2.7-0.9,4l-1.9,7.3h-2.7L656,573.6z"/>
<path class="st5" d="M676.8,580.4c0-4.5,3-7.2,6.3-7.2s6.3,2.6,6.3,7.2s-3,7.1-6.3,7.1S676.8,584.9,676.8,580.4z M687.1,580.4
	c0-3.1-1.6-5.2-3.9-5.2s-3.9,2.1-3.9,5.2s1.6,5.2,3.9,5.2S687.1,583.5,687.1,580.4z"/>
<path class="st5" d="M693.3,573.6h1.9l0.2,2.5h0.1c1-1.7,2.3-2.8,3.9-2.8c0.5,0,1,0.1,1.5,0.3l-0.4,2c-0.4-0.2-0.9-0.2-1.3-0.2
	c-1.2,0-2.5,0.8-3.4,3.1v8.7h-2.3L693.3,573.6z"/>
<path class="st5" d="M703.3,584.4v-17.2h2.3v17.4c0,0.7,0.3,1,0.6,1c0.2,0,0.3,0,0.5,0l0.3,1.8c-0.4,0.1-0.9,0.2-1.3,0.2
	C704,587.5,703.3,586.4,703.3,584.4z"/>
<path class="st5" d="M709.8,580.4c0-4.4,2.8-7.2,5.9-7.2c1.4,0,2.8,0.6,3.8,1.6l-0.1-2.3v-5.2h2.3v20h-1.9l-0.2-1.6h-0.1
	c-1.1,1.2-2.6,1.9-4.1,1.9C712,587.5,709.8,584.9,709.8,580.4z M719.4,583.7v-7.1c-0.9-0.9-2.1-1.4-3.3-1.4c-2.2,0-3.9,2.1-3.9,5.2
	c0,3.3,1.3,5.2,3.7,5.2C717.2,585.5,718.5,584.8,719.4,583.7L719.4,583.7z"/>
<path class="st5" d="M732,569.3c0-0.9,0.7-1.6,1.6-1.6c0.9,0,1.6,0.7,1.6,1.6c0,0.9-0.7,1.6-1.6,1.6
	C732.7,570.9,732,570.2,732,569.3z M732.4,573.6h2.3v13.6h-2.3V573.6z"/>
<path class="st5" d="M738.1,585.6l1.1-1.5c1.1,1,2.5,1.6,4,1.6c1.8,0,2.7-1,2.7-2.1c0-1.4-1.6-2-3.1-2.6c-1.9-0.7-4.1-1.6-4.1-3.9
	s1.7-3.9,4.7-3.9c1.5,0,3,0.6,4.2,1.5l-1.1,1.5c-0.9-0.7-2-1.2-3.1-1.2c-1.7,0-2.5,0.9-2.5,2c0,1.3,1.5,1.8,3,2.4
	c2,0.7,4.2,1.5,4.2,4.1c0,2.2-1.8,4-5,4C741.3,587.5,739.5,586.8,738.1,585.6z"/>
<path class="st5" d="M756.5,589.8c0.1-1.3,0.9-2.5,2-3.1v-0.1c-0.8-0.5-1.2-1.3-1.2-2.2c0.1-1,0.6-2,1.5-2.5v-0.1
	c-1.1-0.9-1.7-2.2-1.8-3.7c0-2.7,2.1-4.8,4.8-4.9c0.1,0,0.2,0,0.3,0c0.7,0,1.3,0.1,1.9,0.3h4.8v1.8h-2.8c0.7,0.7,1.1,1.8,1.1,2.8
	c0,2.6-2,4.7-4.6,4.7c-0.1,0-0.3,0-0.4,0c-0.7,0-1.4-0.2-2-0.5c-0.5,0.4-0.9,1-0.9,1.6c0,0.9,0.6,1.5,2.4,1.5h2.7
	c3.2,0,4.8,1,4.8,3.2c0,2.5-2.7,4.7-6.9,4.7C758.8,593.4,756.5,592.1,756.5,589.8z M766.7,589.1c0-1.3-1-1.7-2.8-1.7h-2.3
	c-0.6,0-1.2-0.1-1.8-0.2c-0.8,0.5-1.3,1.3-1.4,2.3c0,1.5,1.5,2.4,3.9,2.4S766.7,590.5,766.7,589.1L766.7,589.1z M765,578.1
	c0.1-1.6-1.1-3-2.6-3.1c-1.6-0.1-3,1.1-3.1,2.6c0,0.2,0,0.3,0,0.5c-0.2,1.6,1,3,2.5,3.2s3-1,3.2-2.5C765,578.5,765,578.3,765,578.1z
	"/>
<path class="st5" d="M770.5,580.4c0-4.5,3-7.2,6.3-7.2s6.3,2.6,6.3,7.2s-3,7.1-6.3,7.1S770.5,584.9,770.5,580.4z M780.7,580.4
	c0-3.1-1.6-5.2-3.9-5.2s-3.9,2.1-3.9,5.2s1.6,5.2,3.9,5.2S780.7,583.5,780.7,580.4L780.7,580.4z"/>
<path class="st5" d="M786.5,569.3c0-0.9,0.7-1.6,1.6-1.6c0.9,0,1.6,0.7,1.6,1.6c0,0.9-0.7,1.6-1.6,1.6
	C787.2,570.9,786.5,570.2,786.5,569.3z M786.9,573.6h2.3v13.6h-2.3V573.6z"/>
<path class="st5" d="M794.1,573.6h1.9l0.2,2h0.1c1.1-1.4,2.8-2.2,4.6-2.3c2.9,0,4.2,1.8,4.2,5.3v8.6h-2.3v-8.3
	c0-2.5-0.8-3.6-2.6-3.6c-1.4,0-2.4,0.7-3.7,2.1v9.9h-2.3L794.1,573.6z"/>
<path class="st5" d="M808.7,589.8c0.1-1.3,0.9-2.5,2-3.1v-0.1c-0.8-0.5-1.2-1.3-1.2-2.2c0.1-1,0.6-2,1.5-2.5v-0.1
	c-1.1-0.9-1.7-2.2-1.8-3.7c0-2.7,2.1-4.8,4.8-4.9c0.1,0,0.2,0,0.3,0c0.7,0,1.3,0.1,1.9,0.3h4.8v1.8h-2.8c0.7,0.7,1.1,1.8,1.1,2.8
	c0,2.6-2,4.7-4.6,4.7c-0.1,0-0.3,0-0.4,0c-0.7,0-1.4-0.2-2-0.5c-0.5,0.4-0.9,1-0.9,1.6c0,0.9,0.6,1.5,2.4,1.5h2.7
	c3.2,0,4.8,1,4.8,3.2c0,2.5-2.7,4.7-6.9,4.7C811,593.4,808.7,592.1,808.7,589.8z M818.9,589.1c0-1.3-1-1.7-2.8-1.7h-2.3
	c-0.6,0-1.2-0.1-1.8-0.2c-0.8,0.5-1.3,1.3-1.4,2.3c0,1.5,1.5,2.4,3.9,2.4S818.9,590.5,818.9,589.1L818.9,589.1z M817.2,578.1
	c0.1-1.6-1.1-3-2.6-3.1c-1.6-0.1-3,1.1-3.1,2.6c0,0.2,0,0.3,0,0.5c-0.2,1.6,1,3,2.5,3.2s3-1,3.2-2.5
	C817.2,578.5,817.2,578.3,817.2,578.1z"/>
<path class="st5" d="M830.4,583v-7.5h-2v-1.8l2.1-0.1l0.3-3.8h1.9v3.8h3.7v1.9h-3.7v7.6c0,1.7,0.5,2.6,2.1,2.6
	c0.5,0,1.1-0.2,1.5-0.4l0.5,1.7c-0.8,0.3-1.7,0.5-2.5,0.5C831.4,587.5,830.4,585.7,830.4,583z"/>
<path class="st5" d="M839.7,567.2h2.3v5.5l-0.1,2.8c1.1-1.3,2.8-2.1,4.5-2.2c2.9,0,4.2,1.8,4.2,5.3v8.6h-2.3v-8.3
	c0-2.5-0.8-3.6-2.6-3.6c-1.4,0-2.4,0.7-3.7,2.1v9.9h-2.3L839.7,567.2z"/>
<path class="st5" d="M855.2,573.6h1.9l0.2,2.5h0.1c1-1.7,2.3-2.8,3.9-2.8c0.5,0,1,0.1,1.5,0.3l-0.4,2c-0.4-0.2-0.9-0.2-1.3-0.2
	c-1.2,0-2.5,0.8-3.4,3.1v8.7h-2.3L855.2,573.6z"/>
<path class="st5" d="M863.9,580.4c0-4.5,3-7.2,6.3-7.2s6.3,2.6,6.3,7.2s-3,7.1-6.3,7.1S863.9,584.9,863.9,580.4z M874.2,580.4
	c0-3.1-1.6-5.2-3.9-5.2s-3.9,2.1-3.9,5.2s1.6,5.2,3.9,5.2S874.2,583.5,874.2,580.4z"/>
<path class="st5" d="M880.2,582.2v-8.6h2.3v8.3c0,2.5,0.8,3.6,2.6,3.6c1.4,0,2.3-0.7,3.6-2.3v-9.7h2.3v13.6h-1.9l-0.2-2.1h-0.1
	c-1,1.5-2.7,2.4-4.5,2.5C881.5,587.5,880.2,585.7,880.2,582.2z"/>
<path class="st5" d="M894.9,589.8c0.1-1.3,0.9-2.5,2-3.1v-0.1c-0.8-0.5-1.2-1.3-1.2-2.2c0.1-1,0.6-2,1.5-2.5v-0.1
	c-1.1-0.9-1.7-2.2-1.8-3.7c0-2.7,2.1-4.8,4.8-4.9c0.1,0,0.2,0,0.3,0c0.7,0,1.3,0.1,1.9,0.3h4.8v1.8h-2.8c0.7,0.7,1.1,1.8,1.1,2.8
	c0,2.6-2,4.7-4.6,4.7c-0.1,0-0.3,0-0.4,0c-0.7,0-1.4-0.2-2-0.5c-0.5,0.4-0.9,1-0.9,1.6c0,0.9,0.6,1.5,2.4,1.5h2.7
	c3.2,0,4.8,1,4.8,3.2c0,2.5-2.7,4.7-6.9,4.7C897.2,593.4,894.9,592.1,894.9,589.8z M905.1,589.1c0-1.3-1-1.7-2.8-1.7H900
	c-0.6,0-1.2-0.1-1.8-0.2c-0.8,0.5-1.3,1.3-1.4,2.3c0,1.5,1.5,2.4,4,2.4S905.1,590.5,905.1,589.1L905.1,589.1z M903.4,578.1
	c0.1-1.6-1.1-3-2.6-3.1c-1.6-0.1-3,1.1-3.1,2.6c0,0.2,0,0.3,0,0.5c-0.2,1.6,1,3,2.5,3.2s3-1,3.2-2.5
	C903.4,578.5,903.4,578.3,903.4,578.1z"/>
<path class="st5" d="M910.3,567.2h2.3v5.5l-0.1,2.8c1.1-1.3,2.8-2.1,4.5-2.2c2.9,0,4.2,1.8,4.2,5.3v8.6h-2.3v-8.3
	c0-2.5-0.8-3.6-2.6-3.6c-1.4,0-2.4,0.7-3.7,2.1v9.9h-2.3V567.2z"/>
<path class="st5" d="M932.1,583v-7.5h-2v-1.8l2.1-0.1l0.3-3.8h1.9v3.8h3.7v1.9h-3.7v7.6c0,1.7,0.5,2.6,2.1,2.6
	c0.5,0,1.1-0.2,1.5-0.4l0.4,1.7c-0.8,0.3-1.7,0.5-2.5,0.5C933.1,587.5,932.1,585.7,932.1,583z"/>
<path class="st5" d="M941.4,567.2h2.3v5.5l-0.1,2.8c1.1-1.3,2.8-2.1,4.5-2.2c2.9,0,4.2,1.8,4.2,5.3v8.6H950v-8.3
	c0-2.5-0.8-3.6-2.6-3.6c-1.4,0-2.3,0.7-3.7,2.1v9.9h-2.3L941.4,567.2z"/>
<path class="st5" d="M955.9,580.4c0-4.4,3-7.2,6.1-7.2c3.5,0,5.4,2.5,5.4,6.4c0,0.4,0,0.9-0.1,1.3h-9.2c0.2,2.9,1.9,4.8,4.5,4.8
	c1.2,0,2.4-0.4,3.4-1.1l0.8,1.5c-1.3,0.9-2.9,1.4-4.5,1.4C958.8,587.5,955.9,584.9,955.9,580.4z M965.5,579.3c0-2.7-1.2-4.2-3.3-4.2
	c-1.9,0-3.6,1.5-3.9,4.2H965.5z"/>
<path class="st5" d="M975.4,573.6h2.4l2,7.9c0.3,1.3,0.5,2.5,0.8,3.8h0.1c0.3-1.3,0.6-2.5,0.9-3.8l2.1-7.9h2.2l2.1,7.9
	c0.3,1.3,0.6,2.5,1,3.8h0.1c0.3-1.3,0.5-2.5,0.8-3.8l2-7.9h2.2l-3.7,13.6h-2.8l-2-7.3c-0.3-1.3-0.6-2.5-0.9-3.9h-0.1
	c-0.3,1.4-0.6,2.7-0.9,4l-1.9,7.3h-2.7L975.4,573.6z"/>
<path class="st5" d="M996.3,580.4c0-4.5,3-7.2,6.3-7.2s6.3,2.6,6.3,7.2s-3,7.1-6.3,7.1S996.3,584.9,996.3,580.4z M1006.5,580.4
	c0-3.1-1.6-5.2-3.9-5.2s-3.9,2.1-3.9,5.2s1.6,5.2,3.9,5.2S1006.5,583.5,1006.5,580.4z"/>
<path class="st5" d="M1012.7,573.6h1.9l0.2,2.5h0.1c1-1.7,2.3-2.8,3.9-2.8c0.5,0,1,0.1,1.5,0.3l-0.4,2c-0.4-0.2-0.9-0.2-1.3-0.2
	c-1.2,0-2.5,0.8-3.4,3.1v8.7h-2.3L1012.7,573.6z"/>
<path class="st5" d="M1021.1,585.6l1.1-1.5c1.1,1,2.5,1.6,4,1.6c1.8,0,2.7-1,2.7-2.1c0-1.4-1.6-2-3.1-2.6c-1.9-0.7-4-1.6-4-3.9
	s1.7-3.9,4.7-3.9c1.5,0,3,0.6,4.2,1.5l-1.1,1.5c-0.9-0.7-2-1.2-3.1-1.2c-1.7,0-2.5,0.9-2.5,2c0,1.3,1.5,1.8,3,2.4
	c2,0.7,4.2,1.5,4.2,4.1c0,2.2-1.8,4-5,4C1024.3,587.5,1022.5,586.8,1021.1,585.6z"/>
<path class="st5" d="M1034.5,583v-7.5h-2v-1.8l2.1-0.1l0.3-3.8h1.9v3.8h3.7v1.9h-3.7v7.6c0,1.7,0.5,2.6,2.1,2.6
	c0.5,0,1.1-0.2,1.6-0.4l0.4,1.7c-0.8,0.3-1.7,0.5-2.5,0.5C1035.4,587.5,1034.5,585.7,1034.5,583z"/>
<path class="st5" d="M1050.1,583v-7.5h-2v-1.8l2.1-0.1l0.3-3.8h1.9v3.8h3.7v1.9h-3.7v7.6c0,1.7,0.5,2.6,2.1,2.6
	c0.5,0,1.1-0.2,1.6-0.4l0.4,1.7c-0.8,0.3-1.7,0.5-2.5,0.5C1051.1,587.5,1050.1,585.7,1050.1,583z"/>
<path class="st5" d="M1059,569.3c0-0.9,0.7-1.6,1.6-1.6c0.9,0,1.6,0.7,1.6,1.6s-0.7,1.6-1.6,1.6C1059.7,570.9,1059,570.2,1059,569.3
	z M1059.4,573.6h2.3v13.6h-2.3V573.6z"/>
<path class="st5" d="M1066.6,573.6h1.9l0.2,2h0.1c1-1.3,2.6-2.2,4.2-2.3c1.7-0.1,3.3,0.9,3.8,2.6c1.4-1.5,2.8-2.6,4.5-2.6
	c2.8,0,4.1,1.8,4.1,5.3v8.6h-2.3v-8.3c0-2.5-0.8-3.6-2.5-3.6c-1.1,0-2.2,0.7-3.4,2.1v9.9h-2.3v-8.3c0-2.5-0.8-3.6-2.5-3.6
	c-1,0-2.2,0.7-3.4,2.1v9.9h-2.3L1066.6,573.6z"/>
<path class="st5" d="M1089.1,580.4c0-4.4,3-7.2,6.1-7.2c3.5,0,5.4,2.5,5.4,6.4c0,0.4,0,0.9-0.1,1.3h-9.2c0.2,2.9,1.9,4.8,4.5,4.8
	c1.2,0,2.4-0.4,3.4-1.1l0.8,1.5c-1.3,0.9-2.9,1.4-4.5,1.4C1092,587.5,1089.1,584.9,1089.1,580.4z M1098.6,579.3
	c0-2.7-1.2-4.2-3.3-4.2c-1.9,0-3.6,1.5-3.9,4.2H1098.6z"/>
<path class="st5" d="M1109.1,580.4c0-4.5,3.1-7.2,6.6-7.2c1.5,0,2.9,0.6,4,1.6l-1.2,1.5c-0.7-0.7-1.7-1.2-2.7-1.2
	c-2.5,0-4.3,2.1-4.3,5.2s1.7,5.2,4.2,5.2c1.2,0,2.3-0.5,3.2-1.3l1,1.5c-1.2,1.1-2.8,1.7-4.4,1.7
	C1111.9,587.5,1109.1,584.9,1109.1,580.4z"/>
<path class="st5" d="M1123,582.2v-8.6h2.3v8.3c0,2.5,0.8,3.6,2.6,3.6c1.4,0,2.4-0.7,3.6-2.3v-9.7h2.3v13.6h-1.9l-0.2-2.1h-0.1
	c-1,1.5-2.7,2.4-4.5,2.5C1124.3,587.5,1123,585.7,1123,582.2z"/>
<path class="st5" d="M1138.7,573.6h1.9l0.2,2.5h0.1c0.9-1.7,2.3-2.8,3.9-2.8c0.5,0,1,0.1,1.4,0.3l-0.4,2c-0.4-0.2-0.9-0.2-1.3-0.2
	c-1.2,0-2.5,0.8-3.4,3.1v8.7h-2.3L1138.7,573.6z"/>
<path class="st5" d="M1148.7,573.6h1.9l0.2,2.5h0.1c1-1.7,2.3-2.8,3.9-2.8c0.5,0,1,0.1,1.4,0.3l-0.4,2c-0.4-0.2-0.9-0.2-1.3-0.2
	c-1.2,0-2.5,0.8-3.4,3.1v8.7h-2.3L1148.7,573.6z"/>
<path class="st5" d="M1157.4,580.4c0-4.4,3-7.2,6.1-7.2c3.5,0,5.4,2.5,5.4,6.4c0,0.4,0,0.9-0.1,1.3h-9.2c0.2,2.9,1.9,4.8,4.5,4.8
	c1.2,0,2.4-0.4,3.4-1.1l0.8,1.5c-1.3,0.9-2.9,1.4-4.5,1.4C1160.3,587.5,1157.4,584.9,1157.4,580.4z M1166.9,579.3
	c0-2.7-1.2-4.2-3.4-4.2c-1.9,0-3.6,1.5-3.9,4.2H1166.9z"/>
<path class="st5" d="M1172.6,573.6h1.9l0.2,2h0.1c1.1-1.4,2.8-2.2,4.6-2.3c2.9,0,4.2,1.8,4.2,5.3v8.6h-2.3v-8.3
	c0-2.5-0.8-3.6-2.6-3.6c-1.4,0-2.4,0.7-3.7,2.1v9.9h-2.3L1172.6,573.6z"/>
<path class="st5" d="M1188.6,583v-7.5h-2v-1.8l2.1-0.1l0.3-3.8h1.9v3.8h3.7v1.9h-3.7v7.6c0,1.7,0.5,2.6,2.1,2.6
	c0.5,0,1.1-0.2,1.6-0.4l0.4,1.7c-0.8,0.3-1.7,0.5-2.5,0.5C1189.6,587.5,1188.6,585.7,1188.6,583z"/>
<path class="st5" d="M1197.9,584.4v-17.2h2.3v17.4c0,0.7,0.3,1,0.6,1c0.2,0,0.3,0,0.5,0l0.3,1.8c-0.4,0.1-0.9,0.2-1.3,0.2
	C1198.6,587.5,1197.9,586.4,1197.9,584.4z"/>
<path class="st5" d="M1204,592.8l0.4-1.8c0.3,0.1,0.7,0.2,1,0.2c1.5,0,2.5-1.2,3.1-2.9l0.3-1l-5.5-13.6h2.4l2.8,7.5
	c0.4,1.2,0.9,2.6,1.3,3.8h0.1c0.4-1.2,0.8-2.6,1.1-3.8l2.4-7.5h2.3l-5.1,14.7c-1,2.7-2.4,4.7-5.1,4.7
	C1205,593,1204.5,593,1204,592.8z"/>
<path class="st5" d="M1224.2,569.3c0-0.9,0.7-1.6,1.6-1.6c0.9,0,1.6,0.7,1.6,1.6s-0.7,1.6-1.6,1.6
	C1224.9,570.9,1224.2,570.2,1224.2,569.3z M1224.6,573.6h2.3v13.6h-2.3V573.6z"/>
<path class="st5" d="M1231.7,573.6h1.9l0.2,2h0.1c1.1-1.4,2.8-2.2,4.6-2.3c2.9,0,4.2,1.8,4.2,5.3v8.6h-2.3v-8.3
	c0-2.5-0.8-3.6-2.6-3.6c-1.4,0-2.4,0.7-3.7,2.1v9.9h-2.3L1231.7,573.6z"/>
<path class="st5" d="M1253.6,583v-7.5h-2v-1.8l2.1-0.1l0.3-3.8h1.9v3.8h3.7v1.9h-3.7v7.6c0,1.7,0.5,2.6,2.1,2.6
	c0.5,0,1.1-0.2,1.6-0.4l0.4,1.7c-0.8,0.3-1.7,0.5-2.5,0.5C1254.6,587.5,1253.6,585.7,1253.6,583z"/>
<path class="st5" d="M1263,567.2h2.3v5.5l-0.1,2.8c1.1-1.3,2.8-2.1,4.5-2.2c2.9,0,4.2,1.8,4.2,5.3v8.6h-2.3v-8.3
	c0-2.5-0.8-3.6-2.6-3.6c-1.4,0-2.4,0.7-3.7,2.1v9.9h-2.3V567.2z"/>
<path class="st5" d="M1277.4,580.4c0-4.4,3-7.2,6.1-7.2c3.5,0,5.4,2.5,5.4,6.4c0,0.4,0,0.9-0.1,1.3h-9.2c0.2,2.9,1.9,4.8,4.5,4.8
	c1.2,0,2.4-0.4,3.4-1.1l0.8,1.5c-1.3,0.9-2.9,1.4-4.5,1.4C1280.3,587.5,1277.4,584.9,1277.4,580.4z M1287,579.3
	c0-2.7-1.2-4.2-3.4-4.2c-1.9,0-3.6,1.5-3.9,4.2H1287z"/>
<path class="st5" d="M1296.9,573.6h2.3l2,7.9c0.3,1.3,0.6,2.5,0.8,3.8h0.1c0.3-1.3,0.6-2.5,0.9-3.8l2.1-7.9h2.2l2.1,7.9
	c0.3,1.3,0.6,2.5,0.9,3.8h0.1c0.3-1.3,0.5-2.5,0.8-3.8l2-7.9h2.2l-3.7,13.6h-2.8l-2-7.3c-0.3-1.3-0.6-2.5-0.9-3.9h-0.1
	c-0.3,1.4-0.6,2.7-0.9,4l-1.9,7.3h-2.7L1296.9,573.6z"/>
<path class="st5" d="M1317.8,583.6c0-3,2.6-4.5,8.4-5.1c0-1.8-0.6-3.4-2.8-3.4c-1.5,0.1-2.9,0.6-4.1,1.5l-0.9-1.6
	c1.6-1.1,3.4-1.7,5.3-1.8c3.3,0,4.7,2.2,4.7,5.6v8.4h-1.9l-0.2-1.6h-0.1c-1.2,1.2-2.8,1.9-4.5,2c-2,0.2-3.8-1.4-4-3.4
	C1317.8,584,1317.8,583.8,1317.8,583.6z M1326.1,583.9v-3.8c-4.6,0.5-6.1,1.7-6.1,3.4c-0.1,1.1,0.8,2.1,2,2.2c0.1,0,0.3,0,0.4,0
	C1323.8,585.6,1325.2,584.9,1326.1,583.9L1326.1,583.9z"/>
<path class="st5" d="M1333,567.2h2.3v13.5h0.1l5.8-7.2h2.6l-4.6,5.5l5.2,8.2h-2.5l-4-6.5l-2.6,3v3.6h-2.2V567.2z"/>
<path class="st5" d="M1345.6,580.4c0-4.4,3-7.2,6.1-7.2c3.5,0,5.4,2.5,5.4,6.4c0,0.4,0,0.9-0.1,1.3h-9.2c0.2,2.9,1.9,4.8,4.5,4.8
	c1.2,0,2.4-0.4,3.4-1.1l0.8,1.5c-1.3,0.9-2.9,1.4-4.5,1.4C1348.5,587.5,1345.6,584.9,1345.6,580.4z M1355.2,579.3
	c0-2.7-1.2-4.2-3.4-4.2c-1.9,0-3.6,1.5-3.9,4.2H1355.2z"/>
<path class="st5" d="M1365.7,580.4c0-4.5,3-7.2,6.3-7.2s6.3,2.6,6.3,7.2s-3,7.1-6.3,7.1S1365.7,584.9,1365.7,580.4z M1375.9,580.4
	c0-3.1-1.6-5.2-3.9-5.2s-3.9,2.1-3.9,5.2s1.6,5.2,3.9,5.2S1375.9,583.5,1375.9,580.4z"/>
<path class="st5" d="M1380.6,573.7l2-0.1h5.1v1.9h-7L1380.6,573.7z M1382.5,571.4c0-2.8,1.3-4.5,4-4.5c0.8,0,1.5,0.2,2.3,0.5
	l-0.5,1.8c-0.5-0.2-1-0.3-1.5-0.3c-1.3,0-1.9,0.9-1.9,2.7v15.8h-2.3L1382.5,571.4z"/>
<path class="st0" d="M1395.4,578.2c0-6.1,4.2-9.6,8.8-9.6c2.1,0,4.2,0.9,5.7,2.4l-2.5,3.1c-0.8-0.8-1.9-1.3-3-1.3c-2.1,0-4,2-4,5.3
	s1.6,5.3,3.9,5.3c1.3,0,2.5-0.6,3.3-1.6l2.5,3c-1.5,1.8-3.7,2.7-6,2.7C1399.4,587.5,1395.4,584.4,1395.4,578.2z"/>
<path class="st0" d="M1410.9,578c0-6,3.4-9.3,8.5-9.3s8.4,3.4,8.4,9.3s-3.4,9.5-8.4,9.5S1410.9,584,1410.9,578z M1422.9,578
	c0-3.3-1.3-5.2-3.5-5.2s-3.5,1.9-3.5,5.2s1.3,5.4,3.5,5.4S1422.9,581.3,1422.9,578L1422.9,578z"/>
<path class="st0" d="M1428.8,569h5.1l1.9,8c0.5,1.9,0.8,3.8,1.3,5.8h0.1c0.5-2,0.9-3.8,1.3-5.8l1.8-8h4.9l-5.4,18.2h-5.8L1428.8,569
	z"/>
<path class="st0" d="M1447.1,569h4.8v18.2h-4.8V569z"/>
<path class="st0" d="M1456.2,569h5.4c5.5,0,9.3,2.6,9.3,9s-3.8,9.2-9.1,9.2h-5.7V569z M1461.3,583.3c2.6,0,4.7-1.1,4.7-5.3
	s-2.1-5.2-4.7-5.2h-0.3v10.5L1461.3,583.3z"/>
<path class="st0" d="M1480.2,583.3h3.8v-9.2h-3.4v-3c1.6-0.3,3.2-0.9,4.7-1.7h3.5v13.9h3.2v3.9h-11.8V583.3z"/>
<path class="st0" d="M1494.9,585.3l2.5-2.8c0.7,0.7,1.7,1.2,2.7,1.2c1.9,0,3.3-1.4,3.3-5.7c0-4.4-1.4-5.3-2.5-5.3s-1.9,0.6-1.9,2.5
	c0,1.7,1,2.1,2,2.1c1,0,2-0.7,2.3-1.7l0.2,3c-0.8,1.2-2.1,1.9-3.5,2c-3,0-5.4-1.7-5.4-5.5c-0.1-3.2,2.5-5.9,5.7-6c0.2,0,0.3,0,0.5,0
	c3.4,0,6.9,2.5,6.9,8.9s-3.5,9.5-7.3,9.5C1498.4,587.6,1496.4,586.7,1494.9,585.3z"/>
<path class="st5" d="M1517.3,573.6h1.9l0.2,1.6h0.1c1.2-1.1,2.7-1.8,4.3-1.9c3.5,0,5.4,2.7,5.4,6.9c0,4.6-2.8,7.3-5.9,7.3
	c-1.4-0.1-2.7-0.6-3.8-1.6l0.1,2.4v4.6h-2.3L1517.3,573.6z M1526.9,580.2c0-3-1-5-3.6-5c-1.4,0.1-2.7,0.8-3.6,1.8v7.1
	c0.9,0.8,2.1,1.3,3.3,1.4C1525.2,585.6,1526.9,583.5,1526.9,580.2z"/>
<path class="st5" d="M1531.9,583.6c0-3,2.6-4.5,8.4-5.1c0-1.8-0.6-3.4-2.8-3.4c-1.4,0.1-2.8,0.6-4,1.5l-0.9-1.6
	c1.6-1.1,3.4-1.7,5.3-1.8c3.3,0,4.7,2.2,4.7,5.6v8.4h-1.9l-0.2-1.6h-0.1c-1.2,1.2-2.8,1.9-4.5,2c-2,0.2-3.8-1.3-4-3.3
	C1531.9,584,1531.9,583.8,1531.9,583.6z M1540.3,583.9v-3.8c-4.6,0.5-6.1,1.7-6.1,3.4c0,1.5,1,2.2,2.4,2.2
	C1538,585.6,1539.3,584.9,1540.3,583.9L1540.3,583.9z"/>
<path class="st5" d="M1547.2,573.6h1.9l0.2,2h0.1c1.1-1.4,2.8-2.2,4.6-2.3c2.9,0,4.2,1.8,4.2,5.3v8.6h-2.3v-8.3
	c0-2.5-0.8-3.6-2.6-3.6c-1.4,0-2.3,0.7-3.7,2.1v9.9h-2.3L1547.2,573.6z"/>
<path class="st5" d="M1561.8,580.4c0-4.4,2.8-7.2,5.9-7.2c1.4,0,2.8,0.6,3.8,1.6l-0.1-2.3v-5.2h2.3v20h-1.9l-0.2-1.6h-0.1
	c-1.1,1.2-2.6,1.9-4.1,1.9C1564,587.5,1561.8,584.9,1561.8,580.4z M1571.4,583.7v-7.1c-0.9-0.9-2.1-1.4-3.3-1.4
	c-2.2,0-3.9,2.1-3.9,5.2c0,3.3,1.3,5.2,3.7,5.2C1569.3,585.5,1570.5,584.8,1571.4,583.7L1571.4,583.7z"/>
<path class="st5" d="M1577.6,580.4c0-4.4,3-7.2,6.1-7.2c3.5,0,5.4,2.5,5.4,6.4c0,0.4,0,0.9-0.1,1.3h-9.2c0.2,2.9,1.9,4.8,4.5,4.8
	c1.2,0,2.4-0.4,3.4-1.1l0.8,1.5c-1.3,0.9-2.9,1.4-4.5,1.4C1580.4,587.5,1577.6,584.9,1577.6,580.4z M1587.1,579.3
	c0-2.7-1.2-4.2-3.4-4.2c-1.9,0-3.6,1.5-3.9,4.2H1587.1z"/>
<path class="st5" d="M1592.7,573.6h1.9l0.2,2h0.1c1-1.3,2.6-2.2,4.2-2.3c1.7-0.1,3.3,0.9,3.8,2.6c1.4-1.5,2.8-2.6,4.5-2.6
	c2.8,0,4.1,1.8,4.1,5.3v8.6h-2.3v-8.3c0-2.5-0.8-3.6-2.5-3.6c-1.1,0-2.2,0.7-3.4,2.1v9.9h-2.3v-8.3c0-2.5-0.8-3.6-2.5-3.6
	c-1,0-2.2,0.7-3.4,2.1v9.9h-2.3L1592.7,573.6z"/>
<path class="st5" d="M1615.8,569.3c0.1-0.9,0.8-1.5,1.7-1.5c0.8,0.1,1.4,0.7,1.5,1.5c-0.1,0.9-0.8,1.5-1.7,1.5
	C1616.5,570.7,1615.9,570.1,1615.8,569.3z M1616.2,573.6h2.3v13.6h-2.3V573.6z"/>
<path class="st5" d="M1622.4,580.4c0-4.5,3.1-7.2,6.6-7.2c1.5,0,2.9,0.6,4,1.6l-1.2,1.5c-0.7-0.7-1.7-1.2-2.7-1.2
	c-2.5,0-4.3,2.1-4.3,5.2s1.7,5.2,4.2,5.2c1.2,0,2.3-0.5,3.2-1.3l1,1.5c-1.2,1.1-2.8,1.7-4.4,1.7
	C1625.1,587.5,1622.4,584.9,1622.4,580.4z"/>
<path class="st5" d="M1641.5,583.6c0-3,2.6-4.5,8.4-5.1c0-1.8-0.6-3.4-2.8-3.4c-1.5,0.1-2.9,0.6-4.1,1.5l-0.9-1.6
	c1.6-1.1,3.4-1.7,5.3-1.8c3.3,0,4.7,2.2,4.7,5.6v8.4h-1.9l-0.2-1.6h0c-1.2,1.2-2.8,1.9-4.5,2c-2,0.2-3.8-1.3-4-3.4
	C1641.5,584,1641.5,583.8,1641.5,583.6z M1649.8,583.9v-3.8c-4.6,0.5-6.1,1.7-6.1,3.4c0,1.5,1,2.2,2.4,2.2
	C1647.5,585.6,1648.9,584.9,1649.8,583.9L1649.8,583.9z"/>
<path class="st5" d="M1656.7,573.6h1.9l0.2,2h0.1c1.1-1.4,2.8-2.2,4.6-2.3c2.9,0,4.2,1.8,4.2,5.3v8.6h-2.3v-8.3
	c0-2.5-0.8-3.6-2.6-3.6c-1.4,0-2.4,0.7-3.7,2.1v9.9h-2.3L1656.7,573.6z"/>
<path class="st5" d="M1671.3,580.4c0-4.4,2.8-7.2,5.9-7.2c1.4,0,2.8,0.6,3.8,1.6l-0.1-2.3v-5.2h2.3v20h-1.9l-0.2-1.6h-0.1
	c-1.1,1.2-2.6,1.9-4.1,1.9C1673.5,587.5,1671.3,584.9,1671.3,580.4z M1680.9,583.7v-7.1c-0.9-0.9-2.1-1.4-3.3-1.4
	c-2.2,0-3.9,2.1-3.9,5.2c0,3.3,1.3,5.2,3.7,5.2C1678.8,585.5,1680.1,584.8,1680.9,583.7L1680.9,583.7z"/>
<path class="st5" d="M606.3,610.3c0-0.9,0.7-1.6,1.6-1.6c0.9,0,1.6,0.7,1.6,1.6c0,0.9-0.7,1.6-1.6,1.6
	C607,611.9,606.3,611.2,606.3,610.3z M606.7,614.6h2.3v13.6h-2.3L606.7,614.6z"/>
<path class="st5" d="M612.4,614.7l2-0.1h5.1v1.9h-7L612.4,614.7z M614.3,612.4c0-2.8,1.3-4.5,4-4.5c0.8,0,1.5,0.2,2.3,0.5l-0.5,1.8
	c-0.5-0.2-1-0.3-1.5-0.3c-1.3,0-1.9,0.9-1.9,2.7v15.8h-2.3L614.3,612.4z"/>
<path class="st5" d="M628.2,614.6h1.9l0.2,2.5h0.1c1-1.7,2.3-2.8,3.9-2.8c0.5,0,1,0.1,1.5,0.3l-0.4,2c-0.4-0.2-0.9-0.2-1.3-0.2
	c-1.2,0-2.5,0.8-3.4,3.1v8.7h-2.3L628.2,614.6z"/>
<path class="st5" d="M636.9,621.4c0-4.4,3-7.2,6.1-7.2c3.5,0,5.4,2.5,5.4,6.4c0,0.4,0,0.9-0.1,1.3h-9.2c0.2,2.9,1.9,4.8,4.5,4.8
	c1.2,0,2.4-0.4,3.4-1.1l0.8,1.5c-1.3,0.9-2.9,1.4-4.5,1.4C639.8,628.5,636.9,625.9,636.9,621.4z M646.5,620.3c0-2.7-1.2-4.2-3.4-4.2
	c-1.9,0-3.6,1.5-3.9,4.2H646.5z"/>
<path class="st5" d="M650.6,626.6l1.1-1.5c1.1,1,2.5,1.6,4,1.6c1.8,0,2.7-1,2.7-2.1c0-1.4-1.6-2-3.1-2.6c-1.9-0.7-4.1-1.6-4.1-3.9
	s1.7-3.9,4.7-3.9c1.5,0,3,0.6,4.2,1.5l-1.1,1.5c-0.9-0.7-1.9-1.2-3.1-1.2c-1.7,0-2.5,0.9-2.5,2c0,1.3,1.5,1.8,3,2.4
	c2,0.7,4.2,1.5,4.2,4.1c0,2.2-1.8,4-5,4C653.8,628.5,652,627.8,650.6,626.6z"/>
<path class="st5" d="M663.1,621.4c0-4.4,3-7.2,6.1-7.2c3.5,0,5.4,2.5,5.4,6.4c0,0.4,0,0.9-0.1,1.3h-9.2c0.2,2.9,1.9,4.8,4.5,4.8
	c1.2,0,2.4-0.4,3.4-1.1l0.8,1.5c-1.3,0.9-2.9,1.4-4.5,1.4C666,628.5,663.1,625.9,663.1,621.4z M672.6,620.3c0-2.7-1.2-4.2-3.3-4.2
	c-1.9,0-3.6,1.5-3.9,4.2H672.6z"/>
<path class="st5" d="M677.1,624.6c0-3,2.6-4.5,8.4-5.1c0-1.8-0.6-3.4-2.8-3.4c-1.5,0.1-2.9,0.6-4,1.5l-0.9-1.6
	c1.6-1.1,3.4-1.7,5.3-1.8c3.3,0,4.7,2.2,4.7,5.6v8.4h-1.9l-0.2-1.6h-0.1c-1.2,1.2-2.8,1.9-4.5,2c-2,0.2-3.8-1.4-4-3.4
	C677.1,625,677,624.8,677.1,624.6z M685.4,624.9v-3.8c-4.6,0.5-6.1,1.7-6.1,3.4c0,1.5,1,2.2,2.4,2.2
	C683.1,626.6,684.5,625.9,685.4,624.9L685.4,624.9z"/>
<path class="st5" d="M692.3,614.6h1.9l0.2,2.5h0.1c1-1.7,2.3-2.8,3.9-2.8c0.5,0,1,0.1,1.5,0.3l-0.4,2c-0.4-0.2-0.9-0.2-1.3-0.2
	c-1.2,0-2.5,0.8-3.5,3.1v8.7h-2.3L692.3,614.6z"/>
<path class="st5" d="M701,621.4c0-4.5,3.1-7.2,6.5-7.2c1.5,0,2.9,0.6,4,1.6l-1.2,1.5c-0.7-0.7-1.7-1.2-2.7-1.2
	c-2.5,0-4.3,2.1-4.3,5.2s1.7,5.2,4.2,5.2c1.2,0,2.3-0.5,3.2-1.3l1,1.5c-1.2,1.1-2.8,1.7-4.4,1.7C703.8,628.5,701,625.9,701,621.4z"
	/>
<path class="st5" d="M715.1,608.2h2.3v5.5l-0.1,2.8c1.1-1.3,2.8-2.1,4.5-2.2c2.9,0,4.2,1.8,4.2,5.3v8.6h-2.3v-8.3
	c0-2.5-0.8-3.6-2.6-3.6c-1.4,0-2.4,0.7-3.7,2.1v9.9h-2.3V608.2z"/>
<path class="st5" d="M729.6,621.4c0-4.4,3-7.2,6.1-7.2c3.5,0,5.4,2.5,5.4,6.4c0,0.4,0,0.9-0.1,1.3h-9.2c0.2,2.9,1.9,4.8,4.5,4.8
	c1.2,0,2.4-0.4,3.4-1.1l0.8,1.5c-1.3,0.9-2.9,1.4-4.5,1.4C732.5,628.5,729.6,625.9,729.6,621.4z M739.1,620.3c0-2.7-1.2-4.2-3.4-4.2
	c-1.9,0-3.6,1.5-3.9,4.2H739.1z"/>
<path class="st5" d="M744.7,614.6h1.9l0.2,2.5h0.1c0.9-1.7,2.3-2.8,3.9-2.8c0.5,0,1,0.1,1.5,0.3l-0.4,2c-0.4-0.2-0.9-0.2-1.3-0.2
	c-1.2,0-2.5,0.8-3.4,3.1v8.7h-2.3V614.6z"/>
<path class="st5" d="M753.1,626.6l1.1-1.5c1.1,1,2.5,1.6,4,1.6c1.8,0,2.7-1,2.7-2.1c0-1.4-1.6-2-3.1-2.6c-1.9-0.7-4.1-1.6-4.1-3.9
	s1.8-3.9,4.7-3.9c1.5,0,3,0.6,4.2,1.5l-1.1,1.5c-0.9-0.7-2-1.2-3.1-1.2c-1.7,0-2.5,0.9-2.5,2c0,1.3,1.5,1.8,3,2.4
	c2,0.7,4.2,1.5,4.2,4.1c0,2.2-1.8,4-5,4C756.3,628.5,754.5,627.8,753.1,626.6z"/>
<path class="st5" d="M771.7,624.6c0-3,2.6-4.5,8.4-5.1c0-1.8-0.6-3.4-2.8-3.4c-1.5,0.1-2.9,0.6-4,1.5l-0.9-1.6
	c1.6-1.1,3.4-1.7,5.3-1.8c3.3,0,4.7,2.2,4.7,5.6v8.4h-1.9l-0.2-1.6h-0.1c-1.2,1.2-2.8,1.9-4.5,2c-2,0.2-3.8-1.4-4-3.4
	C771.7,625,771.7,624.8,771.7,624.6z M780,624.9v-3.8c-4.6,0.5-6.1,1.7-6.1,3.4c0,1.5,1,2.2,2.4,2.2
	C777.7,626.5,779,625.9,780,624.9L780,624.9z"/>
<path class="st5" d="M786.9,614.6h1.9l0.2,2.4h0.1c1-1.7,2.3-2.8,3.9-2.8c0.5,0,1,0.1,1.5,0.3l-0.4,2c-0.4-0.2-0.9-0.2-1.3-0.2
	c-1.2,0-2.5,0.8-3.5,3.1v8.7h-2.3L786.9,614.6z"/>
<path class="st5" d="M795.6,621.4c0-4.4,3-7.2,6.1-7.2c3.5,0,5.4,2.5,5.4,6.4c0,0.4,0,0.9-0.1,1.3h-9.2c0.2,2.9,1.9,4.8,4.5,4.8
	c1.2,0,2.4-0.4,3.4-1.1l0.8,1.5c-1.3,0.9-2.9,1.4-4.5,1.4C798.5,628.5,795.6,625.9,795.6,621.4z M805.1,620.3c0-2.7-1.2-4.2-3.4-4.2
	c-1.9,0-3.6,1.5-3.9,4.2H805.1z"/>
<path class="st5" d="M817.1,624v-7.5h-2v-1.8l2.1-0.1l0.3-3.8h1.9v3.8h3.7v1.9h-3.7v7.6c0,1.7,0.5,2.6,2.1,2.6
	c0.5,0,1.1-0.2,1.5-0.4l0.5,1.7c-0.8,0.3-1.7,0.5-2.5,0.5C818.1,628.5,817.1,626.7,817.1,624z"/>
<path class="st5" d="M825,621.4c0-4.5,3-7.2,6.3-7.2s6.3,2.6,6.3,7.2s-3,7.1-6.3,7.1S825,625.9,825,621.4z M835.2,621.4
	c0-3.1-1.6-5.2-3.9-5.2s-3.9,2.1-3.9,5.2s1.6,5.2,3.9,5.2S835.2,624.5,835.2,621.4L835.2,621.4z"/>
<path class="st5" d="M849.4,626.8L849.4,626.8l-0.3,1.4h-1.8v-20h2.3v5.5l-0.1,2.4c1.2-1.1,2.7-1.8,4.3-1.9c3.5,0,5.4,2.7,5.4,6.9
	c0,4.7-2.8,7.4-5.9,7.4C851.8,628.4,850.4,627.8,849.4,626.8z M856.8,621.2c0-3-1-5-3.6-5c-1.4,0.1-2.7,0.8-3.6,1.8v7.1
	c0.9,0.8,2.1,1.3,3.3,1.4C855.1,626.6,856.8,624.5,856.8,621.2z"/>
<path class="st5" d="M862,621.4c0-4.4,3-7.2,6.1-7.2c3.5,0,5.4,2.5,5.4,6.4c0,0.4,0,0.9-0.1,1.3h-9.2c0.2,2.9,1.9,4.8,4.5,4.8
	c1.2,0,2.4-0.4,3.4-1.1l0.8,1.5c-1.3,0.9-2.9,1.4-4.5,1.4C864.9,628.5,862,625.9,862,621.4z M871.5,620.3c0-2.7-1.2-4.2-3.4-4.2
	c-1.9,0-3.6,1.5-3.9,4.2H871.5z"/>
<path class="st5" d="M885.2,626.8L885.2,626.8l-0.3,1.4h-1.8v-20h2.3v5.5l-0.1,2.4c1.2-1.1,2.7-1.8,4.3-1.9c3.5,0,5.4,2.7,5.4,6.9
	c0,4.7-2.8,7.4-5.9,7.4C887.6,628.4,886.2,627.8,885.2,626.8z M892.6,621.2c0-3-1-5-3.6-5c-1.4,0.1-2.7,0.8-3.6,1.8v7.1
	c0.9,0.8,2.1,1.3,3.3,1.4C890.9,626.6,892.6,624.5,892.6,621.2z"/>
<path class="st5" d="M897.8,621.4c0-4.4,3-7.2,6.1-7.2c3.5,0,5.4,2.5,5.4,6.4c0,0.4,0,0.9-0.1,1.3h-9.2c0.2,2.9,1.9,4.8,4.5,4.8
	c1.2,0,2.4-0.4,3.4-1.1l0.8,1.5c-1.3,0.9-2.9,1.4-4.5,1.4C900.7,628.5,897.8,625.9,897.8,621.4z M907.3,620.3c0-2.7-1.2-4.2-3.4-4.2
	c-1.9,0-3.6,1.5-3.9,4.2H907.3z"/>
<path class="st5" d="M913,625.4v-17.2h2.3v17.4c0,0.7,0.3,1,0.7,1c0.2,0,0.3,0,0.5,0l0.3,1.8c-0.4,0.1-0.9,0.2-1.3,0.2
	C913.7,628.5,913,627.4,913,625.4z"/>
<path class="st5" d="M920,610.3c0-0.9,0.7-1.6,1.6-1.6c0.9,0,1.6,0.7,1.6,1.6c0,0.9-0.7,1.6-1.6,1.6
	C920.7,611.9,920,611.2,920,610.3z M920.4,614.6h2.3v13.6h-2.3V614.6z"/>
<path class="st5" d="M926.6,621.4c0-4.4,3-7.2,6.1-7.2c3.5,0,5.4,2.5,5.4,6.4c0,0.4,0,0.9-0.1,1.3h-9.2c0.2,2.9,1.9,4.8,4.5,4.8
	c1.2,0,2.4-0.4,3.4-1.1l0.8,1.5c-1.3,0.9-2.9,1.4-4.5,1.4C929.5,628.5,926.6,625.9,926.6,621.4z M936.1,620.3c0-2.7-1.2-4.2-3.3-4.2
	c-1.9,0-3.6,1.5-3.9,4.2H936.1z"/>
<path class="st5" d="M939.9,614.6h2.4l2.6,7.7c0.4,1.3,0.8,2.7,1.3,4h0.1c0.4-1.3,0.8-2.7,1.3-4l2.6-7.7h2.3l-4.8,13.6h-2.7
	L939.9,614.6z"/>
<path class="st5" d="M954.1,621.4c0-4.4,3-7.2,6.1-7.2c3.5,0,5.4,2.5,5.4,6.4c0,0.4,0,0.9-0.1,1.3h-9.2c0.2,2.9,1.9,4.8,4.5,4.8
	c1.2,0,2.4-0.4,3.4-1.1l0.8,1.5c-1.3,0.9-2.9,1.4-4.5,1.4C957,628.5,954.1,625.9,954.1,621.4z M963.6,620.3c0-2.7-1.2-4.2-3.3-4.2
	c-1.9,0-3.6,1.5-3.9,4.2H963.6z"/>
<path class="st5" d="M968.3,621.4c0-4.4,2.8-7.2,5.9-7.2c1.4,0,2.8,0.6,3.8,1.6l-0.1-2.3v-5.2h2.3v20h-1.9l-0.2-1.6h-0.1
	c-1.1,1.2-2.6,1.9-4.1,1.9C970.5,628.5,968.3,625.9,968.3,621.4z M977.9,624.7v-7.1c-0.9-0.9-2.1-1.4-3.3-1.4
	c-2.2,0-3.9,2.1-3.9,5.2c0,3.3,1.3,5.2,3.7,5.2C975.8,626.5,977.1,625.8,977.9,624.7L977.9,624.7z"/>
<path class="st5" d="M984.1,631.6c1.5-0.5,2.5-1.9,2.5-3.5l-0.2-2.1l1.1,1.7c-0.3,0.3-0.7,0.5-1.2,0.5c-0.9,0.1-1.6-0.6-1.7-1.4
	c0-0.1,0-0.1,0-0.2c0-0.9,0.7-1.6,1.6-1.6c0,0,0.1,0,0.1,0c1.2,0,2,1,2,2.7c0,2.3-1.5,4.4-3.7,5.2L984.1,631.6z"/>
<path class="st5" d="M998.7,624v-7.5h-2v-1.8l2.1-0.1l0.3-3.8h1.9v3.8h3.7v1.9h-3.7v7.6c0,1.7,0.5,2.6,2.1,2.6
	c0.5,0,1.1-0.2,1.5-0.4l0.5,1.7c-0.8,0.3-1.7,0.5-2.5,0.5C999.6,628.5,998.7,626.7,998.7,624z"/>
<path class="st5" d="M1008,608.2h2.3v5.5l-0.1,2.8c1.1-1.3,2.8-2.1,4.5-2.2c2.9,0,4.2,1.8,4.2,5.3v8.6h-2.3v-8.3
	c0-2.5-0.8-3.6-2.6-3.6c-1.4,0-2.4,0.7-3.7,2.1v9.9h-2.3V608.2z"/>
<path class="st5" d="M1022.5,621.4c0-4.4,3-7.2,6.1-7.2c3.5,0,5.4,2.5,5.4,6.4c0,0.4,0,0.9-0.1,1.3h-9.2c0.2,2.9,1.9,4.8,4.5,4.8
	c1.2,0,2.4-0.4,3.4-1.1l0.8,1.5c-1.3,0.9-2.9,1.4-4.5,1.4C1025.4,628.5,1022.5,625.9,1022.5,621.4z M1032,620.3
	c0-2.7-1.2-4.2-3.4-4.2c-1.9,0-3.6,1.5-3.9,4.2H1032z"/>
<path class="st5" d="M1037.7,614.6h1.9l0.2,2.5h0.1c1-1.7,2.3-2.8,3.9-2.8c0.5,0,1,0.1,1.5,0.3l-0.4,2c-0.4-0.2-0.9-0.2-1.3-0.2
	c-1.2,0-2.5,0.8-3.4,3.1v8.7h-2.3L1037.7,614.6z"/>
<path class="st5" d="M1046.4,621.4c0-4.4,3-7.2,6.1-7.2c3.5,0,5.4,2.5,5.4,6.4c0,0.4,0,0.9-0.1,1.3h-9.2c0.2,2.9,1.9,4.8,4.5,4.8
	c1.2,0,2.4-0.4,3.4-1.1l0.8,1.5c-1.3,0.9-2.9,1.4-4.5,1.4C1049.3,628.5,1046.4,625.9,1046.4,621.4z M1055.9,620.3
	c0-2.7-1.2-4.2-3.3-4.2c-1.9,0-3.6,1.5-3.9,4.2H1055.9z"/>
<path class="st5" d="M1065.8,614.6h2.3l2,7.9c0.3,1.3,0.6,2.5,0.8,3.8h0.1c0.3-1.3,0.6-2.5,0.9-3.8l2.1-7.9h2.2l2.1,7.9
	c0.3,1.3,0.6,2.5,1,3.8h0.1c0.3-1.3,0.6-2.5,0.8-3.8l2-7.9h2.2l-3.7,13.6h-2.8l-2-7.3c-0.3-1.3-0.6-2.5-0.9-3.9h-0.1
	c-0.3,1.4-0.6,2.7-0.9,4l-1.9,7.3h-2.7L1065.8,614.6z"/>
<path class="st5" d="M1086.7,621.4c0-4.5,3-7.2,6.3-7.2s6.3,2.6,6.3,7.2s-3,7.1-6.3,7.1S1086.7,625.9,1086.7,621.4z M1096.9,621.4
	c0-3.1-1.6-5.2-3.9-5.2s-3.9,2.1-3.9,5.2s1.6,5.2,3.9,5.2S1096.9,624.5,1096.9,621.4L1096.9,621.4z"/>
<path class="st5" d="M1103,623.2v-8.6h2.3v8.3c0,2.5,0.8,3.6,2.6,3.6c1.4,0,2.4-0.7,3.6-2.3v-9.7h2.3v13.6h-1.9l-0.2-2.1h-0.1
	c-1,1.5-2.7,2.4-4.5,2.5C1104.3,628.5,1103,626.7,1103,623.2z"/>
<path class="st5" d="M1118.7,625.4v-17.2h2.3v17.4c0,0.7,0.3,1,0.6,1c0.2,0,0.3,0,0.5,0l0.3,1.8c-0.4,0.1-0.9,0.2-1.3,0.2
	C1119.4,628.5,1118.7,627.4,1118.7,625.4z"/>
<path class="st5" d="M1125.1,621.4c0-4.4,2.8-7.2,5.9-7.2c1.4,0,2.8,0.6,3.8,1.6l-0.1-2.3v-5.2h2.3v20h-1.9l-0.2-1.6h-0.1
	c-1.1,1.2-2.6,1.9-4.1,1.9C1127.3,628.5,1125.1,625.9,1125.1,621.4z M1134.7,624.7v-7.1c-0.9-0.9-2.1-1.4-3.3-1.4
	c-2.2,0-3.9,2.1-3.9,5.2c0,3.3,1.3,5.2,3.7,5.2C1132.6,626.5,1133.9,625.8,1134.7,624.7L1134.7,624.7z"/>
<path class="st5" d="M1149.9,626.8L1149.9,626.8l-0.3,1.4h-1.8v-20h2.3v5.5l-0.1,2.4c1.2-1.1,2.7-1.8,4.3-1.9c3.5,0,5.4,2.7,5.4,6.9
	c0,4.7-2.8,7.4-5.9,7.4C1152.3,628.4,1151,627.8,1149.9,626.8z M1157.3,621.2c0-3-1-5-3.6-5c-1.4,0.1-2.7,0.8-3.6,1.8v7.1
	c0.9,0.8,2.1,1.3,3.3,1.4C1155.7,626.6,1157.3,624.5,1157.3,621.2L1157.3,621.2z"/>
<path class="st5" d="M1162.6,621.4c0-4.4,3-7.2,6.1-7.2c3.5,0,5.4,2.5,5.4,6.4c0,0.4,0,0.9-0.1,1.3h-9.2c0.2,2.9,1.9,4.8,4.5,4.8
	c1.2,0,2.4-0.4,3.4-1.1l0.8,1.5c-1.3,0.9-2.9,1.4-4.5,1.4C1165.4,628.5,1162.6,625.9,1162.6,621.4z M1172.1,620.3
	c0-2.7-1.2-4.2-3.4-4.2c-1.9,0-3.6,1.5-3.9,4.2H1172.1z"/>
<path class="st5" d="M1183.6,614.6h1.9l0.2,2h0.1c1-1.3,2.6-2.2,4.2-2.3c1.7-0.1,3.3,0.9,3.8,2.6c1.4-1.5,2.8-2.6,4.5-2.6
	c2.8,0,4.1,1.8,4.1,5.3v8.6h-2.3v-8.3c0-2.5-0.8-3.6-2.5-3.6c-1,0-2.2,0.7-3.4,2.1v9.9h-2.3v-8.3c0-2.5-0.8-3.6-2.5-3.6
	c-1,0-2.2,0.7-3.4,2.1v9.9h-2.3L1183.6,614.6z"/>
<path class="st5" d="M1206.1,621.4c0-4.5,3-7.2,6.3-7.2s6.3,2.6,6.3,7.2s-3,7.1-6.3,7.1S1206.1,625.9,1206.1,621.4z M1216.3,621.4
	c0-3.1-1.6-5.2-3.9-5.2s-3.9,2.1-3.9,5.2s1.6,5.2,3.9,5.2S1216.3,624.5,1216.3,621.4z"/>
<path class="st5" d="M1222.6,614.6h1.9l0.2,2.5h0.1c1-1.7,2.3-2.8,3.9-2.8c0.5,0,1,0.1,1.5,0.3l-0.4,2c-0.4-0.2-0.9-0.2-1.3-0.2
	c-1.2,0-2.5,0.8-3.4,3.1v8.7h-2.3L1222.6,614.6z"/>
<path class="st5" d="M1231.3,621.4c0-4.4,3-7.2,6.1-7.2c3.5,0,5.4,2.5,5.4,6.4c0,0.4,0,0.9-0.1,1.3h-9.2c0.2,2.9,1.9,4.8,4.5,4.8
	c1.2,0,2.4-0.4,3.4-1.1l0.8,1.5c-1.3,0.9-2.9,1.4-4.5,1.4C1234.1,628.5,1231.3,625.9,1231.3,621.4z M1240.8,620.3
	c0-2.7-1.2-4.2-3.3-4.2c-1.9,0-3.6,1.5-3.9,4.2H1240.8z"/>
<path class="st5" d="M1252.3,614.6h1.9l0.2,1.6h0.1c1.2-1.1,2.7-1.8,4.3-1.9c3.5,0,5.4,2.7,5.4,6.9c0,4.6-2.8,7.3-5.9,7.3
	c-1.4-0.1-2.7-0.6-3.8-1.6l0.1,2.4v4.6h-2.3L1252.3,614.6z M1261.8,621.2c0-3-1-5-3.6-5c-1.4,0.1-2.7,0.8-3.6,1.8v7.1
	c0.9,0.8,2.1,1.3,3.3,1.4C1260.2,626.6,1261.8,624.5,1261.8,621.2L1261.8,621.2z"/>
<path class="st5" d="M1266.9,624.6c0-3,2.6-4.5,8.4-5.1c0-1.8-0.6-3.4-2.8-3.4c-1.5,0.1-2.9,0.6-4.1,1.5l-0.9-1.6
	c1.6-1.1,3.4-1.7,5.3-1.8c3.3,0,4.7,2.2,4.7,5.6v8.4h-1.9l-0.2-1.6h-0.1c-1.2,1.2-2.8,1.9-4.5,2c-2,0.2-3.8-1.4-4-3.4
	C1266.9,625,1266.9,624.8,1266.9,624.6z M1275.3,624.9v-3.8c-4.6,0.5-6.1,1.7-6.1,3.4c0,1.5,1,2.2,2.4,2.2
	C1273,626.6,1274.3,625.9,1275.3,624.9L1275.3,624.9z"/>
<path class="st5" d="M1282.1,614.6h1.9l0.2,2h0.1c1.1-1.4,2.8-2.2,4.6-2.3c2.9,0,4.2,1.8,4.2,5.3v8.6h-2.3v-8.3
	c0-2.5-0.8-3.6-2.6-3.6c-1.4,0-2.4,0.7-3.7,2.1v9.9h-2.3V614.6z"/>
<path class="st5" d="M1296.8,621.4c0-4.4,2.8-7.2,5.9-7.2c1.4,0,2.8,0.6,3.8,1.6l-0.1-2.3v-5.2h2.3v20h-1.9l-0.2-1.6h-0.1
	c-1.1,1.2-2.6,1.9-4.1,1.9C1299,628.5,1296.8,625.9,1296.8,621.4z M1306.4,624.7v-7.1c-0.9-0.9-2.1-1.4-3.3-1.4
	c-2.2,0-3.9,2.1-3.9,5.2c0,3.3,1.3,5.2,3.7,5.2C1304.3,626.5,1305.5,625.8,1306.4,624.7L1306.4,624.7z"/>
<path class="st5" d="M1312.5,621.4c0-4.4,3-7.2,6.1-7.2c3.5,0,5.4,2.5,5.4,6.4c0,0.4,0,0.9-0.1,1.3h-9.2c0.2,2.9,1.9,4.8,4.5,4.8
	c1.2,0,2.4-0.4,3.4-1.1l0.8,1.5c-1.3,0.9-2.9,1.4-4.5,1.4C1315.4,628.5,1312.5,625.9,1312.5,621.4z M1322.1,620.3
	c0-2.7-1.2-4.2-3.3-4.2c-1.9,0-3.6,1.5-3.9,4.2H1322.1z"/>
<path class="st5" d="M1327.7,614.6h1.9l0.2,2h0.1c1-1.3,2.6-2.2,4.2-2.3c1.7-0.1,3.3,0.9,3.8,2.6c1.4-1.5,2.8-2.6,4.5-2.6
	c2.8,0,4.2,1.8,4.2,5.3v8.6h-2.3v-8.3c0-2.5-0.8-3.6-2.5-3.6c-1.1,0-2.2,0.7-3.4,2.1v9.9h-2.3v-8.3c0-2.5-0.8-3.6-2.5-3.6
	c-1,0-2.2,0.7-3.4,2.1v9.9h-2.3L1327.7,614.6z"/>
<path class="st5" d="M1350.8,610.3c0-0.9,0.7-1.6,1.6-1.6c0.9,0,1.6,0.7,1.6,1.6l0,0c0,0.9-0.7,1.6-1.6,1.6
	C1351.5,611.9,1350.8,611.2,1350.8,610.3z M1351.2,614.6h2.3v13.6h-2.3V614.6z"/>
<path class="st5" d="M1357.4,621.4c0-4.5,3.1-7.2,6.6-7.2c1.5,0,2.9,0.6,4,1.6l-1.2,1.5c-0.7-0.7-1.7-1.2-2.7-1.2
	c-2.5,0-4.3,2.1-4.3,5.2s1.7,5.2,4.2,5.2c1.2,0,2.3-0.5,3.2-1.3l1,1.5c-1.2,1.1-2.8,1.7-4.4,1.7
	C1360.1,628.5,1357.4,625.9,1357.4,621.4z"/>
<path class="st5" d="M1369.9,626.6l1.1-1.5c1.1,1,2.5,1.6,4,1.6c1.8,0,2.7-1,2.7-2.1c0-1.4-1.6-2-3.1-2.6c-1.9-0.7-4.1-1.6-4.1-3.9
	s1.8-3.9,4.7-3.9c1.5,0,3,0.6,4.2,1.5l-1.1,1.5c-0.9-0.7-2-1.2-3.1-1.2c-1.7,0-2.5,0.9-2.5,2c0,1.3,1.5,1.8,3,2.4
	c2,0.7,4.2,1.5,4.2,4.1c0,2.2-1.8,4-5,4C1373.1,628.5,1371.3,627.8,1369.9,626.6z"/>
<path class="st5" d="M1388.3,621.4c0-4.5,3.1-7.2,6.5-7.2c1.5,0,2.9,0.6,4,1.6l-1.2,1.5c-0.7-0.7-1.7-1.2-2.7-1.2
	c-2.5,0-4.3,2.1-4.3,5.2s1.7,5.2,4.2,5.2c1.2,0,2.3-0.5,3.2-1.3l1,1.5c-1.2,1.1-2.8,1.7-4.4,1.7
	C1391.1,628.5,1388.3,625.9,1388.3,621.4z"/>
<path class="st5" d="M1400.8,621.4c0-4.5,3-7.2,6.3-7.2s6.3,2.6,6.3,7.2s-3,7.1-6.3,7.1S1400.8,625.9,1400.8,621.4z M1411,621.4
	c0-3.1-1.6-5.2-3.9-5.2s-3.9,2.1-3.9,5.2s1.6,5.2,3.9,5.2S1411,624.5,1411,621.4z"/>
<path class="st5" d="M1417.2,614.6h1.9l0.2,2h0.1c1-1.3,2.6-2.2,4.2-2.3c1.7-0.1,3.3,0.9,3.8,2.6c1.4-1.5,2.8-2.6,4.5-2.6
	c2.8,0,4.1,1.8,4.1,5.3v8.6h-2.3v-8.3c0-2.5-0.8-3.6-2.5-3.6c-1,0-2.2,0.7-3.4,2.1v9.9h-2.3v-8.3c0-2.5-0.8-3.6-2.5-3.6
	c-1,0-2.2,0.7-3.4,2.1v9.9h-2.3L1417.2,614.6z"/>
<path class="st5" d="M1440.3,610.3c0-0.9,0.7-1.6,1.6-1.6c0.9,0,1.6,0.7,1.6,1.6l0,0c0,0.9-0.7,1.6-1.6,1.6
	C1441,611.9,1440.3,611.2,1440.3,610.3z M1440.7,614.6h2.3v13.6h-2.3V614.6z"/>
<path class="st5" d="M1447.9,614.6h1.9l0.2,2h0.1c1.1-1.4,2.8-2.2,4.6-2.3c2.9,0,4.2,1.8,4.2,5.3v8.6h-2.3v-8.3
	c0-2.5-0.8-3.6-2.6-3.6c-1.4,0-2.4,0.7-3.7,2.1v9.9h-2.3L1447.9,614.6z"/>
<path class="st5" d="M1462.5,630.8c0.1-1.3,0.9-2.5,2-3.1v-0.1c-0.8-0.5-1.2-1.3-1.2-2.2c0.1-1,0.6-2,1.5-2.5v-0.1
	c-1.1-0.9-1.7-2.2-1.8-3.7c0-2.7,2.1-4.8,4.8-4.9c0.1,0,0.2,0,0.3,0c0.7,0,1.3,0.1,1.9,0.3h4.7v1.8h-2.8c0.7,0.7,1.1,1.8,1.1,2.8
	c0,2.6-2,4.7-4.6,4.7c-0.1,0-0.3,0-0.4,0c-0.7,0-1.4-0.2-2-0.5c-0.5,0.4-0.9,1-0.9,1.6c0,0.9,0.6,1.5,2.4,1.5h2.6
	c3.2,0,4.8,1,4.8,3.2c0,2.5-2.7,4.7-6.9,4.7C1464.8,634.4,1462.5,633.1,1462.5,630.8z M1472.7,630.1c0-1.3-1-1.7-2.7-1.7h-2.3
	c-0.6,0-1.2-0.1-1.8-0.2c-0.8,0.5-1.3,1.3-1.4,2.3c0,1.5,1.5,2.4,4,2.4S1472.7,631.5,1472.7,630.1L1472.7,630.1z M1471,619.1
	c0.2-1.6-1-3-2.6-3.2c-1.6-0.2-3,1-3.2,2.6c0,0.2,0,0.4,0,0.6c-0.2,1.6,1,3,2.6,3.2c1.6,0.2,3-1,3.2-2.6
	C1471,619.5,1471,619.3,1471,619.1z"/>
<path class="st5" d="M1482.8,621.4c0-4.5,3-7.2,6.3-7.2s6.3,2.6,6.3,7.2s-3,7.1-6.3,7.1S1482.8,625.9,1482.8,621.4z M1493,621.4
	c0-3.1-1.6-5.2-3.9-5.2s-3.9,2.1-3.9,5.2s1.6,5.2,3.9,5.2S1493,624.5,1493,621.4L1493,621.4z"/>
<path class="st5" d="M1499,623.2v-8.6h2.3v8.3c0,2.5,0.8,3.6,2.6,3.6c1.4,0,2.4-0.7,3.7-2.3v-9.7h2.3v13.6h-1.8l-0.2-2.1h-0.1
	c-1,1.5-2.7,2.4-4.5,2.5C1500.3,628.5,1499,626.7,1499,623.2z"/>
<path class="st5" d="M1514.7,614.6h1.9l0.2,2.5h0.1c0.9-1.7,2.3-2.8,3.9-2.8c0.5,0,1,0.1,1.4,0.3l-0.4,2c-0.4-0.2-0.9-0.2-1.3-0.2
	c-1.2,0-2.5,0.8-3.4,3.1v8.7h-2.3L1514.7,614.6z"/>
<path class="st5" d="M1529,614.6h2.3l2,7.9c0.3,1.3,0.6,2.5,0.8,3.8h0.1c0.3-1.3,0.6-2.5,0.9-3.8l2.1-7.9h2.2l2.1,7.9
	c0.3,1.3,0.6,2.5,0.9,3.8h0.1c0.3-1.3,0.5-2.5,0.8-3.8l2-7.9h2.2l-3.7,13.6h-2.8l-2-7.3c-0.3-1.3-0.6-2.5-0.9-3.9h-0.1
	c-0.3,1.4-0.6,2.7-0.9,4l-1.9,7.3h-2.7L1529,614.6z"/>
<path class="st5" d="M1549.9,624.6c0-3,2.6-4.5,8.4-5.1c0-1.8-0.6-3.4-2.8-3.4c-1.5,0.1-2.9,0.6-4.1,1.5l-0.9-1.6
	c1.6-1.1,3.4-1.7,5.3-1.8c3.3,0,4.7,2.2,4.7,5.6v8.4h-1.9l-0.2-1.6h-0.1c-1.2,1.2-2.8,1.9-4.5,2c-2,0.2-3.8-1.4-4-3.4
	C1549.9,625,1549.8,624.8,1549.9,624.6z M1558.2,624.9v-3.8c-4.6,0.5-6.1,1.7-6.1,3.4c-0.1,1.1,0.8,2.1,2,2.2c0.1,0,0.3,0,0.4,0
	C1555.9,626.6,1557.3,625.9,1558.2,624.9L1558.2,624.9z"/>
<path class="st5" d="M1563.7,633.8l0.4-1.8c0.3,0.1,0.7,0.2,1,0.2c1.5,0,2.5-1.2,3.1-2.9l0.3-1l-5.5-13.6h2.4l2.8,7.5
	c0.4,1.2,0.9,2.6,1.3,3.8h0.1c0.4-1.2,0.8-2.6,1.1-3.8l2.4-7.5h2.2l-5.1,14.7c-1,2.7-2.4,4.7-5.1,4.7
	C1564.8,634,1564.2,634,1563.7,633.8z"/>
<path class="st5" d="M1577,626.8c0-0.9,0.8-1.6,1.7-1.6c0.9,0,1.6,0.8,1.6,1.7c0,0.9-0.8,1.6-1.7,1.6
	C1577.7,628.5,1577,627.7,1577,626.8C1577,626.8,1577,626.8,1577,626.8z"/>
<path class="st5" d="M1590.8,609.8h2.8l3.5,9.8c0.4,1.2,0.9,2.5,1.3,3.8h0.1c0.4-1.3,0.8-2.6,1.3-3.8l3.5-9.8h2.8v18.4h-2.1v-10.1
	c0-1.6,0.2-3.8,0.3-5.4h-0.1l-1.5,4.2l-3.5,9.5h-1.6l-3.5-9.5l-1.5-4.2h-0.1c0.1,1.6,0.3,3.8,0.3,5.4v10.1h-2.1L1590.8,609.8z"/>
<path class="st5" d="M1610.2,621.4c0-4.5,3-7.2,6.3-7.2s6.3,2.6,6.3,7.2s-3,7.1-6.3,7.1S1610.2,625.9,1610.2,621.4z M1620.5,621.4
	c0-3.1-1.6-5.2-3.9-5.2s-3.9,2.1-3.9,5.2s1.6,5.2,3.9,5.2S1620.5,624.5,1620.5,621.4z"/>
<path class="st5" d="M1626.7,614.6h1.9l0.2,2.5h0.1c1-1.7,2.3-2.8,3.9-2.8c0.5,0,1,0.1,1.4,0.3l-0.4,2c-0.4-0.2-0.9-0.2-1.3-0.2
	c-1.2,0-2.5,0.8-3.4,3.1v8.7h-2.3L1626.7,614.6z"/>
<path class="st5" d="M1635.4,621.4c0-4.4,3-7.2,6.1-7.2c3.5,0,5.4,2.5,5.4,6.4c0,0.4,0,0.9-0.1,1.3h-9.2c0.2,2.9,1.9,4.8,4.5,4.8
	c1.2,0,2.4-0.4,3.4-1.1l0.8,1.5c-1.3,0.9-2.9,1.4-4.5,1.4C1638.3,628.5,1635.4,625.9,1635.4,621.4z M1644.9,620.3
	c0-2.7-1.2-4.2-3.4-4.2c-1.9,0-3.6,1.5-3.9,4.2H1644.9z"/>
<path class="st5" d="M607.1,665v-7.5h-2v-1.8l2.1-0.1l0.3-3.8h1.9v3.8h3.7v1.9h-3.7v7.6c0,1.7,0.5,2.6,2.1,2.6
	c0.5,0,1.1-0.2,1.5-0.4l0.4,1.7c-0.8,0.3-1.7,0.5-2.5,0.5C608.1,669.5,607.1,667.7,607.1,665z"/>
<path class="st5" d="M616.5,649.2h2.3v5.5l-0.1,2.8c1.1-1.3,2.8-2.1,4.5-2.2c2.9,0,4.2,1.8,4.2,5.3v8.6h-2.3v-8.3
	c0-2.5-0.8-3.6-2.6-3.6c-1.4,0-2.3,0.7-3.7,2.1v9.9h-2.3L616.5,649.2z"/>
<path class="st5" d="M631.1,665.6c0-3,2.6-4.5,8.4-5.1c0-1.8-0.6-3.4-2.8-3.4c-1.5,0.1-2.9,0.6-4,1.5l-0.9-1.6
	c1.6-1.1,3.4-1.7,5.3-1.8c3.3,0,4.7,2.2,4.7,5.6v8.4h-1.9l-0.2-1.6h-0.1c-1.2,1.2-2.8,1.9-4.5,2c-2,0.2-3.8-1.4-4-3.4
	C631.1,666,631.1,665.8,631.1,665.6z M639.5,665.9v-3.8c-4.6,0.5-6.1,1.7-6.1,3.4c0,1.5,1,2.2,2.4,2.2
	C637.2,667.6,638.5,666.9,639.5,665.9L639.5,665.9z"/>
<path class="st5" d="M646.4,655.6h1.9l0.2,2h0.1c1.1-1.4,2.8-2.2,4.6-2.3c2.9,0,4.2,1.8,4.2,5.3v8.6H655v-8.3c0-2.5-0.8-3.6-2.6-3.6
	c-1.4,0-2.3,0.7-3.7,2.1v9.9h-2.3L646.4,655.6z"/>
<path class="st5" d="M666.8,662.4c0-4.4,3-7.2,6.1-7.2c3.5,0,5.4,2.5,5.4,6.4c0,0.4,0,0.9-0.1,1.3h-9.2c0.2,2.9,1.9,4.8,4.5,4.8
	c1.2,0,2.4-0.4,3.4-1.1l0.8,1.5c-1.3,0.9-2.9,1.4-4.5,1.4C669.7,669.5,666.8,666.9,666.8,662.4z M676.4,661.3c0-2.7-1.2-4.2-3.3-4.2
	c-1.9,0-3.6,1.5-3.9,4.2H676.4z"/>
<path class="st5" d="M680.2,655.6h2.4l2.6,7.7c0.4,1.3,0.8,2.7,1.3,4h0.1c0.4-1.3,0.8-2.7,1.2-4l2.6-7.7h2.2l-4.8,13.6h-2.7
	L680.2,655.6z"/>
<path class="st5" d="M694.4,662.4c0-4.4,3-7.2,6.1-7.2c3.5,0,5.4,2.5,5.4,6.4c0,0.4,0,0.9-0.1,1.3h-9.2c0.2,2.9,1.9,4.8,4.5,4.8
	c1.2,0,2.4-0.4,3.4-1.1l0.8,1.5c-1.3,0.9-2.9,1.4-4.5,1.4C697.3,669.5,694.4,666.9,694.4,662.4z M703.9,661.3c0-2.7-1.2-4.2-3.3-4.2
	c-1.9,0-3.6,1.5-3.9,4.2H703.9z"/>
<path class="st5" d="M709.6,655.6h1.9l0.2,2.5h0.1c1-1.7,2.3-2.8,3.9-2.8c0.5,0,1,0.1,1.5,0.3l-0.4,2c-0.4-0.2-0.9-0.2-1.3-0.2
	c-1.2,0-2.5,0.8-3.4,3.1v8.7h-2.3L709.6,655.6z"/>
<path class="st5" d="M717,672.6c1.5-0.5,2.5-1.9,2.5-3.5l-0.2-2.1l1.1,1.7c-0.3,0.3-0.7,0.5-1.2,0.5c-0.9,0.1-1.6-0.6-1.7-1.4
	c0-0.1,0-0.1,0-0.2c0-0.9,0.7-1.6,1.6-1.6c0,0,0.1,0,0.1,0c1.2,0,2,1,2,2.7c0,2.3-1.5,4.4-3.7,5.2L717,672.6z"/>
<path class="st5" d="M731.5,665v-7.5h-2v-1.8l2.1-0.1l0.3-3.8h1.9v3.8h3.7v1.9h-3.7v7.6c0,1.7,0.5,2.6,2.1,2.6
	c0.5,0,1.1-0.2,1.5-0.4l0.4,1.7c-0.8,0.3-1.7,0.5-2.5,0.5C732.5,669.5,731.5,667.7,731.5,665z"/>
<path class="st5" d="M740.8,649.2h2.3v5.5l-0.1,2.8c1.1-1.3,2.8-2.1,4.5-2.2c2.9,0,4.2,1.8,4.2,5.3v8.6h-2.3v-8.3
	c0-2.5-0.8-3.6-2.6-3.6c-1.4,0-2.3,0.7-3.7,2.1v9.9h-2.3V649.2z"/>
<path class="st5" d="M755.3,662.4c0-4.4,3-7.2,6.1-7.2c3.5,0,5.4,2.5,5.4,6.4c0,0.4,0,0.9-0.1,1.3h-9.2c0.2,2.9,1.9,4.8,4.5,4.8
	c1.2,0,2.4-0.4,3.4-1.1l0.8,1.5c-1.3,0.9-2.9,1.4-4.5,1.4C758.2,669.5,755.3,666.9,755.3,662.4z M764.9,661.3c0-2.7-1.2-4.2-3.3-4.2
	c-1.9,0-3.6,1.5-3.9,4.2H764.9z"/>
<path class="st5" d="M770.5,655.6h1.9l0.2,2.5h0.1c1-1.7,2.3-2.8,3.9-2.8c0.5,0,1,0.1,1.5,0.3l-0.4,2c-0.4-0.2-0.9-0.2-1.3-0.2
	c-1.1,0-2.5,0.8-3.4,3.1v8.7h-2.3L770.5,655.6z"/>
<path class="st5" d="M779.2,662.4c0-4.4,3-7.2,6.1-7.2c3.5,0,5.4,2.5,5.4,6.4c0,0.4,0,0.9-0.1,1.3h-9.2c0.2,2.9,1.9,4.8,4.5,4.8
	c1.2,0,2.4-0.4,3.4-1.1l0.8,1.5c-1.3,0.9-2.9,1.4-4.5,1.4C782.1,669.5,779.2,666.9,779.2,662.4z M788.8,661.3c0-2.7-1.2-4.2-3.4-4.2
	c-1.9,0-3.6,1.5-3.9,4.2H788.8z"/>
<path class="st5" d="M799.9,651.3c0-0.9,0.7-1.6,1.6-1.6c0.9,0,1.6,0.7,1.6,1.6c0,0.9-0.7,1.6-1.6,1.6
	C800.6,652.9,799.9,652.2,799.9,651.3z M800.3,655.6h2.3v13.6h-2.3V655.6z"/>
<path class="st5" d="M806,667.6l1.1-1.5c1.1,1,2.5,1.6,4,1.6c1.8,0,2.7-1,2.7-2.1c0-1.4-1.6-2-3.1-2.6c-1.9-0.7-4.1-1.6-4.1-3.9
	s1.7-3.9,4.7-3.9c1.5,0,3,0.6,4.2,1.5l-1.1,1.5c-0.9-0.7-2-1.2-3.1-1.2c-1.7,0-2.5,0.9-2.5,2c0,1.3,1.5,1.8,3,2.4
	c2,0.7,4.2,1.5,4.2,4.1c0,2.2-1.8,4-5,4C809.2,669.5,807.4,668.8,806,667.6z"/>
<path class="st5" d="M824.5,665.6c0-3,2.6-4.5,8.4-5.1c0-1.8-0.6-3.4-2.8-3.4c-1.5,0.1-2.9,0.6-4.1,1.5l-0.9-1.6
	c1.6-1.1,3.4-1.7,5.3-1.8c3.3,0,4.7,2.2,4.7,5.6v8.4h-1.9l-0.2-1.6H833c-1.2,1.2-2.8,1.9-4.5,2c-2,0.2-3.8-1.4-4-3.4
	C824.5,666,824.5,665.8,824.5,665.6z M832.9,665.9v-3.8c-4.6,0.5-6.1,1.7-6.1,3.4c0,1.5,1,2.2,2.4,2.2
	C830.6,667.6,831.9,666.9,832.9,665.9L832.9,665.9z"/>
<path class="st5" d="M844.1,667.6l1.1-1.5c1.1,1,2.5,1.6,4,1.6c1.8,0,2.7-1,2.7-2.1c0-1.4-1.6-2-3.1-2.6c-1.9-0.7-4.1-1.6-4.1-3.9
	s1.8-3.9,4.7-3.9c1.5,0,3,0.6,4.2,1.5l-1.1,1.5c-0.9-0.7-2-1.2-3.1-1.2c-1.7,0-2.5,0.9-2.5,2c0,1.3,1.5,1.8,3,2.4
	c2,0.7,4.2,1.5,4.2,4.1c0,2.2-1.8,4-5,4C847.3,669.5,845.5,668.8,844.1,667.6z"/>
<path class="st5" d="M857.5,665v-7.5h-2v-1.8l2.1-0.1l0.3-3.8h1.9v3.8h3.7v1.9h-3.7v7.6c0,1.7,0.5,2.6,2.1,2.6
	c0.5,0,1.1-0.2,1.5-0.4l0.4,1.7c-0.8,0.3-1.7,0.5-2.5,0.5C858.5,669.5,857.5,667.7,857.5,665z"/>
<path class="st5" d="M866.8,655.6h1.9l0.2,2.5h0.1c1-1.7,2.3-2.8,3.9-2.8c0.5,0,1,0.1,1.5,0.3l-0.4,2c-0.4-0.2-0.9-0.2-1.3-0.2
	c-1.1,0-2.5,0.8-3.4,3.1v8.7h-2.3L866.8,655.6z"/>
<path class="st5" d="M875.5,662.4c0-4.5,3-7.2,6.3-7.2s6.3,2.6,6.3,7.2s-3,7.1-6.3,7.1S875.5,666.9,875.5,662.4z M885.8,662.4
	c0-3.1-1.6-5.2-3.9-5.2s-3.9,2.1-3.9,5.2s1.6,5.2,3.9,5.2S885.8,665.5,885.8,662.4z"/>
<path class="st5" d="M892,655.6h1.9l0.2,2h0.1c1.1-1.4,2.8-2.2,4.6-2.3c2.9,0,4.2,1.8,4.2,5.3v8.6h-2.3v-8.3c0-2.5-0.8-3.6-2.6-3.6
	c-1.4,0-2.4,0.7-3.7,2.1v9.9H892V655.6z"/>
<path class="st5" d="M906.5,671.8c0.1-1.3,0.9-2.5,2-3.1v-0.1c-0.8-0.5-1.2-1.3-1.2-2.2c0.1-1,0.6-2,1.5-2.5v-0.1
	c-1.1-0.9-1.7-2.2-1.8-3.7c0-2.7,2.1-4.8,4.8-4.9c0.1,0,0.2,0,0.3,0c0.7,0,1.3,0.1,1.9,0.3h4.7v1.8H916c0.7,0.7,1.1,1.8,1.1,2.8
	c0,2.6-2,4.7-4.6,4.7c-0.1,0-0.3,0-0.4,0c-0.7,0-1.4-0.2-2-0.5c-0.5,0.4-0.9,1-0.9,1.6c0,0.9,0.6,1.5,2.4,1.5h2.7
	c3.2,0,4.8,1,4.8,3.2c0,2.5-2.7,4.7-6.9,4.7C908.8,675.4,906.5,674.1,906.5,671.8z M916.8,671.1c0-1.3-1-1.7-2.7-1.7h-2.3
	c-0.6,0-1.2-0.1-1.8-0.2c-0.8,0.5-1.3,1.3-1.4,2.3c0,1.5,1.5,2.4,4,2.4S916.8,672.5,916.8,671.1L916.8,671.1z M915.1,660.1
	c0.2-1.6-1-3-2.6-3.2s-3,1-3.2,2.6c0,0.2,0,0.4,0,0.6c-0.2,1.6,1,3,2.6,3.2s3-1,3.2-2.6C915.1,660.5,915.1,660.3,915.1,660.1z"/>
<path class="st5" d="M927.9,655.6h1.9l0.2,2h0c1.1-1.4,2.8-2.2,4.6-2.3c2.9,0,4.2,1.8,4.2,5.3v8.6h-2.3v-8.3c0-2.5-0.8-3.6-2.6-3.6
	c-1.4,0-2.3,0.7-3.7,2.1v9.9h-2.3L927.9,655.6z"/>
<path class="st5" d="M942.4,662.4c0-4.4,3-7.2,6.1-7.2c3.5,0,5.4,2.5,5.4,6.4c0,0.4,0,0.9-0.1,1.3h-9.2c0.2,2.9,1.9,4.8,4.5,4.8
	c1.2,0,2.4-0.4,3.4-1.1l0.8,1.5c-1.3,0.9-2.9,1.4-4.5,1.4C945.3,669.5,942.4,666.9,942.4,662.4z M952,661.3c0-2.7-1.2-4.2-3.4-4.2
	c-1.9,0-3.6,1.5-3.9,4.2H952z"/>
<path class="st5" d="M956.6,662.4c0-4.4,3-7.2,6.1-7.2c3.5,0,5.4,2.5,5.4,6.4c0,0.4,0,0.9-0.1,1.3h-9.2c0.2,2.9,1.9,4.8,4.5,4.8
	c1.2,0,2.4-0.4,3.4-1.1l0.8,1.5c-1.3,0.9-2.9,1.4-4.5,1.4C959.5,669.5,956.6,666.9,956.6,662.4z M966.1,661.3c0-2.7-1.2-4.2-3.3-4.2
	c-1.9,0-3.6,1.5-3.9,4.2H966.1z"/>
<path class="st5" d="M970.8,662.4c0-4.4,2.8-7.2,5.9-7.2c1.4,0,2.8,0.6,3.8,1.6l-0.1-2.3v-5.2h2.3v20h-1.9l-0.2-1.6h-0.1
	c-1.1,1.2-2.5,1.9-4.1,1.9C973,669.5,970.8,666.9,970.8,662.4z M980.4,665.7v-7.1c-0.9-0.9-2.1-1.4-3.3-1.4c-2.2,0-3.9,2.1-3.9,5.2
	c0,3.3,1.3,5.2,3.7,5.2C978.3,667.5,979.6,666.8,980.4,665.7L980.4,665.7z"/>
<path class="st5" d="M993.9,665v-7.5h-2v-1.8l2.1-0.1l0.3-3.8h1.9v3.8h3.7v1.9h-3.7v7.6c0,1.7,0.5,2.6,2.1,2.6
	c0.5,0,1.1-0.2,1.5-0.4l0.5,1.7c-0.8,0.3-1.7,0.5-2.5,0.5C994.9,669.5,993.9,667.7,993.9,665z"/>
<path class="st5" d="M1001.8,662.4c0-4.5,3-7.2,6.3-7.2s6.3,2.6,6.3,7.2s-3,7.1-6.3,7.1S1001.8,666.9,1001.8,662.4z M1012.1,662.4
	c0-3.1-1.6-5.2-3.9-5.2s-3.9,2.1-3.9,5.2s1.6,5.2,3.9,5.2S1012.1,665.5,1012.1,662.4z"/>
<path class="st5" d="M1024.1,649.2h2.3v5.5l-0.1,2.8c1.1-1.3,2.8-2.1,4.5-2.2c2.9,0,4.2,1.8,4.2,5.3v8.6h-2.3v-8.3
	c0-2.5-0.8-3.6-2.6-3.6c-1.4,0-2.4,0.7-3.7,2.1v9.9h-2.3L1024.1,649.2z"/>
<path class="st5" d="M1038.7,665.6c0-3,2.6-4.5,8.4-5.1c0-1.8-0.6-3.4-2.8-3.4c-1.5,0.1-2.9,0.6-4.1,1.5l-0.9-1.6
	c1.6-1.1,3.4-1.7,5.3-1.8c3.3,0,4.7,2.2,4.7,5.6v8.4h-1.9l-0.2-1.6h-0.1c-1.2,1.2-2.8,1.9-4.5,2c-2,0.2-3.8-1.4-4-3.4
	C1038.7,666,1038.7,665.8,1038.7,665.6z M1047.1,665.9v-3.8c-4.6,0.5-6.1,1.7-6.1,3.4c-0.1,1.1,0.8,2.1,2,2.2c0.1,0,0.3,0,0.4,0
	C1044.8,667.6,1046.1,666.9,1047.1,665.9L1047.1,665.9z"/>
<path class="st5" d="M1052,655.6h2.4l2.6,7.7c0.4,1.3,0.8,2.7,1.3,4h0.1c0.4-1.3,0.8-2.7,1.3-4l2.6-7.7h2.3l-4.8,13.6h-2.7
	L1052,655.6z"/>
<path class="st5" d="M1066.2,662.4c0-4.4,3-7.2,6.1-7.2c3.5,0,5.4,2.5,5.4,6.4c0,0.4,0,0.9-0.1,1.3h-9.2c0.2,2.9,1.9,4.8,4.5,4.8
	c1.2,0,2.4-0.4,3.4-1.1l0.8,1.5c-1.3,0.9-2.9,1.4-4.5,1.4C1069.1,669.5,1066.2,666.9,1066.2,662.4z M1075.7,661.3
	c0-2.7-1.2-4.2-3.4-4.2c-1.9,0-3.6,1.5-3.9,4.2H1075.7z"/>
<path class="st5" d="M1087.1,664.2v-8.6h2.3v8.3c0,2.5,0.8,3.6,2.6,3.6c1.4,0,2.3-0.7,3.6-2.3v-9.7h2.3v13.6h-1.9l-0.2-2.1h-0.1
	c-1,1.5-2.7,2.4-4.5,2.5C1088.4,669.5,1087.1,667.7,1087.1,664.2z"/>
<path class="st5" d="M1101.3,667.6l1.1-1.5c1.1,1,2.5,1.6,4,1.6c1.8,0,2.7-1,2.7-2.1c0-1.4-1.6-2-3.1-2.6c-1.9-0.7-4.1-1.6-4.1-3.9
	s1.7-3.9,4.7-3.9c1.5,0,3,0.6,4.2,1.5l-1.1,1.5c-0.9-0.7-2-1.2-3.1-1.2c-1.7,0-2.5,0.9-2.5,2c0,1.3,1.5,1.8,3,2.4
	c2,0.7,4.2,1.5,4.2,4.1c0,2.2-1.8,4-5,4C1104.4,669.5,1102.7,668.8,1101.3,667.6z"/>
<path class="st5" d="M1119.8,665.6c0-3,2.6-4.5,8.4-5.1c0-1.8-0.6-3.4-2.8-3.4c-1.5,0.1-2.9,0.6-4.1,1.5l-0.9-1.6
	c1.6-1.1,3.4-1.7,5.3-1.8c3.3,0,4.7,2.2,4.7,5.6v8.4h-1.9l-0.2-1.6h-0.1c-1.2,1.2-2.8,1.9-4.5,2c-2,0.2-3.8-1.4-4-3.4
	C1119.8,666,1119.8,665.8,1119.8,665.6z M1128.2,665.9v-3.8c-4.6,0.5-6.1,1.7-6.1,3.4c0,1.5,1,2.2,2.4,2.2
	C1125.9,667.6,1127.2,666.9,1128.2,665.9L1128.2,665.9z"/>
<path class="st5" d="M1135.1,666.4v-17.2h2.3v17.4c0,0.7,0.3,1,0.6,1c0.2,0,0.3,0,0.5,0l0.3,1.8c-0.4,0.1-0.9,0.2-1.3,0.2
	C1135.8,669.5,1135.1,668.4,1135.1,666.4z"/>
<path class="st5" d="M1142.5,666.4v-17.2h2.3v17.4c0,0.7,0.3,1,0.6,1c0.2,0,0.3,0,0.5,0l0.3,1.8c-0.4,0.1-0.9,0.2-1.3,0.2
	C1143.2,669.5,1142.5,668.4,1142.5,666.4z"/>
<path class="st5" d="M1154.3,667.6l1.1-1.5c1.1,1,2.5,1.6,4,1.6c1.8,0,2.7-1,2.7-2.1c0-1.4-1.6-2-3.1-2.6c-1.9-0.7-4.1-1.6-4.1-3.9
	s1.8-3.9,4.7-3.9c1.5,0,3,0.6,4.2,1.5l-1.1,1.5c-0.9-0.7-2-1.2-3.1-1.2c-1.7,0-2.5,0.9-2.5,2c0,1.3,1.5,1.8,3,2.4
	c2,0.7,4.2,1.5,4.2,4.1c0,2.2-1.8,4-5,4C1157.4,669.5,1155.7,668.8,1154.3,667.6z"/>
<path class="st5" d="M1167.6,665v-7.5h-2v-1.8l2.1-0.1l0.3-3.8h1.9v3.8h3.7v1.9h-3.7v7.6c0,1.7,0.5,2.6,2.1,2.6
	c0.5,0,1.1-0.2,1.6-0.4l0.4,1.7c-0.8,0.3-1.7,0.5-2.5,0.5C1168.6,669.5,1167.6,667.7,1167.6,665z"/>
<path class="st5" d="M1175.5,665.6c0-3,2.6-4.5,8.4-5.1c0-1.8-0.6-3.4-2.8-3.4c-1.5,0.1-2.9,0.6-4.1,1.5l-0.9-1.6
	c1.6-1.1,3.4-1.7,5.3-1.8c3.3,0,4.7,2.2,4.7,5.6v8.4h-1.9l-0.2-1.6h-0.1c-1.2,1.2-2.8,1.9-4.5,2c-2,0.1-3.8-1.4-4-3.4
	C1175.5,666,1175.5,665.8,1175.5,665.6z M1183.9,665.9v-3.8c-4.6,0.5-6.1,1.7-6.1,3.4c0,1.5,1,2.2,2.4,2.2
	C1181.6,667.6,1182.9,666.9,1183.9,665.9L1183.9,665.9z"/>
<path class="st5" d="M1190.8,655.6h1.9l0.2,2h0.1c1.1-1.4,2.8-2.2,4.6-2.3c2.9,0,4.2,1.8,4.2,5.3v8.6h-2.3v-8.3
	c0-2.5-0.8-3.6-2.6-3.6c-1.4,0-2.4,0.7-3.7,2.1v9.9h-2.3L1190.8,655.6z"/>
<path class="st5" d="M1205.4,662.4c0-4.4,2.8-7.2,5.9-7.2c1.4,0,2.8,0.6,3.8,1.6l-0.1-2.3v-5.2h2.3v20h-1.9l-0.2-1.6h-0.1
	c-1.1,1.2-2.5,1.9-4.1,1.9C1207.6,669.5,1205.4,666.9,1205.4,662.4z M1215,665.7v-7.1c-0.9-0.9-2.1-1.4-3.3-1.4
	c-2.2,0-3.9,2.1-3.9,5.2c0,3.3,1.3,5.2,3.7,5.2C1212.9,667.5,1214.2,666.8,1215,665.7L1215,665.7z"/>
<path class="st5" d="M1228.5,665v-7.5h-2v-1.8l2.1-0.1l0.3-3.8h1.9v3.8h3.7v1.9h-3.7v7.6c0,1.7,0.5,2.6,2.1,2.6
	c0.5,0,1.1-0.2,1.6-0.4l0.4,1.7c-0.8,0.3-1.7,0.5-2.5,0.5C1229.4,669.5,1228.5,667.7,1228.5,665z"/>
<path class="st5" d="M1236.4,662.4c0-4.5,3-7.2,6.3-7.2s6.3,2.6,6.3,7.2s-3,7.1-6.3,7.1S1236.4,666.9,1236.4,662.4z M1246.6,662.4
	c0-3.1-1.6-5.2-3.9-5.2s-3.9,2.1-3.9,5.2s1.6,5.2,3.9,5.2S1246.6,665.5,1246.6,662.4z"/>
<path class="st5" d="M1251.8,671.8c0.1-1.3,0.9-2.5,2-3.1v-0.1c-0.8-0.5-1.2-1.3-1.2-2.2c0.1-1,0.6-2,1.5-2.5v-0.1
	c-1.1-0.9-1.7-2.2-1.8-3.7c0-2.7,2.1-4.8,4.8-4.9c0.1,0,0.2,0,0.3,0c0.7,0,1.3,0.1,1.9,0.3h4.7v1.8h-2.8c0.7,0.7,1.1,1.8,1.1,2.8
	c0,2.6-2,4.7-4.6,4.7c-0.1,0-0.3,0-0.4,0c-0.7,0-1.4-0.2-2-0.5c-0.5,0.4-0.9,1-0.9,1.6c0,0.9,0.6,1.5,2.4,1.5h2.7
	c3.2,0,4.8,1,4.8,3.2c0,2.5-2.7,4.7-6.9,4.7C1254.1,675.4,1251.8,674.1,1251.8,671.8z M1262.1,671.1c0-1.3-0.9-1.7-2.7-1.7h-2.4
	c-0.6,0-1.2-0.1-1.8-0.2c-0.8,0.5-1.3,1.3-1.4,2.3c0,1.5,1.5,2.4,4,2.4S1262.1,672.5,1262.1,671.1L1262.1,671.1z M1260.4,660.1
	c0.2-1.6-1-3-2.6-3.2c-1.6-0.2-3,1-3.2,2.6c0,0.2,0,0.4,0,0.6c-0.2,1.6,1,3,2.6,3.2c1.6,0.2,3-1,3.2-2.6
	C1260.4,660.5,1260.4,660.3,1260.4,660.1z"/>
<path class="st5" d="M1265.9,662.4c0-4.4,3-7.2,6.1-7.2c3.5,0,5.4,2.5,5.4,6.4c0,0.4,0,0.9-0.1,1.3h-9.2c0.2,2.9,1.9,4.8,4.5,4.8
	c1.2,0,2.4-0.4,3.4-1.1l0.8,1.5c-1.3,0.9-2.9,1.4-4.5,1.4C1268.8,669.5,1265.9,666.9,1265.9,662.4z M1275.4,661.3
	c0-2.7-1.2-4.2-3.4-4.2c-1.9,0-3.6,1.5-3.9,4.2H1275.4z"/>
<path class="st5" d="M1281.2,665v-7.5h-2v-1.8l2.1-0.1l0.3-3.8h1.9v3.8h3.7v1.9h-3.7v7.6c0,1.7,0.5,2.6,2.1,2.6
	c0.5,0,1.1-0.2,1.6-0.4l0.4,1.7c-0.8,0.3-1.7,0.5-2.5,0.5C1282.2,669.5,1281.2,667.7,1281.2,665z"/>
<path class="st5" d="M1290.5,649.2h2.3v5.5l-0.1,2.8c1.1-1.3,2.8-2.1,4.5-2.2c2.9,0,4.2,1.8,4.2,5.3v8.6h-2.3v-8.3
	c0-2.5-0.8-3.6-2.6-3.6c-1.4,0-2.3,0.7-3.7,2.1v9.9h-2.3L1290.5,649.2z"/>
<path class="st5" d="M1305,662.4c0-4.4,3-7.2,6.1-7.2c3.5,0,5.4,2.5,5.4,6.4c0,0.4,0,0.9-0.1,1.3h-9.2c0.2,2.9,1.9,4.8,4.5,4.8
	c1.2,0,2.4-0.4,3.4-1.1l0.8,1.5c-1.3,0.9-2.9,1.4-4.5,1.4C1307.9,669.5,1305,666.9,1305,662.4z M1314.5,661.3c0-2.7-1.2-4.2-3.3-4.2
	c-1.9,0-3.6,1.5-3.9,4.2H1314.5z"/>
<path class="st5" d="M1320.2,655.6h1.9l0.2,2.5h0.1c1-1.7,2.3-2.8,3.9-2.8c0.5,0,1,0.1,1.4,0.3l-0.4,2c-0.4-0.2-0.9-0.2-1.3-0.2
	c-1.2,0-2.5,0.8-3.4,3.1v8.7h-2.3L1320.2,655.6z"/>
<path class="st5" d="M1335.2,665.6c0-3,2.6-4.5,8.4-5.1c0-1.8-0.6-3.4-2.8-3.4c-1.5,0.1-2.9,0.6-4.1,1.5l-0.9-1.6
	c1.6-1.1,3.4-1.7,5.3-1.8c3.3,0,4.7,2.2,4.7,5.6v8.4h-1.9l-0.2-1.6h-0.1c-1.2,1.2-2.8,1.9-4.5,2c-2,0.2-3.8-1.3-4-3.4
	C1335.2,666,1335.2,665.8,1335.2,665.6z M1343.6,665.9v-3.8c-4.6,0.5-6.1,1.7-6.1,3.4c-0.1,1.1,0.8,2.1,2,2.2c0.1,0,0.3,0,0.4,0
	C1341.3,667.6,1342.6,666.9,1343.6,665.9L1343.6,665.9z"/>
<path class="st5" d="M1350.5,655.6h1.9l0.2,2h0.1c1.1-1.4,2.8-2.2,4.6-2.3c2.9,0,4.2,1.8,4.2,5.3v8.6h-2.3v-8.3
	c0-2.5-0.8-3.6-2.6-3.6c-1.4,0-2.4,0.7-3.7,2.1v9.9h-2.3L1350.5,655.6z"/>
<path class="st5" d="M1365.1,662.4c0-4.4,2.8-7.2,5.9-7.2c1.4,0,2.8,0.6,3.8,1.6l-0.1-2.3v-5.2h2.3v20h-1.9l-0.2-1.6h-0.1
	c-1.1,1.2-2.6,1.9-4.1,1.9C1367.3,669.5,1365.1,666.9,1365.1,662.4z M1374.7,665.7v-7.1c-0.9-0.9-2.1-1.4-3.3-1.4
	c-2.2,0-3.9,2.1-3.9,5.2c0,3.3,1.3,5.2,3.7,5.2C1372.6,667.5,1373.9,666.8,1374.7,665.7L1374.7,665.7z"/>
<path class="st5" d="M1386.3,655.7l2-0.1h5.1v1.9h-7L1386.3,655.7z M1388.1,653.4c0-2.8,1.3-4.5,4-4.5c0.8,0,1.5,0.2,2.3,0.5
	l-0.5,1.8c-0.5-0.2-1-0.3-1.5-0.3c-1.3,0-1.9,0.9-1.9,2.7v15.8h-2.3L1388.1,653.4z"/>
<path class="st5" d="M1395.8,651.3c0-0.9,0.7-1.6,1.6-1.6c0.9,0,1.6,0.7,1.6,1.6s-0.7,1.6-1.6,1.6
	C1396.5,652.9,1395.8,652.2,1395.8,651.3z M1396.2,655.6h2.3v13.6h-2.3V655.6z"/>
<path class="st5" d="M1402.3,671.8c0.1-1.3,0.9-2.5,2-3.1v-0.1c-0.8-0.5-1.2-1.3-1.2-2.2c0.1-1,0.6-2,1.5-2.5v-0.1
	c-1.1-0.9-1.8-2.2-1.8-3.7c0-2.7,2.1-4.8,4.8-4.9c0.1,0,0.2,0,0.3,0c0.7,0,1.3,0.1,1.9,0.3h4.8v1.8h-2.8c0.7,0.7,1.1,1.8,1.1,2.8
	c0,2.6-2,4.7-4.6,4.7c-0.1,0-0.3,0-0.4,0c-0.7,0-1.4-0.2-2-0.5c-0.5,0.4-0.8,1-0.9,1.6c0,0.9,0.6,1.5,2.4,1.5h2.7
	c3.2,0,4.8,1,4.8,3.2c0,2.5-2.7,4.7-6.9,4.7C1404.6,675.4,1402.3,674.1,1402.3,671.8z M1412.6,671.1c0-1.3-1-1.7-2.7-1.7h-2.3
	c-0.6,0-1.2-0.1-1.8-0.2c-0.8,0.5-1.3,1.3-1.4,2.3c0,1.5,1.5,2.4,4,2.4S1412.6,672.5,1412.6,671.1L1412.6,671.1z M1410.8,660.1
	c0.1-1.6-1.1-3-2.6-3.1c-1.6-0.1-3,1.1-3.1,2.6c0,0.2,0,0.3,0,0.5c-0.2,1.6,1,3,2.5,3.2s3-1,3.2-2.5
	C1410.9,660.5,1410.9,660.3,1410.8,660.1z"/>
<path class="st5" d="M1417.8,649.2h2.3v5.5l-0.1,2.8c1.1-1.3,2.8-2.1,4.5-2.2c2.9,0,4.2,1.8,4.2,5.3v8.6h-2.3v-8.3
	c0-2.5-0.8-3.6-2.6-3.6c-1.4,0-2.4,0.7-3.7,2.1v9.9h-2.3L1417.8,649.2z"/>
<path class="st5" d="M1433.7,665v-7.5h-2v-1.8l2.1-0.1l0.3-3.8h1.9v3.8h3.7v1.9h-3.7v7.6c0,1.7,0.5,2.6,2.1,2.6
	c0.5,0,1.1-0.2,1.6-0.4l0.4,1.7c-0.8,0.3-1.7,0.5-2.5,0.5C1434.7,669.5,1433.7,667.7,1433.7,665z"/>
<path class="st5" d="M1449.3,665v-7.5h-2v-1.8l2.1-0.1l0.3-3.8h1.9v3.8h3.7v1.9h-3.7v7.6c0,1.7,0.5,2.6,2.1,2.6
	c0.5,0,1.1-0.2,1.6-0.4l0.4,1.7c-0.8,0.3-1.7,0.5-2.5,0.5C1450.3,669.5,1449.3,667.7,1449.3,665z"/>
<path class="st5" d="M1458.7,649.2h2.3v5.5l-0.1,2.8c1.1-1.3,2.8-2.1,4.5-2.2c2.9,0,4.2,1.8,4.2,5.3v8.6h-2.3v-8.3
	c0-2.5-0.8-3.6-2.6-3.6c-1.4,0-2.4,0.7-3.7,2.1v9.9h-2.3L1458.7,649.2z"/>
<path class="st5" d="M1473.2,662.4c0-4.4,3-7.2,6.1-7.2c3.5,0,5.4,2.5,5.4,6.4c0,0.4,0,0.9-0.1,1.3h-9.2c0.2,2.9,1.9,4.8,4.5,4.8
	c1.2,0,2.4-0.4,3.4-1.1l0.8,1.5c-1.3,0.9-2.9,1.4-4.5,1.4C1476,669.5,1473.2,666.9,1473.2,662.4z M1482.7,661.3
	c0-2.7-1.2-4.2-3.3-4.2c-1.9,0-3.6,1.5-3.9,4.2H1482.7z"/>
<path class="st5" d="M1486.8,667.6l1.1-1.5c1.1,1,2.5,1.6,4,1.6c1.8,0,2.7-1,2.7-2.1c0-1.4-1.6-2-3.1-2.6c-1.9-0.7-4.1-1.6-4.1-3.9
	s1.8-3.9,4.7-3.9c1.5,0,3,0.6,4.2,1.5l-1.1,1.5c-0.9-0.7-2-1.2-3.1-1.2c-1.7,0-2.5,0.9-2.5,2c0,1.3,1.5,1.8,3,2.4
	c2,0.7,4.2,1.5,4.2,4.1c0,2.2-1.8,4-5,4C1490,669.5,1488.2,668.8,1486.8,667.6z"/>
<path class="st5" d="M1499.3,662.4c0-4.4,3-7.2,6.1-7.2c3.5,0,5.4,2.5,5.4,6.4c0,0.4,0,0.9-0.1,1.3h-9.2c0.2,2.9,1.9,4.8,4.5,4.8
	c1.2,0,2.4-0.4,3.4-1.1l0.8,1.5c-1.3,0.9-2.9,1.4-4.5,1.4C1502.2,669.5,1499.3,666.9,1499.3,662.4z M1508.8,661.3
	c0-2.7-1.2-4.2-3.4-4.2c-1.9,0-3.6,1.5-3.9,4.2H1508.8z"/>
<path class="st5" d="M1520.2,664.2v-8.6h2.3v8.3c0,2.5,0.8,3.6,2.6,3.6c1.4,0,2.4-0.7,3.7-2.3v-9.7h2.3v13.6h-1.9l-0.2-2.1h-0.1
	c-1.3,1.5-2.6,2.5-4.5,2.5C1521.5,669.5,1520.2,667.7,1520.2,664.2z"/>
<path class="st5" d="M1535.9,655.6h1.9l0.2,2h0.1c1.1-1.4,2.8-2.2,4.6-2.3c2.9,0,4.2,1.8,4.2,5.3v8.6h-2.3v-8.3
	c0-2.5-0.8-3.6-2.6-3.6c-1.4,0-2.4,0.7-3.7,2.1v9.9h-2.3V655.6z"/>
<path class="st5" d="M1551.5,649.2h2.3v13.5h0.1l5.8-7.2h2.6l-4.6,5.5l5.2,8.2h-2.5l-4-6.5l-2.6,3v3.6h-2.3L1551.5,649.2z"/>
<path class="st5" d="M1565.6,655.6h1.9l0.2,2h0.1c1.1-1.4,2.8-2.2,4.6-2.3c2.9,0,4.2,1.8,4.2,5.3v8.6h-2.3v-8.3
	c0-2.5-0.8-3.6-2.6-3.6c-1.4,0-2.3,0.7-3.7,2.1v9.9h-2.3L1565.6,655.6z"/>
<path class="st5" d="M1580.2,662.4c0-4.5,3-7.2,6.3-7.2s6.3,2.6,6.3,7.2s-3,7.1-6.3,7.1S1580.2,666.9,1580.2,662.4z M1590.4,662.4
	c0-3.1-1.6-5.2-3.9-5.2s-3.9,2.1-3.9,5.2s1.6,5.2,3.9,5.2S1590.4,665.5,1590.4,662.4z"/>
<path class="st5" d="M1594.9,655.6h2.4l2,7.9c0.3,1.3,0.6,2.5,0.8,3.8h0.1c0.3-1.3,0.6-2.5,0.9-3.8l2.1-7.9h2.2l2.1,7.9
	c0.3,1.3,0.6,2.5,0.9,3.8h0.1c0.3-1.3,0.6-2.5,0.8-3.8l2-7.9h2.2l-3.7,13.6h-2.8l-2-7.3c-0.3-1.3-0.6-2.5-0.9-3.9h-0.1
	c-0.3,1.4-0.6,2.7-0.9,4l-1.9,7.3h-2.7L1594.9,655.6z"/>
<path class="st5" d="M1617,655.6h1.9l0.2,2h0.1c1.1-1.4,2.8-2.2,4.6-2.3c2.9,0,4.2,1.8,4.2,5.3v8.6h-2.3v-8.3c0-2.5-0.8-3.6-2.6-3.6
	c-1.4,0-2.4,0.7-3.7,2.1v9.9h-2.3V655.6z"/>
<path class="st5" d="M1631.6,672.6c1.5-0.5,2.5-1.9,2.5-3.5l-0.2-2.1l1.1,1.7c-0.3,0.3-0.7,0.5-1.2,0.5c-0.9,0.1-1.6-0.6-1.7-1.4
	c0-0.1,0-0.1,0-0.2c0-0.9,0.7-1.6,1.6-1.6c0,0,0.1,0,0.1,0c1.2,0,2,1,2,2.7c0,2.3-1.5,4.4-3.7,5.2L1631.6,672.6z"/>
<path class="st5" d="M606.5,705.2v-8.6h2.3v8.3c0,2.5,0.8,3.6,2.6,3.6c1.4,0,2.4-0.7,3.7-2.3v-9.7h2.3v13.6h-1.9l-0.2-2.1h-0.1
	c-1,1.5-2.7,2.4-4.5,2.5C607.8,710.5,606.5,708.7,606.5,705.2z"/>
<path class="st5" d="M622.2,696.6h1.9l0.2,2h0.1c1.1-1.4,2.8-2.2,4.6-2.3c2.9,0,4.2,1.8,4.2,5.3v8.6h-2.3v-8.3
	c0-2.5-0.8-3.6-2.6-3.6c-1.4,0-2.4,0.7-3.7,2.1v9.9h-2.3L622.2,696.6z"/>
<path class="st5" d="M636.3,708.6l1.1-1.5c1.1,1,2.5,1.6,4,1.6c1.8,0,2.7-1,2.7-2.1c0-1.4-1.6-2-3.1-2.6c-1.9-0.7-4.1-1.6-4.1-3.9
	s1.7-3.9,4.7-3.9c1.5,0,3,0.6,4.2,1.5l-1.1,1.5c-0.9-0.7-2-1.2-3.1-1.2c-1.7,0-2.5,0.9-2.5,2c0,1.3,1.5,1.8,3,2.4
	c2,0.7,4.2,1.5,4.2,4.1c0,2.2-1.8,4-5,4C639.5,710.5,637.7,709.8,636.3,708.6z"/>
<path class="st5" d="M648.8,703.4c0-4.4,3-7.2,6.1-7.2c3.5,0,5.4,2.5,5.4,6.4c0,0.4,0,0.9-0.1,1.3h-9.2c0.2,2.9,1.9,4.8,4.5,4.8
	c1.2,0,2.4-0.4,3.4-1.1l0.8,1.5c-1.3,0.9-2.9,1.4-4.5,1.4C651.7,710.5,648.8,707.9,648.8,703.4z M658.4,702.3c0-2.7-1.2-4.2-3.3-4.2
	c-1.9,0-3.6,1.5-3.9,4.2H658.4z"/>
<path class="st5" d="M663,703.4c0-4.4,3-7.2,6.1-7.2c3.5,0,5.4,2.5,5.4,6.4c0,0.4,0,0.9-0.1,1.3h-9.2c0.2,2.9,1.9,4.8,4.5,4.8
	c1.2,0,2.4-0.4,3.4-1.1l0.8,1.5c-1.3,0.9-2.9,1.4-4.5,1.4C665.9,710.5,663,707.9,663,703.4z M672.5,702.3c0-2.7-1.2-4.2-3.3-4.2
	c-1.9,0-3.6,1.5-3.9,4.2H672.5z"/>
<path class="st5" d="M678.2,696.6h1.9l0.2,2h0.1c1.1-1.4,2.8-2.2,4.6-2.3c2.9,0,4.2,1.8,4.2,5.3v8.6h-2.3v-8.3
	c0-2.5-0.8-3.6-2.6-3.6c-1.4,0-2.3,0.7-3.7,2.1v9.9h-2.3L678.2,696.6z"/>
<path class="st5" d="M698.8,706.6c0-3,2.6-4.5,8.4-5.1c0-1.8-0.6-3.4-2.8-3.4c-1.5,0.1-2.9,0.6-4.1,1.5l-0.9-1.6
	c1.6-1.1,3.4-1.7,5.3-1.8c3.3,0,4.7,2.2,4.7,5.6v8.4h-1.9l-0.2-1.6h-0.1c-1.2,1.2-2.8,1.9-4.5,2c-2,0.2-3.8-1.4-4-3.4
	C698.8,707,698.8,706.8,698.8,706.6z M707.2,706.9v-3.8c-4.6,0.5-6.1,1.7-6.1,3.4c0,1.5,1,2.2,2.4,2.2
	C704.9,708.6,706.2,707.9,707.2,706.9L707.2,706.9z"/>
<path class="st5" d="M714.1,696.6h1.9l0.2,2h0.1c1.1-1.4,2.8-2.2,4.6-2.3c2.9,0,4.2,1.8,4.2,5.3v8.6h-2.3v-8.3
	c0-2.5-0.8-3.6-2.6-3.6c-1.4,0-2.4,0.7-3.7,2.1v9.9h-2.3L714.1,696.6z"/>
<path class="st5" d="M728.7,703.4c0-4.4,2.8-7.2,5.9-7.2c1.4,0,2.8,0.6,3.8,1.6l-0.1-2.3v-5.2h2.3v20h-1.9l-0.2-1.6h-0.1
	c-1.1,1.2-2.5,1.9-4.1,1.9C730.9,710.5,728.7,707.9,728.7,703.4z M738.3,706.7v-7.1c-0.9-0.9-2.1-1.4-3.3-1.4
	c-2.2,0-3.9,2.1-3.9,5.2c0,3.3,1.3,5.2,3.7,5.2C736.2,708.5,737.4,707.8,738.3,706.7L738.3,706.7z"/>
<path class="st5" d="M751.2,705.2v-8.6h2.3v8.3c0,2.5,0.8,3.6,2.6,3.6c1.4,0,2.3-0.7,3.6-2.3v-9.7h2.3v13.6h-1.9l-0.2-2.1h-0.1
	c-1,1.5-2.7,2.4-4.5,2.5C752.5,710.5,751.2,708.7,751.2,705.2z"/>
<path class="st5" d="M766.9,696.6h1.9l0.2,2h0c1.1-1.4,2.8-2.2,4.6-2.3c2.9,0,4.2,1.8,4.2,5.3v8.6h-2.3v-8.3c0-2.5-0.8-3.6-2.6-3.6
	c-1.4,0-2.4,0.7-3.7,2.1v9.9h-2.3L766.9,696.6z"/>
<path class="st5" d="M782.5,690.2h2.3v5.5l-0.1,2.8c1.1-1.3,2.8-2.1,4.5-2.2c2.9,0,4.2,1.8,4.2,5.3v8.6h-2.3v-8.3
	c0-2.5-0.8-3.6-2.6-3.6c-1.4,0-2.3,0.7-3.7,2.1v9.9h-2.3L782.5,690.2z"/>
<path class="st5" d="M797,703.4c0-4.4,3-7.2,6.1-7.2c3.5,0,5.4,2.5,5.4,6.4c0,0.4,0,0.9-0.1,1.3h-9.2c0.2,2.9,1.9,4.8,4.5,4.8
	c1.2,0,2.4-0.4,3.4-1.1l0.8,1.5c-1.3,0.9-2.9,1.4-4.5,1.4C799.8,710.5,797,707.9,797,703.4z M806.5,702.3c0-2.7-1.2-4.2-3.3-4.2
	c-1.9,0-3.6,1.5-3.9,4.2H806.5z"/>
<path class="st5" d="M810.9,706.6c0-3,2.6-4.5,8.4-5.1c0-1.8-0.6-3.4-2.8-3.4c-1.5,0.1-2.9,0.6-4.1,1.5l-0.9-1.6
	c1.6-1.1,3.4-1.7,5.3-1.8c3.3,0,4.7,2.2,4.7,5.6v8.4h-1.9l-0.2-1.6h-0.1c-1.2,1.2-2.8,1.9-4.5,2c-2,0.2-3.8-1.4-4-3.4
	C810.9,707,810.9,706.8,810.9,706.6z M819.3,706.9v-3.8c-4.6,0.5-6.1,1.7-6.1,3.4c-0.1,1.1,0.8,2.1,2,2.2c0.1,0,0.3,0,0.4,0
	C817,708.6,818.3,707.9,819.3,706.9L819.3,706.9z"/>
<path class="st5" d="M826.1,696.6h1.9l0.2,2.5h0.1c1-1.7,2.3-2.8,3.9-2.8c0.5,0,1,0.1,1.5,0.3l-0.4,2c-0.4-0.2-0.9-0.2-1.3-0.2
	c-1.2,0-2.5,0.8-3.4,3.1v8.7h-2.3L826.1,696.6z"/>
<path class="st5" d="M834.9,703.4c0-4.4,2.8-7.2,5.9-7.2c1.4,0,2.8,0.6,3.8,1.6l-0.1-2.3v-5.2h2.3v20h-1.9l-0.2-1.6h-0.1
	c-1.1,1.2-2.6,1.9-4.1,1.9C837.1,710.5,834.9,707.9,834.9,703.4z M844.5,706.7v-7.1c-0.9-0.9-2.1-1.4-3.3-1.4
	c-2.2,0-3.9,2.1-3.9,5.2c0,3.3,1.3,5.2,3.7,5.2C842.4,708.5,843.7,707.8,844.5,706.7L844.5,706.7z"/>
<path class="st5" d="M850.5,702.3h6.5v1.7h-6.4L850.5,702.3z"/>
<path class="st5" d="M859.7,703.4c0-4.5,3-7.2,6.3-7.2s6.3,2.6,6.3,7.2s-3,7.1-6.3,7.1S859.7,707.9,859.7,703.4z M869.9,703.4
	c0-3.1-1.6-5.2-3.9-5.2s-3.9,2.1-3.9,5.2s1.6,5.2,3.9,5.2S869.9,706.5,869.9,703.4z"/>
<path class="st5" d="M874.6,696.7l2-0.1h5.1v1.9h-7L874.6,696.7z M876.4,694.4c0-2.8,1.3-4.5,4-4.5c0.8,0,1.5,0.2,2.3,0.5l-0.5,1.8
	c-0.5-0.2-1-0.3-1.5-0.3c-1.3,0-1.9,0.9-1.9,2.7v15.8h-2.3L876.4,694.4z"/>
<path class="st5" d="M889.4,703.4c0-4.4,3-7.2,6.1-7.2c3.5,0,5.4,2.5,5.4,6.4c0,0.4,0,0.9-0.1,1.3h-9.2c0.2,2.9,1.9,4.8,4.5,4.8
	c1.2,0,2.4-0.4,3.4-1.1l0.8,1.5c-1.3,0.9-2.9,1.4-4.5,1.4C892.3,710.5,889.4,707.9,889.4,703.4z M898.9,702.3c0-2.7-1.2-4.2-3.4-4.2
	c-1.9,0-3.6,1.5-3.9,4.2H898.9z"/>
<path class="st5" d="M904.6,696.6h1.9l0.2,2h0.1c1.1-1.4,2.8-2.2,4.6-2.3c2.9,0,4.2,1.8,4.2,5.3v8.6h-2.3v-8.3
	c0-2.5-0.8-3.6-2.6-3.6c-1.4,0-2.4,0.7-3.7,2.1v9.9h-2.3V696.6z"/>
<path class="st5" d="M919.2,703.4c0-4.4,3-7.2,6.1-7.2c3.5,0,5.4,2.5,5.4,6.4c0,0.4,0,0.9-0.1,1.3h-9.2c0.2,2.9,1.9,4.8,4.5,4.8
	c1.2,0,2.4-0.4,3.4-1.1l0.8,1.5c-1.3,0.9-2.9,1.4-4.5,1.4C922,710.5,919.2,707.9,919.2,703.4z M928.7,702.3c0-2.7-1.2-4.2-3.3-4.2
	c-1.9,0-3.6,1.5-3.9,4.2H928.7z"/>
<path class="st5" d="M934.3,696.6h1.9l0.2,2h0.1c1-1.3,2.6-2.2,4.2-2.3c1.7-0.1,3.3,0.9,3.8,2.6c1.4-1.5,2.8-2.6,4.5-2.6
	c2.8,0,4.1,1.8,4.1,5.3v8.6h-2.3v-8.3c0-2.5-0.8-3.6-2.5-3.6c-1.1,0-2.2,0.7-3.4,2.1v9.9h-2.3v-8.3c0-2.5-0.8-3.6-2.5-3.6
	c-1,0-2.2,0.7-3.4,2.1v9.9h-2.3L934.3,696.6z"/>
<path class="st5" d="M957.4,692.3c0-0.9,0.7-1.6,1.6-1.6c0.9,0,1.6,0.7,1.6,1.6c0,0.9-0.7,1.6-1.6,1.6
	C958.1,693.9,957.4,693.2,957.4,692.3z M957.8,696.6h2.3v13.6h-2.3V696.6z"/>
<path class="st5" d="M964,703.4c0-4.4,3-7.2,6.1-7.2c3.5,0,5.4,2.5,5.4,6.4c0,0.4,0,0.9-0.1,1.3h-9.2c0.2,2.9,1.9,4.8,4.5,4.8
	c1.2,0,2.4-0.4,3.4-1.1l0.8,1.5c-1.3,0.9-2.9,1.4-4.5,1.4C966.9,710.5,964,707.9,964,703.4z M973.5,702.3c0-2.7-1.2-4.2-3.4-4.2
	c-1.9,0-3.6,1.5-3.9,4.2H973.5z"/>
<path class="st5" d="M977.6,708.6l1.1-1.5c1.1,1,2.5,1.6,4,1.6c1.8,0,2.7-1,2.7-2.1c0-1.4-1.6-2-3.1-2.6c-1.9-0.7-4.1-1.6-4.1-3.9
	s1.8-3.9,4.7-3.9c1.5,0,3,0.6,4.2,1.5l-1.1,1.5c-0.9-0.7-2-1.2-3.1-1.2c-1.7,0-2.5,0.9-2.5,2c0,1.3,1.5,1.8,3,2.4
	c2,0.7,4.2,1.5,4.2,4.1c0,2.2-1.8,4-5,4C980.8,710.5,979.1,709.8,977.6,708.6z"/>
<path class="st5" d="M997.5,706v-7.5h-2v-1.8l2.1-0.1l0.3-3.8h1.9v3.8h3.7v1.9h-3.7v7.6c0,1.7,0.5,2.6,2.1,2.6
	c0.5,0,1.1-0.2,1.5-0.4l0.4,1.7c-0.8,0.3-1.7,0.5-2.5,0.5C998.4,710.5,997.5,708.7,997.5,706z"/>
<path class="st5" d="M1005.4,703.4c0-4.5,3-7.2,6.3-7.2s6.3,2.6,6.3,7.2s-3,7.1-6.3,7.1S1005.4,707.9,1005.4,703.4z M1015.6,703.4
	c0-3.1-1.6-5.2-3.9-5.2s-3.9,2.1-3.9,5.2s1.6,5.2,3.9,5.2S1015.6,706.5,1015.6,703.4z"/>
<path class="st5" d="M1020.8,712.8c0.1-1.3,0.9-2.5,2-3.1v-0.1c-0.8-0.5-1.2-1.3-1.2-2.2c0.1-1,0.6-2,1.5-2.5v-0.1
	c-1.1-0.9-1.8-2.2-1.8-3.7c0-2.7,2.1-4.8,4.8-4.9c0.1,0,0.2,0,0.3,0c0.7,0,1.3,0.1,1.9,0.3h4.8v1.8h-2.8c0.7,0.7,1.1,1.8,1.1,2.8
	c0,2.6-2,4.7-4.6,4.7c-0.1,0-0.3,0-0.4,0c-0.7,0-1.4-0.2-2-0.5c-0.5,0.4-0.8,1-0.9,1.6c0,0.9,0.6,1.5,2.4,1.5h2.7
	c3.2,0,4.8,1,4.8,3.2c0,2.5-2.7,4.7-6.9,4.7C1023.1,716.4,1020.8,715.1,1020.8,712.8z M1031.1,712.1c0-1.3-1-1.7-2.7-1.7h-2.3
	c-0.6,0-1.2-0.1-1.8-0.2c-0.8,0.5-1.3,1.3-1.4,2.3c0,1.5,1.5,2.4,3.9,2.4S1031.1,713.5,1031.1,712.1L1031.1,712.1z M1029.3,701.1
	c0.1-1.6-1.1-3-2.6-3.1c-1.6-0.1-3,1.1-3.1,2.6c0,0.2,0,0.3,0,0.5c-0.2,1.6,1,3,2.5,3.2s3-1,3.2-2.5
	C1029.4,701.5,1029.4,701.3,1029.3,701.1z"/>
<path class="st5" d="M1034.8,703.4c0-4.4,3-7.2,6.1-7.2c3.5,0,5.4,2.5,5.4,6.4c0,0.4,0,0.9-0.1,1.3h-9.2c0.2,2.9,1.9,4.8,4.5,4.8
	c1.2,0,2.4-0.4,3.4-1.1l0.8,1.5c-1.3,0.9-2.9,1.4-4.5,1.4C1037.7,710.5,1034.8,707.9,1034.8,703.4z M1044.4,702.3
	c0-2.7-1.2-4.2-3.4-4.2c-1.9,0-3.6,1.5-3.9,4.2H1044.4z"/>
<path class="st5" d="M1050.1,706v-7.5h-2v-1.8l2.1-0.1l0.3-3.8h1.9v3.8h3.7v1.9h-3.7v7.6c0,1.7,0.5,2.6,2.1,2.6
	c0.5,0,1.1-0.2,1.6-0.4l0.4,1.7c-0.8,0.3-1.7,0.5-2.5,0.5C1051.1,710.5,1050.1,708.7,1050.1,706z"/>
<path class="st5" d="M1059.5,690.2h2.3v5.5l-0.1,2.8c1.1-1.3,2.8-2.1,4.5-2.2c2.9,0,4.2,1.8,4.2,5.3v8.6h-2.3v-8.3
	c0-2.5-0.8-3.6-2.6-3.6c-1.4,0-2.4,0.7-3.7,2.1v9.9h-2.3L1059.5,690.2z"/>
<path class="st5" d="M1074,703.4c0-4.4,3-7.2,6.1-7.2c3.5,0,5.4,2.5,5.4,6.4c0,0.4,0,0.9-0.1,1.3h-9.2c0.2,2.9,1.9,4.8,4.5,4.8
	c1.2,0,2.4-0.4,3.4-1.1l0.8,1.5c-1.3,0.9-2.9,1.4-4.5,1.4C1076.9,710.5,1074,707.9,1074,703.4z M1083.5,702.3c0-2.7-1.2-4.2-3.3-4.2
	c-1.9,0-3.6,1.5-3.9,4.2H1083.5z"/>
<path class="st5" d="M1089.2,696.6h1.9l0.2,2.5h0.1c1-1.7,2.3-2.8,3.9-2.8c0.5,0,1,0.1,1.4,0.3l-0.4,2c-0.4-0.2-0.9-0.2-1.3-0.2
	c-1.2,0-2.5,0.8-3.4,3.1v8.7h-2.3L1089.2,696.6z"/>
<path class="st5" d="M1097.1,708.8c0-0.9,0.8-1.6,1.7-1.6c0.9,0,1.6,0.8,1.6,1.7c0,0.9-0.8,1.6-1.7,1.6
	C1097.8,710.5,1097.1,709.7,1097.1,708.8C1097.1,708.8,1097.1,708.8,1097.1,708.8z"/>
</svg>
