<svg xmlns="http://www.w3.org/2000/svg" viewBox="0 0 1920.61 1280.4"><defs><style>.cls-1{fill:#1e1e1e;}</style></defs><title>map_1</title><g id="Layer_2" data-name="Layer 2"><g id="Layer_1-2" data-name="Layer 1"><path class="cls-1" d="M78.62,1277l-9.68,3.43h9.23l1.43-.5.17.5H83l-.52-1.54,162.43-57.7q5.81,27.1,13.15,59.24H274c-20.72-91.32-32-148.21-33.56-185.24,26.5-8,46.55-8.57,51.35-8.58L304.4,1131a1.56,1.56,0,0,0,.89,1,1.53,1.53,0,0,0,.6.12,1.63,1.63,0,0,0,.74-.19l36.78-20.11a1.55,1.55,0,0,0,.69-1.93l-16.23-40.83L349,1058.41h0l23.08-11.15,22.65,18.81-93,214.33h3.37l40.73-93.91,55.34,22,3.56,31.4-52,8.06a1.56,1.56,0,0,0-1.31,1.43l-2.07,31h3.09l2-29.54,19.84-3.08,1.77,32.62h23.7L397,1244.26l9.7-1.5h0l37-4.85,8.24,42.49h3.14l-8.31-42.89,20.85-2.73,4.72,21-15.39,24.64h3.65l12.71-20.35,4.58,20.35h6.33l-5.82-25.88,58.47-23.9,14.67,39.72a1.53,1.53,0,0,0,1.81,1l17.43-4.11,3.86,13.21h3.21l-4.52-15.49a1.54,1.54,0,0,0-1.83-1.07L554,1268l-14.24-38.52,122.13-49.91,84.26-12.86,12,26.5a1.55,1.55,0,0,0,.39.53l32.86,28.63,42.44,48.47,8.39,9.58h4.11l-9.3-10.61,19-22,18.18,28a1.54,1.54,0,1,0,2.58-1.68l-19.27-29.64-15.07-24.51,30.84-28.59L889,1209.16l-.41,32a1.55,1.55,0,0,0,1.53,1.56h0a1.54,1.54,0,0,0,1.54-1.52l.41-32.65a1.54,1.54,0,0,0-.38-1l-16.2-18.36L890.83,1175l40,21.7a1.58,1.58,0,0,0,.73.18,1.54,1.54,0,0,0,1.19-.55l9.22-11.06,4.69,11.59a1.54,1.54,0,0,0,1,.91l21.84,6.08,7.29,22.15a1.47,1.47,0,0,0,.35.59l52,53.77h8.13l66.36-63.22h0v0l37-35.3,70.85,38.86,12.26,29.93-22.55,29.76h3.87l38.58-50.91h0a1.55,1.55,0,0,0,1,.34,1.54,1.54,0,0,0,1-2.74l-.09-.08,20.59-27.17,24.64,19.32q-10.12,12.74-20.25,25.53l0,0-.06.08-12.45,15.71c-5.89,7.44-11.2,14.15-15.75,19.88h27.85c4.75-12.72,9-21.62,12.52-26.09h0l1.55-2,26.56,18.71a1.55,1.55,0,0,0,.89.29,1.57,1.57,0,0,0,1.24-.62l9.89-13.12a1.55,1.55,0,0,0-2.47-1.86l-9,11.93-25.19-17.76c16-20.15,36.2-45.63,58.29-73.28l56.69,28.46-41.52,75.3h3.53l8.68-15.73,28.78,15.73H1407L1373.32,1262l34.47-62.54,21.69-38.61a1.45,1.45,0,0,0,.18-.49l6.6-38.7v0L1570.08,1132l-20.53,19a1.54,1.54,0,0,0-.25,2l18.58,29.43-60.08,98.05h3.63l58.61-95.66,103.51,95-.45.71h9l-3.86-1.56,48.89-52.68,69,31.73c-2.71,7.34-5.48,14.89-8.27,22.51h16.5c3.11-8.48,6.18-16.85,9.15-24.91,5.31,8.76,10.48,17.19,15.27,24.91h18.18c-4.38-7-9.27-14.9-14.49-23.44l42.34,16.73,15.85,6.71h7.92l-21.19-9,30.43-74.25,12.89,5.23v-3.33l-11.72-4.75,11.72-28.58v-8.15l-2.37,5.79-27.31-12.8,8-16.81,21.7,8.17v-3.3l-20.37-7.67,6.68-14.08a1.55,1.55,0,0,0-.21-1.63l13.9,5.72v-3.34l-42.67-17.57c2.13-4.72,4.32-9.57,6.53-14.5l36.14,15.13v-3.35l-34.88-14.6c4.62-10.33,9.32-20.91,13.83-31.12l21,8.54v-16.67l-14.81-6c5.58-12.68,10.63-24.21,14.55-33.22l.26.11V961c-15.55,28.88-37.07,56.8-87.36,71.76-2.5.38-5,.82-7.6,1.34-22.56,4.51-80.57,3.78-129.48,1.49l16.26-53.91,40.93-55.76,51.8,37.17a1.55,1.55,0,0,0,1.8-2.52l-51.77-37.14L1783,885.6l137.66,57v-3.34l-137.33-56.83L1744.91,846l65.11-80,110.59,55.07V803.88L1818.34,753l102.27-201.68V523.43h0l-29,6.32,8.78-31.24a209.61,209.61,0,0,0,20.23,8.8V490.73a191.27,191.27,0,0,1-20-9.56c-10.94-13.38-105-128.29-121.59-143.87-16.35-15.33-76.2-42.14-90.57-48.46C1648,214.65,1588.11,103.31,1584.66,93.21c-1.21-5.92-6.06-50.52-10.52-93.21h-15.53c.91,8.68,1.9,18.13,2.91,27.65L1551.75,0h-16.38l5.19,14.68-71.89-5.5L1470,0h-3.12l-1.33,8.94-63.52-4.85L1401.61,0h-6.21l.48,4.37-32,5.24L1361.42,0h-3.18l2.55,10.11-49,8L1309.82,0h-3.11l2,18.64L1245.09,29l-4.77-29h-3.13L1242,29.54l-62.35,10.2c-.28-13.78-.51-26.78-.7-38.1L1188.68,0h-44.32l-44.52,1.76.1-1.76h-3.1l-2.13,40.46h-20.22a1.6,1.6,0,0,0-.92.3c-.24.18-18.33,13.48-32.43,23.63L1037.81,43l23.41-10.2a1.55,1.55,0,0,0,.92-1.22l3.71-28.75a1.54,1.54,0,0,0-1.25-1.71L1058.89,0h-16.84l20.55,3.83-3.41,26.44-23.7,10.32a1.53,1.53,0,0,0-.91,1.65l3.74,24.16c-3.51,2.52-6.66,4.76-9,6.4C1017.82,80.74,972,95.74,968,97L935.92,95.2,878.35,30.93,870.71,6.81,881,0h-5.57l-5.64,3.75L868.55,0h-3.24l10.2,32.18a1.74,1.74,0,0,0,.32.56L932.53,96,812.2,140.37c-2.82-.63-20.45-5-23.88-15.64C787,120.7,777.77,100,765.68,73l.09,0,58.87-28.84,15.54,36.61a1.52,1.52,0,0,0,.92.85,1.43,1.43,0,0,0,.5.09,1.53,1.53,0,0,0,.75-.2L878,61.64a1.53,1.53,0,0,0,.56-2.16L849,12a1.53,1.53,0,0,0-1.73-.67l-29.69,8.37L809.26,0h-3.35l17.52,41.26-59,28.91-1.54-3.44c-9-20.14-19.7-43.95-29.73-66.73h-3.38c10,22.68,20.76,46.73,30.29,68,13.4,29.89,24,53.5,25.32,57.67,3.56,11.08,19,15.94,24.62,17.35-3.77,7-17.92,33-24.24,39.36-5.09,5.08-25.57,17.47-37.7,24.61l-48-48L627.15,0h-17l31,67.56L527.62,57.38c11.1-16.83,24.5-37.07,38-57.38H547c-11.57,17.46-23.58,35.63-33.8,51.14L522.77,0h-3.13l-6.77,36.24L452.1,20.55,456.3,0h-3.16L441.67,56.16,374,38.34,376.77,0h-3.1l-2.89,39.39v0L366.32,141.9a1.54,1.54,0,0,0,1.16,1.57l28.57,7.29L335.5,191,288.8,53.82A176.35,176.35,0,0,0,315.77,0H299.49a164.39,164.39,0,0,1-23.27,44.81L266,26.86a1.53,1.53,0,0,0-2.34-.41l-21.14,18L185.91,0h-5l59.22,46.44-58,49.26-2.21-43.65a1.54,1.54,0,0,0-1.16-1.42l-17.64-4.46a1.61,1.61,0,0,0-.92,0L124.75,59.46l-56.18-5L80.23,10.6h21.83a1.54,1.54,0,0,0,1.49-1.15L106,0h-3.19l-2,7.52H79.2L61.71,3.86,62.45,0H59.3l-.61,3.22L43.29,0H28.22L58.1,6.26l-9,47L18.69,68,0,64.3v3.14l17.19,3.37L14,96.85,0,93.21V96.4l3.91,1L0,139v33l2.66-28.27,53.93,10.64L51.88,207.2,0,205.45v3.1l53.24,1.78h.07l56.29-.85,9.32,60C76.72,265.85,31.2,253.08,0,242.82v16.31c7.31,2.35,15.25,4.8,23.73,7.23,45.42,13,84.62,19.56,116.8,19.56q7.26,0,14-.45a208.16,208.16,0,0,0,35.88-5.83l49.59,12-5.41,33.13c-20.58-4.35-45-10.85-45.34-11l-.29,0-43.91-3.09a1.75,1.75,0,0,0-.67.11L32.69,354.23,0,318.77v4.56l30.7,33.3-1.32,32.73a1.57,1.57,0,0,0,.11.64l19.34,47.75-2.62,12.14L0,349.82v36.84L47.79,490.14l-15.23,9.2L0,476.72v18.81l22.67,15.74-11.6,26.78A109.44,109.44,0,0,0,0,518.27v34.57a84.37,84.37,0,0,1,2.12,8.42,7.19,7.19,0,0,0,.28,1.38A86.94,86.94,0,0,1,0,603.8v25.57l11.41-13.23a7.78,7.78,0,0,0,1.22-1.93c.65-1.48,10.13-23.79,5.24-53l20.5-47.34,15.93-9.62,46.62,101L64.86,618.66a1.54,1.54,0,0,0-1,1.22l-3.75,25-18.55,42L10.73,702.67a1.55,1.55,0,0,0-.72,2L86.77,887.4h0l13,31.07-19.69,9L0,740.32v7.84L77.32,928.77Q71.53,931.41,66,934L0,778.33v7.91l63.17,149L39.11,946.31l-23.19-60A1.54,1.54,0,1,0,13,887.4L36.3,947.61C22.38,954,10.19,959.65,0,964.37v17C11.11,976.24,25.26,969.7,41.88,962l20,51.68c-21,9.16-41.2,18-59.56,26L0,1032.85v11.2l.44-.19,43.37,129.32L0,1191.38v3.35l44.79-18.62Zm300.55,3.38-1.79-33,16.53-2.56,2.7,34.69ZM818.83,22.53l28.19-8,28,45.16-32.7,18.2ZM244.28,1218.12,81.53,1275.93l-33.88-101,49.47-20.56a1.54,1.54,0,0,0,.84-2l-10.37-26.7a1.37,1.37,0,0,0-.13-.2l132.23-47.31h0l5.46-2C223.1,1107.28,230.09,1151.64,244.28,1218.12ZM1209,157.16a1.56,1.56,0,0,0-.67-1.42,1.58,1.58,0,0,0-1.56-.11L1183.6,167.1c-1-18.11-1.87-43.55-2.59-70.41l72.35,1.81.64,3.91c-.16,1.67-1.19,13-1.35,29.11a1.31,1.31,0,0,0,0,.28c-.08,8.31.08,17.88.7,28.08a.45.45,0,0,0,0,.11c0,.07,0,.13,0,.2a287.33,287.33,0,0,0,6.35,46.26c3.83,16.59,13.68,51.93,25,91.32l-88.62,15.65c-.18-2.51-.35-5-.53-7.59Zm-14.8,129.53c-3.06-42-6.42-83.35-8.58-95.73-.65-3.75-1.26-10.93-1.83-20.51l21.88-10.83Zm216.11-150.13,4.72,43.22-33.44-10.36V133.31Zm-28.72-6.36V86.33l23.76,4.78,4.62,42.31Zm-38,135.35L1335.46,242l85.81-5.13,1.36,12.47ZM1423,252.43l1.47,13.5-70.82,29-9.07-26.45ZM1334.42,239l-3.84-11.2a1.55,1.55,0,0,0-2.93,1l23.58,68.73a1.57,1.57,0,0,0,1.46,1,1.52,1.52,0,0,0,.59-.12l71.51-29.29,0,.34c-8.33,30.37-19.87,63.17-27.89,76.6l-88.28,22.79c-18.34-62.31-39.83-136.64-45.94-163.11a280.76,280.76,0,0,1-6.18-44.22h42.4a1.54,1.54,0,0,0,1.54-1.54V147.54l28.53,8.83L1314.88,199a1.55,1.55,0,0,0,1,2,1.59,1.59,0,0,0,.48.07,1.55,1.55,0,0,0,1.47-1.06L1332,157.29l15.42,4.77V203a1.54,1.54,0,0,0,1.54,1.54h68.82l3.19,29.28ZM1488.9,391.22l-8.11-18.81a1.56,1.56,0,0,0-2-.83l-14.85,5.8a1.52,1.52,0,0,0-1,1.32l-2.14,27.13L1418,417.42a1.55,1.55,0,0,0-1.11,1.8l5.76,28.22a1.54,1.54,0,0,0,1.51,1.23l.31,0,71.67-14.6c.43,12,.76,21.79.92,27.12-35-.62-76.27-2-83-5.66-9.19-5-60.11-47.1-92.25-74.08l170.88-44.1c.41,11.11,1.16,31.62,1.94,53.07Zm5.82,2.27c.47,12.93.94,26,1.34,37.42l-70.66,14.4L1420.24,420l42.45-11.5a1.55,1.55,0,0,0,1.14-1.37l2.15-27.24,12.56-4.91,8,18.54a1.56,1.56,0,0,0,1.64.91Zm121.93,568a1.51,1.51,0,0,0,0,.3,329.27,329.27,0,0,1-1.29,37.91c-3.35-1-11.49-3.35-22.38-6.71a2.1,2.1,0,0,0,0-.36l-5.2-43a1.55,1.55,0,1,0-3.07.37l5.08,42c-20-6.22-47.8-15.33-72.21-25,11.5-12.65,19.93-21.06,24-23.49,11.82-7.09,39.38-17.36,69-27.35C1614.74,929.05,1616.29,946.05,1616.65,961.51Zm-3.17-46.27c29.31-9.84,60.12-19.29,79.27-25l-73.16,68C1619.09,943.37,1617.45,927.46,1613.48,915.24ZM1187.56,989a1.54,1.54,0,0,0-1.83-1l-24.5,5.82a1.55,1.55,0,0,0-1.17,1.75l3.28,20.23-20.89,6.6-12.68-40,75.84-18.85,5.49,35.14-18.11,7.54Zm2.53,18.3-23.77,7.52-3-18.37,21.7-5.15Zm-30.26,69.8-7.61-24,66.85-18,6.69,24.87Zm66.73-14.08,8.85,32.86-68.89,15.18-5.94-31Zm-69.28,16.23,6.26,32.67L1108,1133.58l-38.71-44.82,64.41-83.78,6.28,19.77v0l8.78,27.65s0,0,0,0v0Zm-51.93,56L1063.1,1171l-31.17-33.69,35.43-46.07Zm27.2-133.85L1029.81,1135l-60.95-65.88,131.42-126.49,20,21.67-42.29,49a1.55,1.55,0,0,0,2.34,2l41.39-47.93ZM964.62,1069l-12,11.61-32.52-37.87,48.07-47.6,33.63,38.13L966.69,1067a1.5,1.5,0,0,0-1.7.26A1.51,1.51,0,0,0,964.62,1069Zm-243.1-16.42a1.56,1.56,0,0,0-2.07.71l-13.78,28.13-16.12,2-13-20.57L695.16,1040h28.51a1.55,1.55,0,0,0,0-3.09H696v-22.05l24.65,3.53h.22a1.56,1.56,0,0,0,1.53-1.75L717.65,982a1.51,1.51,0,0,0-1-1.23l-20.44-8,14.29-60.32,12.74,3.35a1.54,1.54,0,0,0,1.84-1l17.95-48.32,3,3.52s.08,0,.11.09,0,.06.06.09l132.6,112L844.33,1015,762.4,944.3a1.55,1.55,0,0,0-2.17.15l-14.15,16a1.54,1.54,0,0,0,2.32,2l13.14-14.89L797,978.28l-16.92,16.25a1.54,1.54,0,0,0,0,2.17l39.57,41.69-19.19,18.18h0l-38,36-17-19.78a1.55,1.55,0,1,0-2.35,2l17.08,19.89-20.48,19.4-31.17-31.59,13.66-27.89A1.55,1.55,0,0,0,721.52,1052.53ZM411,983.22l9.5,42.23-12.14,4.62-14.75-41.86Zm-19.82,2.47h0l-57.29,15.89-13.34-46.17a1.54,1.54,0,0,0-1.21-1.09L300.66,951c-.28-2.82-.69-5.53-1.2-8.09-.18-.89-.47-2-.85-3.39l95.74-30.44,16,71.11Zm8.44-81.24a3.08,3.08,0,0,0-1.48-2,2.59,2.59,0,0,0-.8-.26l-6.08-20.35,78.64-26.51,24.86,74.95L477,937.43a1.54,1.54,0,0,0-.92,1.83l20.26,76.26-69.87,8Zm110-50.2,22.31-8.75,28.73,58.35-28,11.24Zm20.15,62-32.13,12.89L477.06,867l29.7-11.65Zm-53.7-52.15-3.71-11.2h0l-5.52-16.65,51.77-17.76,12,24.26Zm3.28,75.7L562,906.62l33.76,68.54,2.67,19.22-45.77,8-.33.09-21.49,9-31.49,3.6Zm85.56-34.32,73.14-29.34.12,2L614.85,991.5l-13.34,2.34-2.69-19.35a1.59,1.59,0,0,0-.14-.47Zm51.24,88.94,16,2.64,6.41,10.36-21.73,11.52h0L578,1040.54l-22.5-35.48Zm-37.73,49.44,38.66-21.51,20.39,31-52.89,25.92L567.25,1055Zm41.38-23L640.23,1010,667,1053.28l-26.4-.88ZM643,1008.59l11.64-6.16a1.55,1.55,0,0,0,.82-1.23l2.75-31.73L680,960.09a1.55,1.55,0,1,0-1.22-2.84L656.1,967a1.54,1.54,0,0,0-.93,1.29l-2.76,31.8L641.33,1006l-6.89-11.13a1.52,1.52,0,0,0-1.06-.71L618,991.58l23.26-113a1.88,1.88,0,0,0,0-.41l-.21-3.64a1.52,1.52,0,0,0,.11-1.32,1.69,1.69,0,0,0-.21-.31l-1.57-26.56a1.48,1.48,0,0,0-.19-.65L620,810.9l83.66-10.85,9,30.8a1.47,1.47,0,0,0,.31.56l27.7,32.46L722.7,912.5l-12.91-3.4a1.55,1.55,0,0,0-1.19.16,1.58,1.58,0,0,0-.71,1l-15,63.17a1.47,1.47,0,0,0,0,.36v0h0v64.1l-18.09,22.15ZM921.43,637.85a1.53,1.53,0,0,0,2.11.57l.65-.37c2.37,3.18,4.71,6.34,7,9.41a1.43,1.43,0,0,0-.95.29l-36.75,28.46-18.84-27.14c14.15-17.1,26.2-32,30.09-36.84,5.36,7,11.55,15.17,17.63,23.32l-.33.19A1.56,1.56,0,0,0,921.43,637.85Zm10.66,12.35a1.54,1.54,0,0,0,.5-.77c9.53,13,17.16,24,18.24,26.81-2.66,2.81-19,16.21-36.36,30.24l-19.25-27.73Zm-20,58.23c-7.76,6.25-15.6,12.54-22.43,18a1.54,1.54,0,0,0-.25,2.17,1.56,1.56,0,0,0,2.17.25c14.22-11.33,60.73-48.52,62.26-51.41.45-.85,1.49-2.89-26.87-40.94l36.12-20.72,3.68,10.07a1.55,1.55,0,0,0,2.91-1.07L965.33,613a1.55,1.55,0,0,0-.93-.91,1.5,1.5,0,0,0-1.29.11L942.55,624,937.22,614l27.51-18.08a1.54,1.54,0,1,0-1.7-2.58l-28.68,18.86a1.55,1.55,0,0,0-.52,2l6,11.26L925.08,634c-5.26-7-11.45-15.19-18.76-24.72l4.4-59,69.15-52.45,39.4,78.47,18.31,81.05-15.23,2.72a1.64,1.64,0,0,0-.73.34L889.38,771.54,779,814.48l-9.22-37.25a1.55,1.55,0,0,0-1.28-1.16l-59.67-8.39,4.79-59.8c23.45,5.07,57,11.31,80.08,11.31,10.82,0,19.34-1.38,23.41-4.89,9.75-8.39,34.54-37.51,55.48-62.77ZM879.55,554.54,841.33,524c22-14.8,58-39.13,87.5-59.3l28.54,30.8Zm506.71,319.58h0l.54,38.91-.14-.12c-76.73-65.44-123-104.65-143.52-122l26.28-34.65,71.88,37.31a1.61,1.61,0,0,0,.71.17,1.54,1.54,0,0,0,.71-2.91l-109.25-56.7L1218.2,664l28.51-31.68,109.71,35.55L1342,714.71a1.54,1.54,0,0,0,1,1.93,1.41,1.41,0,0,0,.45.07,1.56,1.56,0,0,0,1.48-1.09l14.51-47.17h35.63L1384.27,730Zm-504.1,107-19.9-16.82,91.23-82.63a1.58,1.58,0,0,0,.51-1.15V841.66l59.78-36.33a1.57,1.57,0,0,0,.46-.43L1034,777.09l28.39-6.49,28.72,8.24,3,12.48v0h0l14.48,60.26L991.81,967.29h0v0l-74.85,74.12h0l-35.72,30.27L870.6,1038a1.58,1.58,0,0,0-.47-.7L846.68,1017l35.54-33.67a1.55,1.55,0,0,0,.48-1.17A1.53,1.53,0,0,0,882.16,981.07Zm184.1-392.26,11.72,32.3-43.68,7.68-7-30.89Zm-39.63,6.07-4.08-18,35.38-11,7.27,20Zm52.42,29.18L1096.44,672l-48.66,9.83a1.54,1.54,0,0,0-1.21,1.33L1035,631.81Zm13.69,125.34-37.21-33.21,52.57-12.1,12.34,34Zm28.81-8.45,15.11,37.24L1096.76,789,1094,777.42V752.23Zm-68.11-27.44-6.64-29.37a1.55,1.55,0,0,0,1.28.7l.31,0,49.11-9.93,9.54,26.28Zm-4.44-5.64-32.55,15.94-5.84-7.08a1.55,1.55,0,0,0-2.39,2l6.62,8a1.57,1.57,0,0,0,1.2.57,1.51,1.51,0,0,0,.68-.16l33-16.15.94,4.19-12.36,24.78-71.2,38.28-15.42-26.45,10.41-5.83a1.57,1.57,0,0,0,.75-1,1.6,1.6,0,0,0-.19-1.21l-11.78-18.86a1.63,1.63,0,0,0-.57-.51l73-61.35,15-2.67ZM959.15,744l-10.37,5.81a1.5,1.5,0,0,0-.73.94,1.52,1.52,0,0,0,.15,1.18l16.16,27.71-31.87,17.13a1.53,1.53,0,0,0,0-1.48l-21.69-36.44a1.57,1.57,0,0,0-.79-.63l38.12-32a1,1,0,0,0,.12.32Zm-29.34,52.87a1.54,1.54,0,0,0,1.17.71L768.46,885l-19.55-16.52,6.86-41.65,135-52.5a1.56,1.56,0,0,0,.43-.25L908,760a1.56,1.56,0,0,0,.17.5Zm110.37-54.48a1.56,1.56,0,0,0,.65-.67l11.92-23.9,38.13,34v23.66l-28-8a1.55,1.55,0,0,0-.77,0l-29.35,6.71a1.53,1.53,0,0,0-.92.61l-19.94,28-60.26,36.62a1.54,1.54,0,0,0-.74,1.32v39l-91,82.45L771,887.13Zm-24.24,205.3,15.48,18-21,19.22L995,968.46Zm-23.13,22.91,16.42,17.59a1.56,1.56,0,0,0,1.13.49,1.54,1.54,0,0,0,1-.41l22-20.19,16.26,19-45.71,44-33.66-38.16Zm25.33-25.09,44.27-43.83,24.95,27h0l10.83,11.7-46.27,44.54Zm46.47-46,45.13-44.69,15,38.23-36.12,32.42ZM1097.48,792l40.35-11,19.69,48.53-46.13,20.34Zm27-52.18,28.49-10.1,32.73,87.45-25.31,11.16Zm31.4-11.13,15.55-5.51,33.21,85.63L1188.47,816Zm18.45-6.54L1192,715.9l26.38,73a7.73,7.73,0,0,0,2.29,3.29c.1.08,2.54,2.13,7.41,6.25l-20.69,9.12Zm56.45,78.51c19.08,16.11,66,55.8,145.9,124,3.37,2.88,6.74,5.67,10.09,8.42l-1.3,47.37-167.29-152-9.45-18.09Zm127.86-135.33L1246.7,629.1a1.55,1.55,0,0,0-1.62.44l-29.7,33a1.55,1.55,0,0,0-.36,1.37l15.59,71.62a1.54,1.54,0,0,0,.8,1l35.23,18.29L1240.77,789l-8.55-7.22-54.85-151.89a8.22,8.22,0,0,0-.45-1l-16.42-31L1224,553.75h54.21a1.54,1.54,0,0,0,1.54-1.54V479.88l55-12.72,20.67,57.28a1.56,1.56,0,0,0,.32.52l30.81,33.44,4.08,67a1.53,1.53,0,0,0,.62,1.14l12.46,9.31,4.57,29.52ZM1163,635.6,1191,713l-17.8,6.31-65.51-168.88,11.78-3.66a474.72,474.72,0,0,0,22.75,49.58Zm7.23,84.73-15.51,5.5L1091,555.58l13.68-4.25Zm-18.42,6.53L1123.32,737l-62.44-172,27.2-8.44ZM1059.8,562l-37-96.09q14.6-9.1,26.71-12.55L1087,553.6Zm-3,.92-35.31,11-39.16-78,34.25-26c1.18-.81,2.35-1.58,3.51-2.33ZM767,779l9.05,36.63-22.24,8.65a1.54,1.54,0,0,0-1,1.19l-6.61,40.1-30.64-35.89-9.25-31.47,2.19-27.42ZM696,976l18.74,7.33L719,1015l-23.06-3.3Zm146.1,41.12-20.19,19.13-38.51-40.58,16-15.39ZM762.23,1097l14.5,16.89a1.56,1.56,0,0,0,1,.54l11.7.94h.13a1.54,1.54,0,0,0,.12-3.08l-11.06-.9-14.19-16.53,37-35,19.26,20.18a1.54,1.54,0,1,0,2.23-2.13l-19.24-20.17,40.72-38.58,23.36,20.16,10.88,34.53-99.21,84.05-37.59-41.59Zm72.59,18,30.23,32.73-15.7,11.63-7.56-9.07a1.52,1.52,0,0,0-1.17-.55,1.48,1.48,0,0,0-1.19.54l-23.23,27.12-20.69-29.09Zm2.36-2,42.48-36,15.3,48.6-27.41,20.29Zm45-38.16,35.54-30.12,32.58,37.94-8.8,8.47-43.95,32.52Zm219.24-135.5h0l-10.75-11.62,35.23-31.61,16.63,42.41L1122.35,962ZM1128,893.05l0-.08-15.71-40,46.29-20.42,30.74,92.57-44,11.93Zm33.39-61.79L1186.87,820l45.73,93.31-40.29,10.92Zm28.27-12.47,16.17-7.13,9.66,18.52a1.59,1.59,0,0,0,.33.43L1347.26,950l-20.53,26.53-56.79-44.94A1.54,1.54,0,1,0,1268,934l114.1,90.28-38.37,7.25-98.19-92.58-9.3-25.12s0,0,0-.07,0,0,0-.07ZM1384.14,1027,1382,1105.2l-12.18,15.11-18.47-14.38-6.41-71.5Zm-55-48.61,20.4-26.35,35.76,32.47-1,37.49Zm59.17,8.86,51.63,46.9c-16.91,20.44-35.35,43-54.77,67.07Zm.11-4.07,1.31-47.68a581.94,581.94,0,0,0,84.91,57.28c-10,11.76-21,24.83-32.73,39Zm81.43-40.14c-18.82-14.42-44.56-37.1-61.94-52.75a1.2,1.2,0,0,0,.39-.2l10.5-8.44,36.54,8.59,21.54,37.48Zm9.67-13.66,45.07,8.39c-5.69,5.38-13.14,13.2-22,23.06-12.53-5.44-23.22-10.87-30.17-15.9Zm-10,17.3c7,5.27,17.94,10.95,30.82,16.6-4.72,5.27-9.82,11.08-15.28,17.37a566.59,566.59,0,0,1-95.15-65l-.53-38C1400.29,887.66,1442.65,926.34,1469.53,946.7Zm19.06,53.55c48.18,24.74,89,36.43,115.35,41.91-1.38,5-2.82,10.24-4.27,15.5l-128.86-36.36C1477,1013.92,1482.94,1006.88,1488.59,1000.25Zm-20,23.65,37.1,10.46-4.56,15.82-43.87-12.67Q1463.08,1030.55,1468.63,1023.9Zm40.07,11.3,90.15,25.44-4.53,16.43-90.18-26Zm93.53,24.79h0c1.62-5.84,3.21-11.65,4.75-17.22l2.31.46c22.35,5.25,37.63,9.41,48.13,13.55L1586.5,1117C1589.26,1107,1595.8,1083.32,1602.23,1060Zm5.87-32.91q-7.06-1.63-14.92-3.39c-23.66-6-56.41-16.76-94.08-35.68,5.88-6.78,11.33-13,16.27-18.45,40.35,16,90.06,30.53,99.4,33.21C1613.85,1006.18,1611.34,1015.3,1608.1,1027.08Zm-74.44-96.74a46.25,46.25,0,0,0-6.21,4.83l-47.84-8.9-21.92-38.13a1.55,1.55,0,0,0-1-.74l-37.91-8.91a1.56,1.56,0,0,0-1.32.3l-11.09,8.91a1.55,1.55,0,0,0-.49.78c-8.66-7.81-14.88-13.55-16.56-15.1l-2-143.1,10.91-61.83H1410l132.52,1.73c7.59,33.58,16.24,71.75,26,114.91,6,26.45,10,43.92,10.47,46.22,1.94,8.9,17.42,53.42,23.67,71.27C1573.34,912.59,1546,922.91,1533.66,930.34Zm-29.93-462.89c7.16.11,14.49.21,21.91.3,15,.19,26.88.34,31.32.65q.4,0,.9,0c17.77,0,119.73-27.5,148.85-35.46l31.73,138.19c0,.15.09.28.13.42s0,.19.06.28l46.47,140.19-214.67,53.2C1548.66,669.3,1508,489.74,1503.73,467.45Zm138.18-23.65c-38.34,9.86-76.76,19-84.51,18.44-4.62-.33-16.56-.48-31.68-.66-6.62-.09-14.29-.18-22.45-.31-.58-19.5-3.55-100.51-4.47-125.53l94-24.26,26,9.47,23.08,70.78ZM1541.86,667.09l-130.48-1.71-4.74-30.64a1.5,1.5,0,0,0-.6-1l-12.39-9.25-4.07-66.83a1.53,1.53,0,0,0-.4-.95l-31-33.61-21-58.22c-.32-1.07-11-36.44-24.16-81.2l1.42-.37c19.78,16.62,85.24,71.4,96.63,77.61,7.74,4.22,43.29,5.67,86.41,6.42C1499.56,478.92,1512.86,538.81,1541.86,667.09ZM1405,344c10-19,19.94-52,24.64-68.72l55.14,48.13Zm-99.32,25.63-12,3.09-92.89,10.7c-.8-12.53-2.47-38.17-4.47-66.9l89.26-15.76C1292.12,323.42,1299.09,347.29,1305.67,369.63Zm-48.59-267.52-.58-3.53,61.83,1.55,47.74,25.69-18.34,33.12-14.8-4.58,4.25-12.84a1.54,1.54,0,1,0-2.93-1l-4.27,12.9-74.23-23c.21-16.55,1.32-27.69,1.34-27.94A1.42,1.42,0,0,0,1257.08,102.11Zm93.67,57.76,18-32.59,9.71,5.23v36l-7.12-2.21-.07,0Zm20.13,41.56h-20.41V163l18.86,5.84Zm-73.49-54.84v11.85h-41c-.51-8.91-.67-17.31-.63-24.76Zm97.4,54.84V176.74l20.61,6.39,2,18.3Zm-3-25.62a1.44,1.44,0,0,0-.07.36v25.26H1374l-1.5-31.6ZM1378.5,129l-58.31-31.38L1318,77.32l57.57-8.48,2.89,11.47Zm-60.79-54.75-2.21-20.83,53.1-12.36,6.25,24.77ZM1317,97l-61-1.52-4.46-27.18,60.93-14.18Zm-64.17-1.6-71.92-1.8c-.16-6-.32-12.13-.46-18.22l68-6.39ZM1296,388a7.34,7.34,0,0,0,1-.2l13-3.35c11.77,39.89,21.5,72.35,23.73,79.77l-55.93,12.92a1.55,1.55,0,0,0-1.19,1.51v72h-53.16a1.56,1.56,0,0,0-.88.28l-63.56,44.22-3.22-6.06A459.5,459.5,0,0,1,1117,489.42c-8.87-39-9.42-63.27-1.7-74.18,3.38-4.77,8.79-7.44,17-8.39ZM1118.33,543.87,1090,552.68l-37.44-100q12.45-2.85,22,.71c15.76,5.91,23.68,24.93,27.55,39.85A470.62,470.62,0,0,0,1118.33,543.87Zm-23.51-95.75a45.84,45.84,0,0,0-14.91-9.24,47.86,47.86,0,0,0-18.5-2.88L1094,411.26l6.18-.71C1095.58,419.48,1093.79,431.7,1094.82,448.12Zm-135,45.53L931.41,463c25.39-17.38,45.35-31.28,46.09-32.56,1.17-2,5.12-14.05,7.72-22.15,22.58,1.25,52.82,1.58,77.82,1.58h7.34Zm15.12-65c-1.42,1.52-20.41,14.71-45.68,32L879.77,407.2l-3.31-18.52c31,7.31,69.58,15.81,90.86,18.17,4.24.47,9.22.87,14.72,1.21C979.05,417.34,975.74,427.28,975,428.66Zm-98.15-20.47a1.49,1.49,0,0,0,.39.78l10.72,11.58-30.86,12.22-21.9-54.16c7.54,1.9,21.53,5.38,38,9.3Zm-22.62,25.72-62.67,24.81-3.12-5L802.86,393l28.78-14.91Zm36-10.93,36.53,39.43C899.56,481,865.84,503.78,838.81,522l-22.23-18.23.12-2.32a7.73,7.73,0,0,0-1.17-4.49L793.2,461.38Zm-73.78,84.61,21.35,17.52h0L877,556.47l-65.5,49.68Zm91.05,45.19-4.21,56.36c-5.05,6.27-71.13,88.17-88.15,102.82-11,9.51-62.53,1.34-102.12-7.32a1.52,1.52,0,0,0-.63-.21c-.07,0-.13,0-.19,0-2.81-.62-5.56-1.24-8.22-1.85l9.13-3a7.59,7.59,0,0,0,2.31-1.2ZM710.56,707.22,708,739.68l-84.09,9.83-5.57-18.62c35.46-11.9,63.85-21.2,80-26.46C701.81,705.25,706,706.2,710.56,707.22Zm-89.28,44.42a1.53,1.53,0,0,0,1.48,1.1h.18l84.76-9.91L703.36,797l-84.93,11-35.82-65c11.42-3.89,22.38-7.59,32.76-11.07Zm15.05,95.24,1.54,26-74.32,29.81L499.08,771.8c28.12-9.89,55.41-19.29,80.55-27.84ZM517.24,815.66l-51.37,17.62-14.75-44.45c15.1-5.43,30.17-10.78,45-16Zm-53.81,20.09h0L469,852.4,390.4,878.88l-18.2-61c24.77-9.37,50.42-18.79,76-28Zm-69.16,66.88-97.49,31c-4.71-14.4-14.86-41-28-74.38,29.52-12.72,64-26.42,100.5-40.26Zm-212.93,62c19.91-8.82,35.88-16,48.68-21.73l14.25,43.79-47.43,22Zm22.4,72.93-16.76,6-9.25-22.42,17.33-8.2ZM194,1009.93l-18.95,9a1.55,1.55,0,0,0-.76,2L184.69,1046a1.55,1.55,0,0,0,1.43,1,1.63,1.63,0,0,0,.52-.09l18.13-6.47,12.44,35.35-49.61,17.76-25.29-68.89-13.53-36.87c18.78-8.26,35.27-15.53,49.73-21.93Zm3.84,1.61,47.37-21.94,9.12,28c-1.19,1-2.37,2-3.62,3-15,12-23.14,27.87-25.33,52.17l-5.29,1.89Zm50.19-23.25,36.21-16.77c-3.24,15.57-12.47,30.4-27.39,43.89Zm-1-3-14.23-43.76c24.87-11.24,37.16-17.09,43.21-20.26,4.48,12.17,7.54,21.12,8.25,24.64a63.7,63.7,0,0,1,.58,21.87Zm28-66.79c-7.1,3.62-22.53,10.75-43.16,20.07l-17.88-55q19.4-8.71,39.36-17.64l1.27-.57C262.35,885.1,269.62,903.89,275.05,918.54Zm-28-66.62c-22.35,10-44.29,19.84-65.45,29.4l-9.14-25.27a1.53,1.53,0,0,0-1.85-1l-13.8,3.67-58.32-137,53.13-27q7.86,6.24,18.51,14.57c12.58,9.85,29.55,23.12,33.54,27.1,1.56,4.74,6.5,17.22,22.13,56.39,6.77,17,15,37.64,23.16,58.28Zm-35.89,33,17.88,54.94c-14.26,6.43-30.83,13.81-48.76,21.76l-19.06-54.15C177.36,900.19,194.06,892.64,211.18,884.94Zm-33.71,78c-15.8,7-32.6,14.41-49.76,22l-19.53-53.22c15.86-7.25,32.69-14.91,50.23-22.87Zm-38.6,61.31-25.42,8.9-13-32.91,17-7.44L126,989Zm-27.75,11.42a1.55,1.55,0,0,0,1.44,1,1.51,1.51,0,0,0,.51-.08l26.86-9.41,8.59,23.41-25.07,10.76a1.55,1.55,0,0,0,.61,3,1.49,1.49,0,0,0,.61-.13l24.92-10.69,15.1,41.14-60.06,21.49a1.67,1.67,0,0,0-.06-.38L65.8,1015.37l31.83-13.93Zm195.72,92.7-12.1-42.48,13.48-6.82L321,1120.6Zm33.89-18.53-17,9.29-12.6-41.1a1.41,1.41,0,0,0-.19-.34l14.15-7.15Zm-48.18-26.31c-3.11,0-24.08.11-52.27,8.48-.82-31.24,5.79-47.78,20.11-59.24,34.44-27.55,41.87-56.37,40.53-78.54l16.95,3,28.62,99Zm79.22-39.5-.07,0h-.05l-22.35,10.8-14.53-50.29,55.88-15.5,14.84,42.11ZM398,1066.23a1.54,1.54,0,0,0-.43-1.8l-22.27-18.49,45.87-17.45,24,106.76-36.33,8.92-36.57-18.65ZM347.1,1183.66l24-55.3,35.55,18.13-25.2,50.84Zm60.73,55.83-3.65-32.23a1.55,1.55,0,0,0-1-1.26l-18.89-7.53,25.45-51.34,36.13-8.87,21,93.49Zm253.36-63a1.4,1.4,0,0,0-.35.1l-54.47,22.26a1.38,1.38,0,0,0-.09-.53l-10-25.76a1.55,1.55,0,0,0-1.67-1l-43.14,6.57-11-75.48,13.39-9.82a1.54,1.54,0,0,0,.57-1.69L545,1060.07a1.56,1.56,0,0,0-1.93-1,1.54,1.54,0,0,0-1,1.93l9.12,30.07-13.27,9.73a1.53,1.53,0,0,0-.61,1.47l11.31,77.93a1.55,1.55,0,0,0,1.76,1.31l43.45-6.61,9.58,24.6a1.57,1.57,0,0,0,.38.47l-126.09,51.52L427.1,1026.54l104.35-11.94a1.3,1.3,0,0,0,.43-.11l20.49-8.62,23.15,36.52-11.38,11.38a1.55,1.55,0,0,0-.17,2l18.87,26.33a1.53,1.53,0,0,0,1.25.64,1.64,1.64,0,0,0,.68-.15l55.3-27.1,28.87,1,4.37,7.07h0l13.38,21.12-25.2,18.53-11.81-15.31a1.55,1.55,0,0,0-2.45,1.89L659,1105l-13.59,10a1.53,1.53,0,0,0-.63,1.24v23.92a1.52,1.52,0,0,0,.38,1l29.13,33.34Zm16.73-2.55-30-34.39V1117l41.48-30.5,16.77-2.09,32.43,32.86L776.24,1159Zm176.38,71.08-19.36,22.4-41.41-47.28-32.76-28.56-11.5-25.41,30.27-4.62s.06,0,.09,0a1.39,1.39,0,0,0,.62-.28l.06,0,0,0,12.8-10.84,21.66,30.44Zm-13.5-27.84L818,1180.1l22.6-26.38,7.32,8.79h0s0,0,0,0L871.25,1189Zm32.71-30.33-22.15-25.12,15.8-11.69,21.25,23Zm16.5-16.63-20.35-22,26.28-19.46,4.33,13.75Zm51,11.39-9.82,11.78-38.71-21,10.58-28.59,38.8-10.11,7.4,9.22Zm92.13,98.45-53.51-55.35-7.43-22.6a1.56,1.56,0,0,0-1.06-1l-21.9-6.09-5.19-12.84,8.39-39.33a1.58,1.58,0,0,0-.31-1.29L943.66,1131a1.55,1.55,0,0,0-1.59-.53l-39.13,10.2-4.37-13.88,45-33.28,23.11-22.24L1100.46,1216Zm69.54-66.26-37.5-40.54,42.08-35.63,31.17,42.11Zm37.9-36.34L1110,1136.12l54.86-21.39,15.11,17.11-22.34,25.92h0Zm85.42,70.29L1214.24,1219a1.55,1.55,0,0,0-.68-.77l-70.64-38.75,16.07-18.63,82.36,66.66Zm17.2-22.7L1161,1158.54,1182.2,1134l81.58,64Zm22.43-29.6-80.19-62.89,48.11-11.59,58.64,39.43Zm27.12,21.27-24.69-19.37,26.69-35.23,27,18.15Q1307.36,1198.38,1292.77,1216.75Zm30.93-38.87-89-59.83a1.57,1.57,0,0,0-1.23-.22l-51,12.28-14.35-16.25,69.46-15.29a1.55,1.55,0,0,0,1.16-1.91l-17.16-63.76a1.54,1.54,0,0,0-1.89-1.09l-68.48,18.39-7.89-24.88,49.07-15.51h0l.11,0,20.79-8.65a1.55,1.55,0,0,0,.93-1.67l-5.94-38s0,0,0-.06,0,0,0-.07l-3-11.88a1.54,1.54,0,1,0-3,.75l2.59,10.38-76.16,18.93-4.71-14.83,21.08-24.42,88.64-24,8.94,24.13a1.49,1.49,0,0,0,.39.59l98.6,93,6.54,73a1.54,1.54,0,0,0,.6,1.08l19,14.76C1353.5,1140.58,1338.71,1159.07,1323.7,1177.88Zm103-18.35-21.57,38.39-2.46,4.48-56.2-28.23c14.47-18.11,29.71-37.09,45-56.07l41.72,3.23Zm-32.84-44.35c20.91-25.87,41.91-51.64,61.33-75.07l46.65,13.46h0l91.7,26.47c-5.63,20.41-10.36,37.55-11.19,40.54l-9.94,8.45Zm177.08,66.16-18.31-29,32.14-29.78h0l75.89-64.48c6.83,3,11.33,6,14.34,9.46,8.71,10,53.79,59.47,71.26,78.63l-101.85,102.54Zm104.57,95.93-28.82-26.45,20.29-20.43,29.46,24.31Zm23-24.84-29.38-24.24,19.56-19.7,35.44,16.31Zm-7.5-46.27,57.3-57.69,4.22,4.63c1.66,2.85,7.15,12.22,14.78,25.16l-24.39,51.79Zm83.69-45.78c-3.31-5.63-6.42-10.94-9.25-15.78a8.16,8.16,0,0,0-1-1.31c-.12-.12-2.08-2.27-5.29-5.79l.43-.43,20.81,8.45Zm8.6-13.7,21.41,8.69c0,.06-.07.1-.09.16l-12.92,33.67c-5.25-8.86-10.31-17.44-15-25.42Zm13.8,108.3-51.37-23.64,23.47-49.87c9.43,16,21.68,36.64,34,57.07Q1800.19,1246.58,1797.1,1255Zm13-35c-5.49-9.17-11-18.41-16.34-27.42l13.79-36a.5.5,0,0,0,0-.12l23.09,9.37C1825.42,1179.05,1818.3,1197.87,1810.05,1220Zm64.38,50.25-44.72-17.67c-3.08-5.06-6.25-10.29-9.47-15.63,4.48-12.13,8.68-23.4,12.46-33.5l58.6,25.65Zm18-44-58.68-25.69c4.32-11.51,8-21.32,11-28.91l60.06,24.37Zm24.59-60-11,26.91-29.77-12.08a1.58,1.58,0,0,0,.42-.47l12.92-27.23Zm-29.59-15.58h0l-13.58,28.61a1.51,1.51,0,0,0-.12.78l-27.84-11.3c2.91-7.39,4.93-12.24,5.8-13.82,2-2.87,6.82-12.78,13.2-26.45l27,12.73Zm17.92-35.94a1.48,1.48,0,0,0-1.26.85l-10.86,22.86-27-12.75c3.2-6.88,6.73-14.6,10.44-22.79ZM1839.15,1146c-1,1.26-3.56,7.35-7.4,17L1762,1134.7l87.61-88.2a177.14,177.14,0,0,1,34.88,1.1C1864.94,1091.72,1842.78,1140.79,1839.15,1146Zm76.68-170.6c-.69,1.83-1.28,3.36-1.77,4.5-3.55,8.45-12.52,29.06-23.09,53a186.5,186.5,0,0,0-43.19-1.82C1882.77,1017.73,1902.05,997.37,1915.83,975.4Zm-87.15,73.83a161.9,161.9,0,0,1,16.18-2.35l-86,86.56-5.37-2.18c-19.54-21.43-59-64.78-66.89-73.83a42.7,42.7,0,0,0-8.44-7.36C1729.86,1053,1801,1054.77,1828.68,1049.23Zm-48.31-165.34-70.59,96.17a1.37,1.37,0,0,0-.23.47l-16.56,54.9c-26.79-1.3-50.51-3-63.62-4.64-3.55-.43-9.82-1.33-18.26-3,3.94-14.33,6.81-24.76,7-25.7.34-1.36,2-19.05,1.55-39.71l79.74-74.17c7.52-2.24,12.1-3.57,12.35-3.64a7.73,7.73,0,0,0,3.84-2.55L1743,848.44Zm-75.2-13.5c-10.83,3.17-54.93,16.19-96.58,30.2-6.19-17.65-21.65-62.12-23.5-70.59-.5-2.33-4.47-19.81-10.47-46.27-.89-3.93-1.84-8.1-2.83-12.45l215.26-53.34,12.22,36.87ZM1908,542l-98.58,194.39L1756,575.15ZM1768.46,348.57C1783.53,362.7,1870.93,469.29,1887,489l-12.51,44.53-122.73,26.78-57.86-252C1718.77,319.57,1757.66,338.44,1768.46,348.57ZM1705.33,427c-15.65,4.28-37.82,10.24-60.33,16.05V391.49a1.31,1.31,0,0,0-.08-.48l-22.41-68.72,64.15,23.34ZM1442.05,10.24l99.63,7.62,15.45,43.71-58.37,4a1,1,0,0,0-.33.06l-56.38,16.75Zm0,75.36,57.09-17,59.06-4,5.14,14.56-121.29,59.3Zm0,56.29,122.33-59.81,5.5,15.56.1.24c2.38,6.46,15.15,31.24,31.32,61.78l-128.56,64.08a1.55,1.55,0,0,0,1.38,2.77l128.63-64.12c25.33,47.79,58.29,108.43,72.89,135.23l6.91,30.08-86.72-31.55a7.75,7.75,0,0,0-4.57-.22L1492,321.54l-61.11-53.35-5.53-50.58L1459,200.88a1.54,1.54,0,0,0,.77-1.86l-17.73-53.82ZM1439,10V140.3a1.5,1.5,0,0,0-.06,1.41s0,0,.06.06v3.68a1.34,1.34,0,0,0,.08.48l17.39,52.78L1425,214.34,1405.84,38.68a1.31,1.31,0,0,0,.27.12l19.94,4.45V61l-15.83-1.7a1.54,1.54,0,1,0-.33,3.07l17.54,1.89h.16a1.51,1.51,0,0,0,1-.4,1.53,1.53,0,0,0,.52-1.15V42a1.54,1.54,0,0,0-1.21-1.51l-21.15-4.72a1.52,1.52,0,0,0-1.23.27L1402.4,7.21Zm-34,77.88-23.41-4.71V80.11a1.65,1.65,0,0,0,0-.38l-9.93-39.37,27.5-6.4Zm-8.79-80.44,2.56,23.42-27.92,6.5-6.24-24.75Zm-34.66,5.67,6.29,25-52.67,12.26-3.1-29.12ZM1309,21.71,1312.14,51,1251,65.26l-5.44-33.18Zm-66.48,10.87L1248,66l-67.62,6.33c-.23-10-.44-19.87-.64-29.44Zm-65,136.14h-49.92l-3.43-24.32,52.13-1.77C1176.67,152.33,1177.08,161.17,1177.51,168.72Zm-3.64-111L1169,43.53h4.56C1173.67,48.18,1173.76,52.9,1173.87,57.67ZM1172.81,2c.19,11.45.42,24.58.7,38.51H1168l-13-37.8Zm-73.13,2.91,52.07-2.07,12.94,37.67h-66.88ZM1031,75.34c11.39-7.88,40.18-29,44-31.79h21.21l69.55,0,8.35,24.31c.56,24.8,1.26,50.18,2.07,71.7l-53.83,1.83a1.55,1.55,0,0,0-1.48,1.76l3.86,27.35a1.55,1.55,0,0,0,1.53,1.33h51.44c.57,9.36,1.19,16.42,1.84,20.2,4.1,23.54,13,158.55,15.13,192.12L1108.59,394c-3.21,0-26.92.39-54.77.3V327.59a1.71,1.71,0,0,0-.1-.54L970.2,99.56C978.77,96.76,1019.8,83.12,1031,75.34ZM787.94,184.56c7.2-7.19,23.08-36.86,25.46-41.34l122-45,31.67,1.81,83.63,227.79v66.47c-29.7-.14-63.33-.79-81.7-2.83-33.23-3.69-113.5-23.68-132-28.35L797,256.88a7.72,7.72,0,0,0-1.76-2.74l-44.9-44.89C762.64,202,782.67,189.83,787.94,184.56ZM369.46,140.79l4.32-99.31,68.68,18.08a1.75,1.75,0,0,0,.4,0,1.54,1.54,0,0,0,1.51-1.24l7.11-34.79,60.83,15.7-3.46,18.51c-10,15.25-17.78,27.1-20.71,31.78l-88.62,58.88ZM479.27,114c-5.46,16.54-14.39,43.53-23.9,70.68L402.53,165Zm-79.92,53.1,55,20.49c-13.39,38.07-27.67,75.64-34.82,84.13a59.51,59.51,0,0,1-6.86,6.74l-54.74-34.57-4.5-23.54h0l-3.85-20.17Zm10.81,113.43c-20.68,16.45-57.83,33.35-69.26,36.86-1.47.46-5.55,2.52-11.67,5.87-11.78.1-27.58,1.46-41.61,2.81,14.54-10.8,32.09-39.14,33.7-41.76l35.47-37.49Zm-55.37-36.64-35.74,14.79-5.54-9.09,37.35-26.27ZM306,152.23l-18.68-2.74L272.83,99.06l13.52-4.5ZM264.24,30l9.93,17.45a7.71,7.71,0,0,0-1.34,7.36l12.53,36.82L272,96.09l-3.55-12.34a1.52,1.52,0,0,0-1.31-1.1l-15.37-1.77L234.08,55.63ZM231.71,57.64l17.91,25.59a1.53,1.53,0,0,0,1.09.64l15,1.73,18.87,65.7a1.54,1.54,0,0,0,1.26,1.1l21.23,3.12L322.23,200c-5.83,4-16.85,11.22-31.2,19.61l-29.35-4.81a1.58,1.58,0,0,0,0-.72l-23-106.54a1.55,1.55,0,0,0-1.92-1.17l-36.36,10-9.67-23.84Zm14.84,100.83,12.05,55.78-55-9L195.46,170ZM194.77,167l-10-43.21,51.2-14,9.88,45.72Zm9,41.4L286.83,222c-23.12,13.25-53.82,28.7-85.39,38.51ZM160.84,49.29l16.06,4.05,2.24,44.18-43.2,4.68L126.76,62ZM123.7,62.47l9.15,40.07-67,7.26,2.27-52.32ZM61.13,6.89l16,3.35L65.45,54.15,52.28,53ZM20.33,70.6l30.4-14.67L65,57.21l-2.27,52.34L17,97.63ZM3,140.62l4-42.41,28.88,7.52-4.88,40.41Zm52,66.6,4.69-52.64,41.07-2.09,8.38,53.92Zm48.6-56.58a1.57,1.57,0,0,0-1.6-1.31l-43.62,2.22L34,146.74l4.87-40.22,25,6.5.26,0,.06,0h.24l116.57-12.62s0,0,.08,0a1.47,1.47,0,0,0,.65-.28l.1,0,6.51-5.53,9.15,22.55-14.84,4.07a1.55,1.55,0,0,0-1.1,1.84l18.88,82-88.12,1.31Zm50,119.42a227.7,227.7,0,0,1-31.47-.34l-9.37-60.28,88-1.33-2.38,53.38C183.3,266,168.14,269.1,153.56,270.06ZM196.79,278c69.1-18.86,134.77-65.6,139-68.66l11-7.3,3.43,18L310.55,247.9a1.54,1.54,0,0,0-.43,2.07l7,11.44A1.54,1.54,0,0,0,319,262l31.44-13L319,282.31a1.5,1.5,0,0,0-.19.25c-.25.4-24.46,39.91-38.81,44.26l-.6.05-2.22.22v-28.5a1.54,1.54,0,0,0-1.18-1.5Zm46.26,14.34,31,7.48v27.58c-5.95.58-10.94,1-13.92,1.17-4.17.19-12.72-1.21-22.49-3.2ZM48.36,454.55,52,437.94a1.49,1.49,0,0,0-.08-.91L32.48,389.15l1.29-32,111.45-43.38,43.42,3.05c3.9,1,58.14,15.45,71.64,14.85,3.92-.18,11.09-.89,19.39-1.7,12.92-1.27,30.09-2.95,43.71-3.46-50.11,28-191.51,113-262.29,155.63Zm19.25,41.68c115.78-69.81,266.89-160,277.83-164.08,13.64-4.19,67.09-28.14,85.9-50.48,12.76-15.15,39-91.46,63-164.12,3-9.19,5.69-17.2,6.4-19.08,1.64-2.74,11.4-17.65,24.93-38.16L642.62,70.79l44,95.87a7.64,7.64,0,0,0,1.56,2.24l95,95,38.47,102.06-29,15a7.69,7.69,0,0,0-4,5.07l-16,67.31a7.72,7.72,0,0,0,1,5.89l27.55,43.88-5.71,115.23-88.36,67c-21,6.77-294.89,95.34-443.94,159.53-7.09-18-14.85-37.45-23-57.81-10.31-25.85-20.08-50.35-21.77-55.31-.22-4.14-3.07-6.72-38.72-34.63C165.09,685.72,147,671.52,143.85,668c-4-4.6-13.79-30-20.9-51.79-.1-.29-.21-.57-.33-.85ZM13.41,704.76l30.06-15.38a1.48,1.48,0,0,0,.71-.75L63,645.91a1.36,1.36,0,0,0,.12-.39l3.63-24.28L102.22,608l6.18,13.4c2.9,8.84,15.86,47.63,23.83,56.74,2.28,2.61,8,7.43,16.76,14.46l-53.17,27a1.54,1.54,0,0,0-.72,2l44,103.42L74.46,850.12ZM75.66,853l64.68-25.09,13.55,31.85L89.05,884.86Zm14.59,34.74,66.16-25.65,13.65-3.62,8.74,24.15c-27,12.19-52.61,23.85-76.17,34.6Zm-45.56,73c17.78-8.19,38.23-17.58,60.67-27.83l19.52,53.18c-20,8.78-40.37,17.71-60.19,26.38ZM3.28,1042.62c17.2-7.48,37.72-16.42,59.69-26l38.72,100.2c0,.1.13.15.19.24l-65.75,23.53Zm33.83,100.87,47.55-17a1.19,1.19,0,0,0,0,.32l9.83,25.3L46.67,1172Z"/></g></g></svg>