<svg xmlns="http://www.w3.org/2000/svg" viewBox="0 0 161.47 103.46"><defs><style>.cls-1{fill:#fff;}</style></defs><title>one_hackathon_logo</title><g id="Layer_2" data-name="Layer 2"><g id="Layer_1-2" data-name="Layer 1"><path class="cls-1" d="M0,15.05C0,5.41,5.51,0,13.62,0s13.6,5.45,13.6,15.05-5.5,15.31-13.6,15.31S0,24.68,0,15.05Zm19.28,0c0-5.32-2.16-8.38-5.67-8.38S7.94,9.73,7.94,15.05s2.16,8.64,5.68,8.64S19.29,20.36,19.29,15.05Z"/><path class="cls-1" d="M29.81.54h7.93L44.22,13.6,47,20.18h.18A105.23,105.23,0,0,1,46.21,9V.54h7.38V29.82H45.67L39.18,16.71l-2.79-6.53h-.18a109.65,109.65,0,0,1,1,11.17v8.47H29.81Z"/><path class="cls-1" d="M56.88.54H75.8V7H64.63v4.59h9.55v6.49H64.63v5.22H76.25v6.49H56.88Z"/><path class="cls-1" d="M0,36.82H7.75v10.9h8.74V36.82h7.74V66.1H16.49V54.48H7.75V66.1H0Z"/><path class="cls-1" d="M35.53,36.82H44.9L53.82,66.1h-8.2L42.29,51.87c-.72-2.8-1.44-6.35-2.17-9.28H40c-.64,3-1.36,6.48-2.08,9.28L34.54,66.1H26.61Z"/><path class="cls-1" d="M53.1,51.69c0-9.82,6.75-15.41,14.14-15.41a12.9,12.9,0,0,1,9.1,3.88l-4.06,5A7.14,7.14,0,0,0,67.42,43C64,43,61,46.1,61,51.42,61,56.91,63.55,60,67.33,60a7.34,7.34,0,0,0,5.32-2.52l4,4.87a12.36,12.36,0,0,1-9.64,4.32C59.58,66.64,53.1,61.69,53.1,51.69Z"/><path class="cls-1" d="M79,36.82H86.7v10.9h.18l7.38-10.9h8.47L94,48.71,104.44,66.1H96L89.49,54.84l-2.79,4v7.3H79Z"/><path class="cls-1" d="M128.46,36.82h9.37l8.92,29.28h-8.2l-3.33-14.23c-.72-2.8-1.44-6.35-2.16-9.28h-.18c-.63,3-1.35,6.48-2.07,9.28L127.47,66.1h-7.92Z"/><path class="cls-1" d="M7.75,80.13H0V73.64H23.24v6.49H15.49v22.79H7.75Z"/><path class="cls-1" d="M25.76,73.64h7.75v10.9h8.74V73.64H50v29.28H42.25V91.3H33.51v11.62H25.76Z"/><path class="cls-1" d="M53.42,88.15c0-9.64,5.49-15.05,13.6-15.05s13.6,5.45,13.6,15.05S75.13,103.46,67,103.46,53.42,97.79,53.42,88.15Zm19.27,0c0-5.32-2.16-8.38-5.67-8.38s-5.68,3.06-5.68,8.38S63.51,96.8,67,96.8,72.69,93.46,72.69,88.15Z"/><path class="cls-1" d="M84,73.64H92l6.48,13.07,2.8,6.57h.18a105,105,0,0,1-1-11.17V73.64h7.38v29.28H99.9L93.41,89.81l-2.79-6.53h-.18a109.9,109.9,0,0,1,1,11.17v8.47H84Z"/><rect class="cls-1" x="104.83" y="48.47" width="14.32" height="5.99"/><rect class="cls-1" x="147.14" y="48.47" width="14.32" height="5.99"/></g></g></svg>