<svg id="Layer_1" enable-background="new 0 0 512 512" height="512" viewBox="0 0 512 512" width="512" xmlns="http://www.w3.org/2000/svg"><g><g><path clip-rule="evenodd" d="m51.746 155.35h418.115v-47.966c0-17.41-14.251-31.666-31.655-31.666h-354.776c-17.434 0-31.684 14.255-31.684 31.666z" fill="#ffdb4e" fill-rule="evenodd"/></g><g><path clip-rule="evenodd" d="m83.43 436.282h354.776c17.404 0 31.655-14.255 31.655-31.695v-44.344l-124.868-.058c-27.421.906-32.268-8.734-40.766-21.617l-12.586-19.134c-8.556-13.029-13.608-21.471-30.458-21.471h-10.367c-16.85 0-21.902 8.471-30.487 21.471l-12.586 19.134c-8.469 12.882-13.345 22.522-40.766 21.617l-115.231.058v44.344c0 17.439 14.251 31.695 31.684 31.695z" fill="#ffdb4e" fill-rule="evenodd"/></g><g><path clip-rule="evenodd" d="m344.993 370.496 124.868.029 17.404.029c13.462 0 24.501-10.925 24.734-24.334v-.409-176.03-.409c-.234-13.408-11.272-24.334-24.734-24.334h-17.404-418.115-27.041c-13.579 0-24.705 11.13-24.705 24.743v176.031c0 13.613 11.126 24.743 24.705 24.743l27.041-.029 115.231-.029c27.421.906 32.297-8.734 40.766-21.617l12.586-19.134c8.585-13.029 13.637-21.471 30.487-21.471h10.367c16.85 0 21.902 8.442 30.458 21.471l12.586 19.134c8.498 12.882 13.346 22.522 40.766 21.616z" fill="#808b95" fill-rule="evenodd"/></g><g><path clip-rule="evenodd" d="m486.039 169.781v176.031l-.029.409c-.146 10.399-6.862 19.309-16.149 22.785-2.453.906-5.081 1.461-7.826 1.519h7.826l17.404.029c13.462 0 24.501-10.925 24.734-24.334v-.409-176.03-.409c-.234-13.408-11.272-24.334-24.734-24.334h-17.404-8.556c3.008 0 5.899.555 8.556 1.548 9.286 3.447 16.003 12.357 16.149 22.785z" fill="#566b74" fill-rule="evenodd"/></g><g><path clip-rule="evenodd" d="m406.434 107.384v37.654h54.871 8.556v-37.654c0-17.41-14.251-31.666-31.655-31.666h-63.456c17.434 0 31.684 14.256 31.684 31.666z" fill="#ffaf5d" fill-rule="evenodd"/></g><g><path clip-rule="evenodd" d="m406.434 370.526v34.061c0 17.44-14.251 31.695-31.684 31.695h63.456c17.404 0 31.655-14.255 31.655-31.695v-34.061h-7.826z" fill="#ffaf5d" fill-rule="evenodd"/></g><g><path clip-rule="evenodd" d="m176.147 279.063v-79.924c0-4.236-4.263-7.741-9.461-7.741h-114.94-.204c-5.198 0-9.432 3.505-9.432 7.741v76.886c40.795 33.769 111.113 46.739 134.037 3.038z" fill="#b1d7fe" fill-rule="evenodd"/></g><g><path clip-rule="evenodd" d="m131.234 292.968h44.913v-13.905l-21.551-32.747c-6.57-9.99-17.638-9.99-24.209 0l-14.922 22.698z" fill="#ccf49f" fill-rule="evenodd"/></g><g><path clip-rule="evenodd" d="m83.635 305.47 47.599-12.503-15.769-23.954-24.588-37.391c-5.315-8.092-14.251-8.092-19.565 0l-19.566 29.738-9.637 14.664v16.943z" fill="#ccf49f" fill-rule="evenodd"/></g><g><path clip-rule="evenodd" d="m51.746 324.166h114.939c5.198 0 9.461-3.476 9.461-7.712v-23.486h-44.913-79.487-9.637v23.486c0 4.236 4.264 7.712 9.432 7.712z" fill="#f6f9f9" fill-rule="evenodd"/></g><g><path clip-rule="evenodd" d="m88.395 262.996c0 10.341-.701 20.39-2.015 29.971h44.854l-15.769-23.954-24.588-37.391c-1.577-2.395-3.475-4.09-5.49-5.054 1.956 11.51 3.008 23.75 3.008 36.428z" fill="#b3e59f" fill-rule="evenodd"/></g><g><path clip-rule="evenodd" d="m131.614 191.398c6.162 13.7 10.717 29.913 13.141 47.645 3.621.701 7.125 3.155 9.841 7.274l21.551 32.747v-79.924c0-4.236-4.263-7.741-9.461-7.741h-35.072z" fill="#8bc6f8" fill-rule="evenodd"/></g><g><path clip-rule="evenodd" d="m146.77 269.014c0 8.209-.438 16.213-1.256 23.954h30.633v-13.905l-21.551-32.747c-2.716-4.119-6.22-6.573-9.841-7.274 1.314 9.582 2.015 19.631 2.015 29.972z" fill="#b3e59f" fill-rule="evenodd"/></g><g><path clip-rule="evenodd" d="m145.514 292.968c-1.197 11.013-3.212 21.5-5.899 31.198h27.07c5.198 0 9.461-3.476 9.461-7.712v-23.486z" fill="#e7ecf1" fill-rule="evenodd"/></g><g><path clip-rule="evenodd" d="m345.49 261.36 19.565-29.738c5.315-8.092 14.251-8.092 19.565 0l24.588 37.391 14.922-22.698c6.57-9.99 17.638-9.99 24.208 0l21.522 32.747v-79.924c0-4.236-4.234-7.741-9.432-7.741h-114.938-.204c-5.198 0-9.432 3.505-9.432 7.741v76.886z" fill="#b1d7fe" fill-rule="evenodd"/></g><g><path clip-rule="evenodd" d="m425.357 191.398c6.162 13.7 10.717 29.913 13.141 47.645 3.621.701 7.125 3.155 9.841 7.274l21.522 32.747v-79.924c0-4.236-4.234-7.741-9.432-7.741h-35.072z" fill="#8bc6f8" fill-rule="evenodd"/></g><g><path clip-rule="evenodd" d="m424.949 292.968h44.913v-13.905l-21.522-32.747c-6.57-9.99-17.638-9.99-24.208 0l-14.922 22.698z" fill="#ccf49f" fill-rule="evenodd"/></g><g><path clip-rule="evenodd" d="m345.49 292.968h79.459l-15.74-23.954-24.588-37.391c-5.315-8.092-14.251-8.092-19.565 0l-19.566 29.737-9.637 14.664v16.943h9.637z" fill="#ccf49f" fill-rule="evenodd"/></g><g><path clip-rule="evenodd" d="m345.49 324.166h114.939c5.198 0 9.432-3.476 9.432-7.712v-23.486h-44.913-79.458-9.637v23.486c0 4.236 4.234 7.712 9.432 7.712z" fill="#f6f9f9" fill-rule="evenodd"/></g><g><path clip-rule="evenodd" d="m382.138 262.996c0 10.341-.701 20.39-2.015 29.971h44.825l-15.74-23.954-24.588-37.391c-1.577-2.395-3.475-4.09-5.49-5.054 1.957 11.51 3.008 23.75 3.008 36.428z" fill="#b3e59f" fill-rule="evenodd"/></g><g><path clip-rule="evenodd" d="m440.513 269.014c0 8.209-.438 16.213-1.285 23.954h30.633v-13.905l-21.522-32.747c-2.716-4.119-6.22-6.573-9.841-7.274 1.314 9.582 2.015 19.631 2.015 29.972z" fill="#b3e59f" fill-rule="evenodd"/></g><g><path clip-rule="evenodd" d="m439.228 292.968c-1.168 11.013-3.183 21.5-5.87 31.198h27.07c5.198 0 9.432-3.476 9.432-7.712v-23.486z" fill="#e7ecf1" fill-rule="evenodd"/></g><g fill="#f6f9f9"><path d="m273.156 257.841h-34.313c-4.267 0-7.726 3.459-7.726 7.726s3.459 7.726 7.726 7.726h34.313c4.267 0 7.726-3.459 7.726-7.726s-3.458-7.726-7.726-7.726z"/><path d="m273.156 220.771h-34.313c-4.267 0-7.726 3.459-7.726 7.726s3.459 7.726 7.726 7.726h34.313c4.267 0 7.726-3.459 7.726-7.726s-3.458-7.726-7.726-7.726z"/><path d="m273.156 183.671h-34.313c-4.267 0-7.726 3.459-7.726 7.726s3.459 7.726 7.726 7.726h34.313c4.267 0 7.726-3.459 7.726-7.726s-3.458-7.726-7.726-7.726z"/></g></g></svg>