<?xml version="1.0" encoding="utf-8"?>
<!-- Generator: Adobe Illustrator 23.0.6, SVG Export Plug-In . SVG Version: 6.00 Build 0)  -->
<svg version="1.1" id="Layer_1" xmlns="http://www.w3.org/2000/svg" xmlns:xlink="http://www.w3.org/1999/xlink" x="0px" y="0px"
	 viewBox="0 0 600 600" style="enable-background:new 0 0 600 600;" xml:space="preserve">
<style type="text/css">
	.st0{fill:#282828;}
	.st1{fill:#505050;}
</style>
<rect class="st0" width="600" height="600"/>
<path class="st1" d="M352.9,352.9H247.1c-94.2,0-170.6,76.4-170.6,170.6v0h447v0C523.5,429.3,447.1,352.9,352.9,352.9z"/>
<circle class="st1" cx="295.1" cy="194.8" r="118.3"/>
<g>
	<g>
		<path class="st1" d="M466.5,41.9c0-5.8,3.3-9.1,8.2-9.1s8.2,3.3,8.2,9.1c0,5.8-3.3,9.3-8.2,9.3S466.5,47.8,466.5,41.9z
			 M478.2,41.9c0-3.2-1.3-5.1-3.4-5.1c-2.1,0-3.4,1.9-3.4,5.1c0,3.2,1.3,5.2,3.4,5.2C476.9,47.2,478.2,45.1,478.2,41.9z"/>
		<path class="st1" d="M484.6,33.1h4.8l3.9,7.9l1.7,4h0.1c-0.2-1.9-0.6-4.6-0.6-6.8v-5.1h4.5v17.7h-4.8l-3.9-7.9l-1.7-4h-0.1
			c0.2,2,0.6,4.6,0.6,6.8v5.1h-4.5V33.1z"/>
		<path class="st1" d="M501,33.1h11.4v3.9h-6.8v2.8h5.8v3.9h-5.8v3.2h7v3.9H501V33.1z"/>
		<path class="st1" d="M466.5,55.1h4.7v6.6h5.3v-6.6h4.7v17.7h-4.7v-7h-5.3v7h-4.7V55.1z"/>
		<path class="st1" d="M488,55.1h5.7l5.4,17.7h-5l-2-8.6c-0.4-1.7-0.9-3.8-1.3-5.6h-0.1c-0.4,1.8-0.8,3.9-1.3,5.6l-2,8.6h-4.8
			L488,55.1z"/>
		<path class="st1" d="M498.7,64.1c0-5.9,4.1-9.3,8.6-9.3c2.3,0,4.3,1.1,5.5,2.3l-2.5,3c-0.9-0.8-1.7-1.3-2.9-1.3
			c-2.1,0-3.9,1.9-3.9,5.1c0,3.3,1.5,5.2,3.8,5.2c1.4,0,2.5-0.7,3.2-1.5l2.5,2.9c-1.5,1.7-3.5,2.6-5.8,2.6
			C502.6,73.1,498.7,70.1,498.7,64.1z"/>
		<path class="st1" d="M514.3,55.1h4.7v6.6h0.1l4.5-6.6h5.1l-5.3,7.2l6.3,10.5h-5.1l-3.9-6.8l-1.7,2.4v4.4h-4.7V55.1z"/>
		<path class="st1" d="M544.3,55.1h5.7l5.4,17.7h-5l-2-8.6c-0.4-1.7-0.9-3.8-1.3-5.6h-0.1c-0.4,1.8-0.8,3.9-1.3,5.6l-2,8.6h-4.8
			L544.3,55.1z"/>
		<path class="st1" d="M471.2,81.3h-4.7v-3.9h14.1v3.9h-4.7v13.8h-4.7V81.3z"/>
		<path class="st1" d="M482.1,77.4h4.7V84h5.3v-6.6h4.7v17.7h-4.7v-7h-5.3v7h-4.7V77.4z"/>
		<path class="st1" d="M498.9,86.2c0-5.8,3.3-9.1,8.2-9.1s8.2,3.3,8.2,9.1c0,5.8-3.3,9.3-8.2,9.3S498.9,92,498.9,86.2z M510.5,86.2
			c0-3.2-1.3-5.1-3.4-5.1s-3.4,1.9-3.4,5.1c0,3.2,1.3,5.2,3.4,5.2S510.5,89.4,510.5,86.2z"/>
		<path class="st1" d="M517.4,77.4h4.8l3.9,7.9l1.7,4h0.1c-0.2-1.9-0.6-4.6-0.6-6.8v-5.1h4.5v17.7H527l-3.9-7.9l-1.7-4h-0.1
			c0.2,2,0.6,4.6,0.6,6.8v5.1h-4.5V77.4z"/>
		<rect x="530" y="62.1" class="st1" width="8.7" height="3.6"/>
		<rect x="555.6" y="62.1" class="st1" width="8.7" height="3.6"/>
	</g>
	<path class="st1" d="M454.7,32.8v26.8c0,5.7-4.6,10.4-10.4,10.4H440V54.2c-1.7,0.6-3.4,1-5.1,1.3c-0.7,0.1-1.5,0.2-2.2,0.2V43.1
		c3-0.2,5.6-1.7,7.4-3.9c1.4-1.8,2.2-4,2.2-6.4H454.7z"/>
</g>
</svg>
